ISO-10303-21;
HEADER;
/* Generated by software containing ST-Developer
 * from STEP Tools, Inc. (www.steptools.com) 
 */

FILE_DESCRIPTION(
/* description */ (''),
/* implementation_level */ '2;1');

FILE_NAME(
/* name */ 'bottom_replacement_housing_master.stp',
/* time_stamp */ '2026-04-07T10:57:04+02:00',
/* author */ ('Paul Juschitz'),
/* organization */ (''),
/* preprocessor_version */ 'ST-DEVELOPER v20.1',
/* originating_system */ 'Autodesk Inventor 2026',
/* authorisation */ '');

FILE_SCHEMA (('AUTOMOTIVE_DESIGN { 1 0 10303 214 3 1 1 }'));
ENDSEC;

DATA;
#10=MECHANICAL_DESIGN_GEOMETRIC_PRESENTATION_REPRESENTATION('',(#32,#33,
#34,#35,#36,#37,#38,#39,#40,#41,#42,#43,#44,#45,#46,#47),#1137);
#11=GEOMETRICALLY_BOUNDED_WIREFRAME_SHAPE_REPRESENTATION('',(#12,#13),#1136);
#12=GEOMETRIC_CURVE_SET('Sketch13',(#21,#22,#23,#24,#25,#26,#17,#18,#19,
#20,#27,#1124));
#13=GEOMETRIC_CURVE_SET('Sketch14',(#28,#29,#30,#31,#1133));
#14=SHAPE_REPRESENTATION_RELATIONSHIP('SRR','None',#1144,#16);
#15=SHAPE_REPRESENTATION_RELATIONSHIP('SRR','None',#1144,#11);
#16=ADVANCED_BREP_SHAPE_REPRESENTATION('',(#48),#1136);
#17=TRIMMED_CURVE('',#287,(#1111,PARAMETER_VALUE(3.14159265358979)),(#1112,
PARAMETER_VALUE(4.71238898038469)),.T.,.PARAMETER.);
#18=TRIMMED_CURVE('',#288,(#1114,PARAMETER_VALUE(4.71238898038469)),(#1115,
PARAMETER_VALUE(6.28318530717959)),.T.,.PARAMETER.);
#19=TRIMMED_CURVE('',#289,(#1117,PARAMETER_VALUE(0.)),(#1118,
PARAMETER_VALUE(1.5707963267949)),.T.,.PARAMETER.);
#20=TRIMMED_CURVE('',#290,(#1120,PARAMETER_VALUE(1.5707963267949)),(#1121,
PARAMETER_VALUE(3.14159265358979)),.T.,.PARAMETER.);
#21=POLYLINE('',(#1098,#1099));
#22=POLYLINE('',(#1100,#1101));
#23=POLYLINE('',(#1102,#1103));
#24=POLYLINE('',(#1104,#1105));
#25=POLYLINE('',(#1106,#1107));
#26=POLYLINE('',(#1108,#1109));
#27=POLYLINE('',(#1122,#1123));
#28=POLYLINE('',(#1125,#1126));
#29=POLYLINE('',(#1127,#1128));
#30=POLYLINE('',(#1129,#1130));
#31=POLYLINE('',(#1131,#1132));
#32=STYLED_ITEM('',(#1153),#48);
#33=STYLED_ITEM('',(#1155),#21);
#34=STYLED_ITEM('',(#1155),#22);
#35=STYLED_ITEM('',(#1155),#23);
#36=STYLED_ITEM('',(#1155),#24);
#37=STYLED_ITEM('',(#1154),#25);
#38=STYLED_ITEM('',(#1154),#26);
#39=STYLED_ITEM('',(#1155),#17);
#40=STYLED_ITEM('',(#1155),#18);
#41=STYLED_ITEM('',(#1155),#19);
#42=STYLED_ITEM('',(#1155),#20);
#43=STYLED_ITEM('',(#1154),#27);
#44=STYLED_ITEM('',(#1155),#28);
#45=STYLED_ITEM('',(#1155),#29);
#46=STYLED_ITEM('',(#1155),#30);
#47=STYLED_ITEM('',(#1155),#31);
#48=MANIFOLD_SOLID_BREP('Solid1',#621);
#49=FACE_BOUND('',#128,.T.);
#50=FACE_BOUND('',#129,.T.);
#51=FACE_BOUND('',#136,.T.);
#52=FACE_BOUND('',#141,.T.);
#53=FACE_BOUND('',#144,.T.);
#54=FACE_BOUND('',#147,.T.);
#55=FACE_BOUND('',#150,.T.);
#56=FACE_BOUND('',#153,.T.);
#57=FACE_BOUND('',#167,.T.);
#58=FACE_BOUND('',#168,.T.);
#59=FACE_BOUND('',#169,.T.);
#60=FACE_BOUND('',#170,.T.);
#61=FACE_BOUND('',#171,.T.);
#62=FACE_BOUND('',#172,.T.);
#63=FACE_BOUND('',#173,.T.);
#64=FACE_BOUND('',#179,.T.);
#65=FACE_BOUND('',#180,.T.);
#66=FACE_BOUND('',#181,.T.);
#67=PLANE('',#647);
#68=PLANE('',#648);
#69=PLANE('',#657);
#70=PLANE('',#658);
#71=PLANE('',#664);
#72=PLANE('',#668);
#73=PLANE('',#671);
#74=PLANE('',#675);
#75=PLANE('',#680);
#76=PLANE('',#685);
#77=PLANE('',#690);
#78=PLANE('',#694);
#79=PLANE('',#697);
#80=PLANE('',#700);
#81=PLANE('',#703);
#82=PLANE('',#704);
#83=PLANE('',#705);
#84=PLANE('',#712);
#85=PLANE('',#725);
#86=FACE_OUTER_BOUND('',#125,.T.);
#87=FACE_OUTER_BOUND('',#126,.T.);
#88=FACE_OUTER_BOUND('',#127,.T.);
#89=FACE_OUTER_BOUND('',#130,.T.);
#90=FACE_OUTER_BOUND('',#131,.T.);
#91=FACE_OUTER_BOUND('',#132,.T.);
#92=FACE_OUTER_BOUND('',#133,.T.);
#93=FACE_OUTER_BOUND('',#134,.T.);
#94=FACE_OUTER_BOUND('',#135,.T.);
#95=FACE_OUTER_BOUND('',#137,.T.);
#96=FACE_OUTER_BOUND('',#138,.T.);
#97=FACE_OUTER_BOUND('',#139,.T.);
#98=FACE_OUTER_BOUND('',#140,.T.);
#99=FACE_OUTER_BOUND('',#142,.T.);
#100=FACE_OUTER_BOUND('',#143,.T.);
#101=FACE_OUTER_BOUND('',#145,.T.);
#102=FACE_OUTER_BOUND('',#146,.T.);
#103=FACE_OUTER_BOUND('',#148,.T.);
#104=FACE_OUTER_BOUND('',#149,.T.);
#105=FACE_OUTER_BOUND('',#151,.T.);
#106=FACE_OUTER_BOUND('',#152,.T.);
#107=FACE_OUTER_BOUND('',#154,.T.);
#108=FACE_OUTER_BOUND('',#155,.T.);
#109=FACE_OUTER_BOUND('',#156,.T.);
#110=FACE_OUTER_BOUND('',#157,.T.);
#111=FACE_OUTER_BOUND('',#158,.T.);
#112=FACE_OUTER_BOUND('',#159,.T.);
#113=FACE_OUTER_BOUND('',#160,.T.);
#114=FACE_OUTER_BOUND('',#161,.T.);
#115=FACE_OUTER_BOUND('',#162,.T.);
#116=FACE_OUTER_BOUND('',#163,.T.);
#117=FACE_OUTER_BOUND('',#164,.T.);
#118=FACE_OUTER_BOUND('',#165,.T.);
#119=FACE_OUTER_BOUND('',#166,.T.);
#120=FACE_OUTER_BOUND('',#174,.T.);
#121=FACE_OUTER_BOUND('',#175,.T.);
#122=FACE_OUTER_BOUND('',#176,.T.);
#123=FACE_OUTER_BOUND('',#177,.T.);
#124=FACE_OUTER_BOUND('',#178,.T.);
#125=EDGE_LOOP('',(#414,#415,#416,#417));
#126=EDGE_LOOP('',(#418,#419,#420,#421));
#127=EDGE_LOOP('',(#422,#423,#424,#425,#426,#427,#428,#429));
#128=EDGE_LOOP('',(#430));
#129=EDGE_LOOP('',(#431));
#130=EDGE_LOOP('',(#432,#433,#434,#435));
#131=EDGE_LOOP('',(#436,#437,#438,#439));
#132=EDGE_LOOP('',(#440));
#133=EDGE_LOOP('',(#441,#442,#443,#444));
#134=EDGE_LOOP('',(#445,#446,#447,#448));
#135=EDGE_LOOP('',(#449));
#136=EDGE_LOOP('',(#450));
#137=EDGE_LOOP('',(#451,#452,#453,#454));
#138=EDGE_LOOP('',(#455));
#139=EDGE_LOOP('',(#456,#457,#458,#459));
#140=EDGE_LOOP('',(#460));
#141=EDGE_LOOP('',(#461));
#142=EDGE_LOOP('',(#462,#463,#464,#465));
#143=EDGE_LOOP('',(#466));
#144=EDGE_LOOP('',(#467));
#145=EDGE_LOOP('',(#468,#469,#470,#471));
#146=EDGE_LOOP('',(#472));
#147=EDGE_LOOP('',(#473));
#148=EDGE_LOOP('',(#474,#475,#476,#477));
#149=EDGE_LOOP('',(#478));
#150=EDGE_LOOP('',(#479));
#151=EDGE_LOOP('',(#480,#481,#482,#483));
#152=EDGE_LOOP('',(#484));
#153=EDGE_LOOP('',(#485));
#154=EDGE_LOOP('',(#486,#487,#488,#489));
#155=EDGE_LOOP('',(#490));
#156=EDGE_LOOP('',(#491,#492,#493,#494));
#157=EDGE_LOOP('',(#495));
#158=EDGE_LOOP('',(#496,#497,#498,#499));
#159=EDGE_LOOP('',(#500));
#160=EDGE_LOOP('',(#501,#502,#503,#504));
#161=EDGE_LOOP('',(#505));
#162=EDGE_LOOP('',(#506,#507,#508,#509));
#163=EDGE_LOOP('',(#510,#511,#512,#513,#514,#515,#516));
#164=EDGE_LOOP('',(#517,#518,#519,#520));
#165=EDGE_LOOP('',(#521,#522,#523,#524));
#166=EDGE_LOOP('',(#525,#526));
#167=EDGE_LOOP('',(#527));
#168=EDGE_LOOP('',(#528));
#169=EDGE_LOOP('',(#529));
#170=EDGE_LOOP('',(#530));
#171=EDGE_LOOP('',(#531));
#172=EDGE_LOOP('',(#532));
#173=EDGE_LOOP('',(#533));
#174=EDGE_LOOP('',(#534,#535,#536,#537,#538,#539,#540,#541,#542,#543,#544));
#175=EDGE_LOOP('',(#545,#546,#547,#548));
#176=EDGE_LOOP('',(#549,#550,#551,#552));
#177=EDGE_LOOP('',(#553,#554,#555,#556));
#178=EDGE_LOOP('',(#557,#558));
#179=EDGE_LOOP('',(#559));
#180=EDGE_LOOP('',(#560));
#181=EDGE_LOOP('',(#561));
#182=LINE('',#941,#213);
#183=LINE('',#944,#214);
#184=LINE('',#947,#215);
#185=LINE('',#949,#216);
#186=LINE('',#950,#217);
#187=LINE('',#953,#218);
#188=LINE('',#961,#219);
#189=LINE('',#969,#220);
#190=LINE('',#973,#221);
#191=LINE('',#974,#222);
#192=LINE('',#981,#223);
#193=LINE('',#985,#224);
#194=LINE('',#991,#225);
#195=LINE('',#997,#226);
#196=LINE('',#1003,#227);
#197=LINE('',#1012,#228);
#198=LINE('',#1021,#229);
#199=LINE('',#1030,#230);
#200=LINE('',#1037,#231);
#201=LINE('',#1042,#232);
#202=LINE('',#1047,#233);
#203=LINE('',#1052,#234);
#204=LINE('',#1057,#235);
#205=LINE('',#1058,#236);
#206=LINE('',#1065,#237);
#207=LINE('',#1068,#238);
#208=LINE('',#1073,#239);
#209=LINE('',#1074,#240);
#210=LINE('',#1088,#241);
#211=LINE('',#1092,#242);
#212=LINE('',#1096,#243);
#213=VECTOR('',#736,10.);
#214=VECTOR('',#739,10.);
#215=VECTOR('',#742,10.);
#216=VECTOR('',#743,10.);
#217=VECTOR('',#744,10.);
#218=VECTOR('',#747,10.);
#219=VECTOR('',#754,10.);
#220=VECTOR('',#763,10.);
#221=VECTOR('',#768,10.);
#222=VECTOR('',#769,10.);
#223=VECTOR('',#778,5.25);
#224=VECTOR('',#783,6.25);
#225=VECTOR('',#790,5.25);
#226=VECTOR('',#799,6.25);
#227=VECTOR('',#806,5.25);
#228=VECTOR('',#817,5.25);
#229=VECTOR('',#828,5.25);
#230=VECTOR('',#839,5.25);
#231=VECTOR('',#848,6.25);
#232=VECTOR('',#855,6.25);
#233=VECTOR('',#862,6.25);
#234=VECTOR('',#869,6.25);
#235=VECTOR('',#876,10.);
#236=VECTOR('',#877,10.);
#237=VECTOR('',#886,10.);
#238=VECTOR('',#889,10.);
#239=VECTOR('',#894,10.);
#240=VECTOR('',#895,10.);
#241=VECTOR('',#914,1.25);
#242=VECTOR('',#919,1.25);
#243=VECTOR('',#924,1.25);
#244=CIRCLE('',#645,8.2);
#245=CIRCLE('',#646,8.2);
#246=CIRCLE('',#649,75.3);
#247=CIRCLE('',#650,141.5);
#248=CIRCLE('',#651,75.3);
#249=CIRCLE('',#652,8.2);
#250=CIRCLE('',#653,6.25);
#251=CIRCLE('',#654,6.25);
#252=CIRCLE('',#656,8.2);
#253=CIRCLE('',#659,5.25);
#254=CIRCLE('',#661,5.25);
#255=CIRCLE('',#663,6.25);
#256=CIRCLE('',#666,5.25);
#257=CIRCLE('',#667,5.25);
#258=CIRCLE('',#670,6.25);
#259=CIRCLE('',#673,5.25);
#260=CIRCLE('',#674,5.25);
#261=CIRCLE('',#676,6.25);
#262=CIRCLE('',#678,5.25);
#263=CIRCLE('',#679,5.25);
#264=CIRCLE('',#681,6.25);
#265=CIRCLE('',#683,5.25);
#266=CIRCLE('',#684,5.25);
#267=CIRCLE('',#686,6.25);
#268=CIRCLE('',#688,5.25);
#269=CIRCLE('',#689,5.25);
#270=CIRCLE('',#691,6.25);
#271=CIRCLE('',#693,6.25);
#272=CIRCLE('',#696,6.25);
#273=CIRCLE('',#699,6.25);
#274=CIRCLE('',#702,6.25);
#275=CIRCLE('',#706,75.3);
#276=CIRCLE('',#707,140.);
#277=CIRCLE('',#709,140.);
#278=CIRCLE('',#711,141.5);
#279=CIRCLE('',#713,75.3);
#280=CIRCLE('',#714,1.25);
#281=CIRCLE('',#715,1.25);
#282=CIRCLE('',#716,1.25);
#283=CIRCLE('',#718,75.3);
#284=CIRCLE('',#720,1.25);
#285=CIRCLE('',#722,1.25);
#286=CIRCLE('',#724,1.25);
#287=CIRCLE('',#726,5.2);
#288=CIRCLE('',#727,5.2);
#289=CIRCLE('',#728,5.2);
#290=CIRCLE('',#729,5.2);
#291=VERTEX_POINT('',#937);
#292=VERTEX_POINT('',#938);
#293=VERTEX_POINT('',#940);
#294=VERTEX_POINT('',#942);
#295=VERTEX_POINT('',#946);
#296=VERTEX_POINT('',#948);
#297=VERTEX_POINT('',#952);
#298=VERTEX_POINT('',#954);
#299=VERTEX_POINT('',#956);
#300=VERTEX_POINT('',#958);
#301=VERTEX_POINT('',#960);
#302=VERTEX_POINT('',#963);
#303=VERTEX_POINT('',#965);
#304=VERTEX_POINT('',#968);
#305=VERTEX_POINT('',#972);
#306=VERTEX_POINT('',#976);
#307=VERTEX_POINT('',#979);
#308=VERTEX_POINT('',#983);
#309=VERTEX_POINT('',#988);
#310=VERTEX_POINT('',#990);
#311=VERTEX_POINT('',#995);
#312=VERTEX_POINT('',#1000);
#313=VERTEX_POINT('',#1002);
#314=VERTEX_POINT('',#1006);
#315=VERTEX_POINT('',#1009);
#316=VERTEX_POINT('',#1011);
#317=VERTEX_POINT('',#1015);
#318=VERTEX_POINT('',#1018);
#319=VERTEX_POINT('',#1020);
#320=VERTEX_POINT('',#1024);
#321=VERTEX_POINT('',#1027);
#322=VERTEX_POINT('',#1029);
#323=VERTEX_POINT('',#1033);
#324=VERTEX_POINT('',#1036);
#325=VERTEX_POINT('',#1041);
#326=VERTEX_POINT('',#1046);
#327=VERTEX_POINT('',#1051);
#328=VERTEX_POINT('',#1056);
#329=VERTEX_POINT('',#1060);
#330=VERTEX_POINT('',#1064);
#331=VERTEX_POINT('',#1066);
#332=VERTEX_POINT('',#1070);
#333=VERTEX_POINT('',#1071);
#334=VERTEX_POINT('',#1077);
#335=VERTEX_POINT('',#1079);
#336=VERTEX_POINT('',#1081);
#337=VERTEX_POINT('',#1086);
#338=VERTEX_POINT('',#1090);
#339=VERTEX_POINT('',#1094);
#340=EDGE_CURVE('',#291,#292,#244,.T.);
#341=EDGE_CURVE('',#292,#293,#182,.T.);
#342=EDGE_CURVE('',#293,#294,#245,.T.);
#343=EDGE_CURVE('',#294,#291,#183,.T.);
#344=EDGE_CURVE('',#292,#295,#184,.T.);
#345=EDGE_CURVE('',#296,#295,#185,.T.);
#346=EDGE_CURVE('',#296,#293,#186,.T.);
#347=EDGE_CURVE('',#297,#291,#187,.T.);
#348=EDGE_CURVE('',#297,#298,#246,.T.);
#349=EDGE_CURVE('',#298,#299,#247,.T.);
#350=EDGE_CURVE('',#299,#300,#248,.T.);
#351=EDGE_CURVE('',#301,#300,#188,.T.);
#352=EDGE_CURVE('',#295,#301,#249,.T.);
#353=EDGE_CURVE('',#302,#302,#250,.T.);
#354=EDGE_CURVE('',#303,#303,#251,.T.);
#355=EDGE_CURVE('',#301,#304,#189,.T.);
#356=EDGE_CURVE('',#304,#296,#252,.T.);
#357=EDGE_CURVE('',#305,#300,#190,.T.);
#358=EDGE_CURVE('',#305,#304,#191,.T.);
#359=EDGE_CURVE('',#306,#306,#253,.T.);
#360=EDGE_CURVE('',#307,#307,#254,.T.);
#361=EDGE_CURVE('',#307,#306,#192,.T.);
#362=EDGE_CURVE('',#308,#308,#255,.T.);
#363=EDGE_CURVE('',#308,#303,#193,.T.);
#364=EDGE_CURVE('',#309,#309,#256,.T.);
#365=EDGE_CURVE('',#309,#310,#194,.T.);
#366=EDGE_CURVE('',#310,#310,#257,.T.);
#367=EDGE_CURVE('',#311,#311,#258,.T.);
#368=EDGE_CURVE('',#311,#302,#195,.T.);
#369=EDGE_CURVE('',#312,#312,#259,.T.);
#370=EDGE_CURVE('',#312,#313,#196,.T.);
#371=EDGE_CURVE('',#313,#313,#260,.T.);
#372=EDGE_CURVE('',#314,#314,#261,.T.);
#373=EDGE_CURVE('',#315,#315,#262,.T.);
#374=EDGE_CURVE('',#315,#316,#197,.T.);
#375=EDGE_CURVE('',#316,#316,#263,.T.);
#376=EDGE_CURVE('',#317,#317,#264,.T.);
#377=EDGE_CURVE('',#318,#318,#265,.T.);
#378=EDGE_CURVE('',#318,#319,#198,.T.);
#379=EDGE_CURVE('',#319,#319,#266,.T.);
#380=EDGE_CURVE('',#320,#320,#267,.T.);
#381=EDGE_CURVE('',#321,#321,#268,.T.);
#382=EDGE_CURVE('',#321,#322,#199,.T.);
#383=EDGE_CURVE('',#322,#322,#269,.T.);
#384=EDGE_CURVE('',#323,#323,#270,.T.);
#385=EDGE_CURVE('',#314,#324,#200,.T.);
#386=EDGE_CURVE('',#324,#324,#271,.T.);
#387=EDGE_CURVE('',#317,#325,#201,.T.);
#388=EDGE_CURVE('',#325,#325,#272,.T.);
#389=EDGE_CURVE('',#320,#326,#202,.T.);
#390=EDGE_CURVE('',#326,#326,#273,.T.);
#391=EDGE_CURVE('',#323,#327,#203,.T.);
#392=EDGE_CURVE('',#327,#327,#274,.T.);
#393=EDGE_CURVE('',#294,#328,#204,.T.);
#394=EDGE_CURVE('',#297,#328,#205,.T.);
#395=EDGE_CURVE('',#329,#305,#275,.T.);
#396=EDGE_CURVE('',#328,#329,#276,.T.);
#397=EDGE_CURVE('',#330,#329,#206,.T.);
#398=EDGE_CURVE('',#331,#330,#277,.T.);
#399=EDGE_CURVE('',#328,#331,#207,.T.);
#400=EDGE_CURVE('',#332,#333,#278,.T.);
#401=EDGE_CURVE('',#332,#299,#208,.T.);
#402=EDGE_CURVE('',#333,#298,#209,.T.);
#403=EDGE_CURVE('',#332,#333,#279,.T.);
#404=EDGE_CURVE('',#334,#334,#280,.T.);
#405=EDGE_CURVE('',#335,#335,#281,.T.);
#406=EDGE_CURVE('',#336,#336,#282,.T.);
#407=EDGE_CURVE('',#330,#331,#283,.T.);
#408=EDGE_CURVE('',#337,#337,#284,.T.);
#409=EDGE_CURVE('',#337,#334,#210,.T.);
#410=EDGE_CURVE('',#338,#338,#285,.T.);
#411=EDGE_CURVE('',#338,#335,#211,.T.);
#412=EDGE_CURVE('',#339,#339,#286,.T.);
#413=EDGE_CURVE('',#339,#336,#212,.T.);
#414=ORIENTED_EDGE('',*,*,#340,.T.);
#415=ORIENTED_EDGE('',*,*,#341,.T.);
#416=ORIENTED_EDGE('',*,*,#342,.T.);
#417=ORIENTED_EDGE('',*,*,#343,.T.);
#418=ORIENTED_EDGE('',*,*,#341,.F.);
#419=ORIENTED_EDGE('',*,*,#344,.T.);
#420=ORIENTED_EDGE('',*,*,#345,.F.);
#421=ORIENTED_EDGE('',*,*,#346,.T.);
#422=ORIENTED_EDGE('',*,*,#340,.F.);
#423=ORIENTED_EDGE('',*,*,#347,.F.);
#424=ORIENTED_EDGE('',*,*,#348,.T.);
#425=ORIENTED_EDGE('',*,*,#349,.T.);
#426=ORIENTED_EDGE('',*,*,#350,.T.);
#427=ORIENTED_EDGE('',*,*,#351,.F.);
#428=ORIENTED_EDGE('',*,*,#352,.F.);
#429=ORIENTED_EDGE('',*,*,#344,.F.);
#430=ORIENTED_EDGE('',*,*,#353,.T.);
#431=ORIENTED_EDGE('',*,*,#354,.T.);
#432=ORIENTED_EDGE('',*,*,#352,.T.);
#433=ORIENTED_EDGE('',*,*,#355,.T.);
#434=ORIENTED_EDGE('',*,*,#356,.T.);
#435=ORIENTED_EDGE('',*,*,#345,.T.);
#436=ORIENTED_EDGE('',*,*,#355,.F.);
#437=ORIENTED_EDGE('',*,*,#351,.T.);
#438=ORIENTED_EDGE('',*,*,#357,.F.);
#439=ORIENTED_EDGE('',*,*,#358,.T.);
#440=ORIENTED_EDGE('',*,*,#359,.F.);
#441=ORIENTED_EDGE('',*,*,#360,.T.);
#442=ORIENTED_EDGE('',*,*,#361,.T.);
#443=ORIENTED_EDGE('',*,*,#359,.T.);
#444=ORIENTED_EDGE('',*,*,#361,.F.);
#445=ORIENTED_EDGE('',*,*,#362,.T.);
#446=ORIENTED_EDGE('',*,*,#363,.T.);
#447=ORIENTED_EDGE('',*,*,#354,.F.);
#448=ORIENTED_EDGE('',*,*,#363,.F.);
#449=ORIENTED_EDGE('',*,*,#362,.F.);
#450=ORIENTED_EDGE('',*,*,#360,.F.);
#451=ORIENTED_EDGE('',*,*,#364,.F.);
#452=ORIENTED_EDGE('',*,*,#365,.T.);
#453=ORIENTED_EDGE('',*,*,#366,.T.);
#454=ORIENTED_EDGE('',*,*,#365,.F.);
#455=ORIENTED_EDGE('',*,*,#366,.F.);
#456=ORIENTED_EDGE('',*,*,#367,.T.);
#457=ORIENTED_EDGE('',*,*,#368,.T.);
#458=ORIENTED_EDGE('',*,*,#353,.F.);
#459=ORIENTED_EDGE('',*,*,#368,.F.);
#460=ORIENTED_EDGE('',*,*,#367,.F.);
#461=ORIENTED_EDGE('',*,*,#364,.T.);
#462=ORIENTED_EDGE('',*,*,#369,.F.);
#463=ORIENTED_EDGE('',*,*,#370,.T.);
#464=ORIENTED_EDGE('',*,*,#371,.F.);
#465=ORIENTED_EDGE('',*,*,#370,.F.);
#466=ORIENTED_EDGE('',*,*,#372,.T.);
#467=ORIENTED_EDGE('',*,*,#369,.T.);
#468=ORIENTED_EDGE('',*,*,#373,.F.);
#469=ORIENTED_EDGE('',*,*,#374,.T.);
#470=ORIENTED_EDGE('',*,*,#375,.F.);
#471=ORIENTED_EDGE('',*,*,#374,.F.);
#472=ORIENTED_EDGE('',*,*,#376,.T.);
#473=ORIENTED_EDGE('',*,*,#373,.T.);
#474=ORIENTED_EDGE('',*,*,#377,.F.);
#475=ORIENTED_EDGE('',*,*,#378,.T.);
#476=ORIENTED_EDGE('',*,*,#379,.F.);
#477=ORIENTED_EDGE('',*,*,#378,.F.);
#478=ORIENTED_EDGE('',*,*,#380,.T.);
#479=ORIENTED_EDGE('',*,*,#377,.T.);
#480=ORIENTED_EDGE('',*,*,#381,.F.);
#481=ORIENTED_EDGE('',*,*,#382,.T.);
#482=ORIENTED_EDGE('',*,*,#383,.F.);
#483=ORIENTED_EDGE('',*,*,#382,.F.);
#484=ORIENTED_EDGE('',*,*,#384,.T.);
#485=ORIENTED_EDGE('',*,*,#381,.T.);
#486=ORIENTED_EDGE('',*,*,#372,.F.);
#487=ORIENTED_EDGE('',*,*,#385,.T.);
#488=ORIENTED_EDGE('',*,*,#386,.F.);
#489=ORIENTED_EDGE('',*,*,#385,.F.);
#490=ORIENTED_EDGE('',*,*,#371,.T.);
#491=ORIENTED_EDGE('',*,*,#376,.F.);
#492=ORIENTED_EDGE('',*,*,#387,.T.);
#493=ORIENTED_EDGE('',*,*,#388,.F.);
#494=ORIENTED_EDGE('',*,*,#387,.F.);
#495=ORIENTED_EDGE('',*,*,#375,.T.);
#496=ORIENTED_EDGE('',*,*,#380,.F.);
#497=ORIENTED_EDGE('',*,*,#389,.T.);
#498=ORIENTED_EDGE('',*,*,#390,.F.);
#499=ORIENTED_EDGE('',*,*,#389,.F.);
#500=ORIENTED_EDGE('',*,*,#379,.T.);
#501=ORIENTED_EDGE('',*,*,#384,.F.);
#502=ORIENTED_EDGE('',*,*,#391,.T.);
#503=ORIENTED_EDGE('',*,*,#392,.F.);
#504=ORIENTED_EDGE('',*,*,#391,.F.);
#505=ORIENTED_EDGE('',*,*,#383,.T.);
#506=ORIENTED_EDGE('',*,*,#343,.F.);
#507=ORIENTED_EDGE('',*,*,#393,.T.);
#508=ORIENTED_EDGE('',*,*,#394,.F.);
#509=ORIENTED_EDGE('',*,*,#347,.T.);
#510=ORIENTED_EDGE('',*,*,#342,.F.);
#511=ORIENTED_EDGE('',*,*,#346,.F.);
#512=ORIENTED_EDGE('',*,*,#356,.F.);
#513=ORIENTED_EDGE('',*,*,#358,.F.);
#514=ORIENTED_EDGE('',*,*,#395,.F.);
#515=ORIENTED_EDGE('',*,*,#396,.F.);
#516=ORIENTED_EDGE('',*,*,#393,.F.);
#517=ORIENTED_EDGE('',*,*,#396,.T.);
#518=ORIENTED_EDGE('',*,*,#397,.F.);
#519=ORIENTED_EDGE('',*,*,#398,.F.);
#520=ORIENTED_EDGE('',*,*,#399,.F.);
#521=ORIENTED_EDGE('',*,*,#400,.F.);
#522=ORIENTED_EDGE('',*,*,#401,.T.);
#523=ORIENTED_EDGE('',*,*,#349,.F.);
#524=ORIENTED_EDGE('',*,*,#402,.F.);
#525=ORIENTED_EDGE('',*,*,#400,.T.);
#526=ORIENTED_EDGE('',*,*,#403,.F.);
#527=ORIENTED_EDGE('',*,*,#386,.T.);
#528=ORIENTED_EDGE('',*,*,#388,.T.);
#529=ORIENTED_EDGE('',*,*,#390,.T.);
#530=ORIENTED_EDGE('',*,*,#392,.T.);
#531=ORIENTED_EDGE('',*,*,#404,.F.);
#532=ORIENTED_EDGE('',*,*,#405,.F.);
#533=ORIENTED_EDGE('',*,*,#406,.F.);
#534=ORIENTED_EDGE('',*,*,#397,.T.);
#535=ORIENTED_EDGE('',*,*,#395,.T.);
#536=ORIENTED_EDGE('',*,*,#357,.T.);
#537=ORIENTED_EDGE('',*,*,#350,.F.);
#538=ORIENTED_EDGE('',*,*,#401,.F.);
#539=ORIENTED_EDGE('',*,*,#403,.T.);
#540=ORIENTED_EDGE('',*,*,#402,.T.);
#541=ORIENTED_EDGE('',*,*,#348,.F.);
#542=ORIENTED_EDGE('',*,*,#394,.T.);
#543=ORIENTED_EDGE('',*,*,#399,.T.);
#544=ORIENTED_EDGE('',*,*,#407,.F.);
#545=ORIENTED_EDGE('',*,*,#408,.F.);
#546=ORIENTED_EDGE('',*,*,#409,.T.);
#547=ORIENTED_EDGE('',*,*,#404,.T.);
#548=ORIENTED_EDGE('',*,*,#409,.F.);
#549=ORIENTED_EDGE('',*,*,#410,.F.);
#550=ORIENTED_EDGE('',*,*,#411,.T.);
#551=ORIENTED_EDGE('',*,*,#405,.T.);
#552=ORIENTED_EDGE('',*,*,#411,.F.);
#553=ORIENTED_EDGE('',*,*,#412,.F.);
#554=ORIENTED_EDGE('',*,*,#413,.T.);
#555=ORIENTED_EDGE('',*,*,#406,.T.);
#556=ORIENTED_EDGE('',*,*,#413,.F.);
#557=ORIENTED_EDGE('',*,*,#398,.T.);
#558=ORIENTED_EDGE('',*,*,#407,.T.);
#559=ORIENTED_EDGE('',*,*,#412,.T.);
#560=ORIENTED_EDGE('',*,*,#410,.T.);
#561=ORIENTED_EDGE('',*,*,#408,.T.);
#562=CYLINDRICAL_SURFACE('',#644,8.2);
#563=CYLINDRICAL_SURFACE('',#655,8.2);
#564=CYLINDRICAL_SURFACE('',#660,5.25);
#565=CYLINDRICAL_SURFACE('',#662,6.25);
#566=CYLINDRICAL_SURFACE('',#665,5.25);
#567=CYLINDRICAL_SURFACE('',#669,6.25);
#568=CYLINDRICAL_SURFACE('',#672,5.25);
#569=CYLINDRICAL_SURFACE('',#677,5.25);
#570=CYLINDRICAL_SURFACE('',#682,5.25);
#571=CYLINDRICAL_SURFACE('',#687,5.25);
#572=CYLINDRICAL_SURFACE('',#692,6.25);
#573=CYLINDRICAL_SURFACE('',#695,6.25);
#574=CYLINDRICAL_SURFACE('',#698,6.25);
#575=CYLINDRICAL_SURFACE('',#701,6.25);
#576=CYLINDRICAL_SURFACE('',#708,140.);
#577=CYLINDRICAL_SURFACE('',#710,141.5);
#578=CYLINDRICAL_SURFACE('',#717,75.3);
#579=CYLINDRICAL_SURFACE('',#719,1.25);
#580=CYLINDRICAL_SURFACE('',#721,1.25);
#581=CYLINDRICAL_SURFACE('',#723,1.25);
#582=ADVANCED_FACE('',(#86),#562,.T.);
#583=ADVANCED_FACE('',(#87),#67,.T.);
#584=ADVANCED_FACE('',(#88,#49,#50),#68,.T.);
#585=ADVANCED_FACE('',(#89),#563,.T.);
#586=ADVANCED_FACE('',(#90),#69,.T.);
#587=ADVANCED_FACE('',(#91),#70,.T.);
#588=ADVANCED_FACE('',(#92),#564,.F.);
#589=ADVANCED_FACE('',(#93),#565,.T.);
#590=ADVANCED_FACE('',(#94,#51),#71,.T.);
#591=ADVANCED_FACE('',(#95),#566,.F.);
#592=ADVANCED_FACE('',(#96),#72,.T.);
#593=ADVANCED_FACE('',(#97),#567,.T.);
#594=ADVANCED_FACE('',(#98,#52),#73,.T.);
#595=ADVANCED_FACE('',(#99),#568,.F.);
#596=ADVANCED_FACE('',(#100,#53),#74,.T.);
#597=ADVANCED_FACE('',(#101),#569,.F.);
#598=ADVANCED_FACE('',(#102,#54),#75,.T.);
#599=ADVANCED_FACE('',(#103),#570,.F.);
#600=ADVANCED_FACE('',(#104,#55),#76,.T.);
#601=ADVANCED_FACE('',(#105),#571,.F.);
#602=ADVANCED_FACE('',(#106,#56),#77,.T.);
#603=ADVANCED_FACE('',(#107),#572,.T.);
#604=ADVANCED_FACE('',(#108),#78,.T.);
#605=ADVANCED_FACE('',(#109),#573,.T.);
#606=ADVANCED_FACE('',(#110),#79,.T.);
#607=ADVANCED_FACE('',(#111),#574,.T.);
#608=ADVANCED_FACE('',(#112),#80,.T.);
#609=ADVANCED_FACE('',(#113),#575,.T.);
#610=ADVANCED_FACE('',(#114),#81,.T.);
#611=ADVANCED_FACE('',(#115),#82,.T.);
#612=ADVANCED_FACE('',(#116),#83,.F.);
#613=ADVANCED_FACE('',(#117),#576,.F.);
#614=ADVANCED_FACE('',(#118),#577,.T.);
#615=ADVANCED_FACE('',(#119,#57,#58,#59,#60,#61,#62,#63),#84,.F.);
#616=ADVANCED_FACE('',(#120),#578,.T.);
#617=ADVANCED_FACE('',(#121),#579,.F.);
#618=ADVANCED_FACE('',(#122),#580,.F.);
#619=ADVANCED_FACE('',(#123),#581,.F.);
#620=ADVANCED_FACE('',(#124,#64,#65,#66),#85,.T.);
#621=CLOSED_SHELL('',(#582,#583,#584,#585,#586,#587,#588,#589,#590,#591,
#592,#593,#594,#595,#596,#597,#598,#599,#600,#601,#602,#603,#604,#605,#606,
#607,#608,#609,#610,#611,#612,#613,#614,#615,#616,#617,#618,#619,#620));
#622=DERIVED_UNIT_ELEMENT(#625,1.);
#623=DERIVED_UNIT_ELEMENT(#1139,-3.);
#624=DIMENSIONAL_EXPONENTS(0.,1.,0.,0.,0.,0.,0.);
#625=(
CONVERSION_BASED_UNIT('gram',#627)
MASS_UNIT()
NAMED_UNIT(#624)
);
#626=(
MASS_UNIT()
NAMED_UNIT(*)
SI_UNIT(.KILO.,.GRAM.)
);
#627=MASS_MEASURE_WITH_UNIT(MASS_MEASURE(0.001),#626);
#628=DERIVED_UNIT((#622,#623));
#629=MEASURE_REPRESENTATION_ITEM('density measure',
POSITIVE_RATIO_MEASURE(1.),#628);
#630=PROPERTY_DEFINITION_REPRESENTATION(#635,#632);
#631=PROPERTY_DEFINITION_REPRESENTATION(#636,#633);
#632=REPRESENTATION('material name',(#634),#1136);
#633=REPRESENTATION('density',(#629),#1136);
#634=DESCRIPTIVE_REPRESENTATION_ITEM('Generic','Generic');
#635=PROPERTY_DEFINITION('material property','material name',#1146);
#636=PROPERTY_DEFINITION('material property','density of part',#1146);
#637=DATE_TIME_ROLE('creation_date');
#638=APPLIED_DATE_AND_TIME_ASSIGNMENT(#639,#637,(#1146));
#639=DATE_AND_TIME(#640,#641);
#640=CALENDAR_DATE(2025,12,5);
#641=LOCAL_TIME(0,0,0.,#642);
#642=COORDINATED_UNIVERSAL_TIME_OFFSET(0,0,.BEHIND.);
#643=AXIS2_PLACEMENT_3D('',#935,#730,#731);
#644=AXIS2_PLACEMENT_3D('',#936,#732,#733);
#645=AXIS2_PLACEMENT_3D('',#939,#734,#735);
#646=AXIS2_PLACEMENT_3D('',#943,#737,#738);
#647=AXIS2_PLACEMENT_3D('',#945,#740,#741);
#648=AXIS2_PLACEMENT_3D('',#951,#745,#746);
#649=AXIS2_PLACEMENT_3D('',#955,#748,#749);
#650=AXIS2_PLACEMENT_3D('',#957,#750,#751);
#651=AXIS2_PLACEMENT_3D('',#959,#752,#753);
#652=AXIS2_PLACEMENT_3D('',#962,#755,#756);
#653=AXIS2_PLACEMENT_3D('',#964,#757,#758);
#654=AXIS2_PLACEMENT_3D('',#966,#759,#760);
#655=AXIS2_PLACEMENT_3D('',#967,#761,#762);
#656=AXIS2_PLACEMENT_3D('',#970,#764,#765);
#657=AXIS2_PLACEMENT_3D('',#971,#766,#767);
#658=AXIS2_PLACEMENT_3D('',#975,#770,#771);
#659=AXIS2_PLACEMENT_3D('',#977,#772,#773);
#660=AXIS2_PLACEMENT_3D('',#978,#774,#775);
#661=AXIS2_PLACEMENT_3D('',#980,#776,#777);
#662=AXIS2_PLACEMENT_3D('',#982,#779,#780);
#663=AXIS2_PLACEMENT_3D('',#984,#781,#782);
#664=AXIS2_PLACEMENT_3D('',#986,#784,#785);
#665=AXIS2_PLACEMENT_3D('',#987,#786,#787);
#666=AXIS2_PLACEMENT_3D('',#989,#788,#789);
#667=AXIS2_PLACEMENT_3D('',#992,#791,#792);
#668=AXIS2_PLACEMENT_3D('',#993,#793,#794);
#669=AXIS2_PLACEMENT_3D('',#994,#795,#796);
#670=AXIS2_PLACEMENT_3D('',#996,#797,#798);
#671=AXIS2_PLACEMENT_3D('',#998,#800,#801);
#672=AXIS2_PLACEMENT_3D('',#999,#802,#803);
#673=AXIS2_PLACEMENT_3D('',#1001,#804,#805);
#674=AXIS2_PLACEMENT_3D('',#1004,#807,#808);
#675=AXIS2_PLACEMENT_3D('',#1005,#809,#810);
#676=AXIS2_PLACEMENT_3D('',#1007,#811,#812);
#677=AXIS2_PLACEMENT_3D('',#1008,#813,#814);
#678=AXIS2_PLACEMENT_3D('',#1010,#815,#816);
#679=AXIS2_PLACEMENT_3D('',#1013,#818,#819);
#680=AXIS2_PLACEMENT_3D('',#1014,#820,#821);
#681=AXIS2_PLACEMENT_3D('',#1016,#822,#823);
#682=AXIS2_PLACEMENT_3D('',#1017,#824,#825);
#683=AXIS2_PLACEMENT_3D('',#1019,#826,#827);
#684=AXIS2_PLACEMENT_3D('',#1022,#829,#830);
#685=AXIS2_PLACEMENT_3D('',#1023,#831,#832);
#686=AXIS2_PLACEMENT_3D('',#1025,#833,#834);
#687=AXIS2_PLACEMENT_3D('',#1026,#835,#836);
#688=AXIS2_PLACEMENT_3D('',#1028,#837,#838);
#689=AXIS2_PLACEMENT_3D('',#1031,#840,#841);
#690=AXIS2_PLACEMENT_3D('',#1032,#842,#843);
#691=AXIS2_PLACEMENT_3D('',#1034,#844,#845);
#692=AXIS2_PLACEMENT_3D('',#1035,#846,#847);
#693=AXIS2_PLACEMENT_3D('',#1038,#849,#850);
#694=AXIS2_PLACEMENT_3D('',#1039,#851,#852);
#695=AXIS2_PLACEMENT_3D('',#1040,#853,#854);
#696=AXIS2_PLACEMENT_3D('',#1043,#856,#857);
#697=AXIS2_PLACEMENT_3D('',#1044,#858,#859);
#698=AXIS2_PLACEMENT_3D('',#1045,#860,#861);
#699=AXIS2_PLACEMENT_3D('',#1048,#863,#864);
#700=AXIS2_PLACEMENT_3D('',#1049,#865,#866);
#701=AXIS2_PLACEMENT_3D('',#1050,#867,#868);
#702=AXIS2_PLACEMENT_3D('',#1053,#870,#871);
#703=AXIS2_PLACEMENT_3D('',#1054,#872,#873);
#704=AXIS2_PLACEMENT_3D('',#1055,#874,#875);
#705=AXIS2_PLACEMENT_3D('',#1059,#878,#879);
#706=AXIS2_PLACEMENT_3D('',#1061,#880,#881);
#707=AXIS2_PLACEMENT_3D('',#1062,#882,#883);
#708=AXIS2_PLACEMENT_3D('',#1063,#884,#885);
#709=AXIS2_PLACEMENT_3D('',#1067,#887,#888);
#710=AXIS2_PLACEMENT_3D('',#1069,#890,#891);
#711=AXIS2_PLACEMENT_3D('',#1072,#892,#893);
#712=AXIS2_PLACEMENT_3D('',#1075,#896,#897);
#713=AXIS2_PLACEMENT_3D('',#1076,#898,#899);
#714=AXIS2_PLACEMENT_3D('',#1078,#900,#901);
#715=AXIS2_PLACEMENT_3D('',#1080,#902,#903);
#716=AXIS2_PLACEMENT_3D('',#1082,#904,#905);
#717=AXIS2_PLACEMENT_3D('',#1083,#906,#907);
#718=AXIS2_PLACEMENT_3D('',#1084,#908,#909);
#719=AXIS2_PLACEMENT_3D('',#1085,#910,#911);
#720=AXIS2_PLACEMENT_3D('',#1087,#912,#913);
#721=AXIS2_PLACEMENT_3D('',#1089,#915,#916);
#722=AXIS2_PLACEMENT_3D('',#1091,#917,#918);
#723=AXIS2_PLACEMENT_3D('',#1093,#920,#921);
#724=AXIS2_PLACEMENT_3D('',#1095,#922,#923);
#725=AXIS2_PLACEMENT_3D('',#1097,#925,#926);
#726=AXIS2_PLACEMENT_3D('',#1110,#927,#928);
#727=AXIS2_PLACEMENT_3D('',#1113,#929,#930);
#728=AXIS2_PLACEMENT_3D('',#1116,#931,#932);
#729=AXIS2_PLACEMENT_3D('',#1119,#933,#934);
#730=DIRECTION('axis',(0.,0.,1.));
#731=DIRECTION('refdir',(1.,0.,0.));
#732=DIRECTION('center_axis',(0.,-1.,0.));
#733=DIRECTION('ref_axis',(-0.707106781186548,0.,0.707106781186548));
#734=DIRECTION('center_axis',(0.,1.,0.));
#735=DIRECTION('ref_axis',(-0.707106781186548,0.,0.707106781186548));
#736=DIRECTION('',(0.,1.,0.));
#737=DIRECTION('center_axis',(0.,-1.,0.));
#738=DIRECTION('ref_axis',(-0.707106781186548,0.,0.707106781186548));
#739=DIRECTION('',(0.,-1.,0.));
#740=DIRECTION('center_axis',(0.,0.,1.));
#741=DIRECTION('ref_axis',(-1.,0.,0.));
#742=DIRECTION('',(1.,0.,0.));
#743=DIRECTION('',(0.,-1.,0.));
#744=DIRECTION('',(-1.,0.,0.));
#745=DIRECTION('center_axis',(0.,-1.,0.));
#746=DIRECTION('ref_axis',(0.,0.,-1.));
#747=DIRECTION('',(0.,0.,1.));
#748=DIRECTION('center_axis',(0.,-1.,0.));
#749=DIRECTION('ref_axis',(-0.427159926217291,0.,0.904176087625656));
#750=DIRECTION('center_axis',(0.,-1.,0.));
#751=DIRECTION('ref_axis',(-0.832186796071809,0.,-0.554495389019365));
#752=DIRECTION('center_axis',(0.,-1.,0.));
#753=DIRECTION('ref_axis',(0.998069925776328,0.,0.0621001067699169));
#754=DIRECTION('',(1.50638205766762E-16,0.,-1.));
#755=DIRECTION('center_axis',(0.,1.,0.));
#756=DIRECTION('ref_axis',(0.707106781186547,0.,0.707106781186548));
#757=DIRECTION('center_axis',(0.,1.,0.));
#758=DIRECTION('ref_axis',(1.,0.,0.));
#759=DIRECTION('center_axis',(0.,1.,0.));
#760=DIRECTION('ref_axis',(1.,0.,0.));
#761=DIRECTION('center_axis',(0.,-1.,0.));
#762=DIRECTION('ref_axis',(0.707106781186547,0.,0.707106781186548));
#763=DIRECTION('',(0.,1.,0.));
#764=DIRECTION('center_axis',(0.,-1.,0.));
#765=DIRECTION('ref_axis',(0.707106781186547,0.,0.707106781186548));
#766=DIRECTION('center_axis',(1.,0.,1.50638205766762E-16));
#767=DIRECTION('ref_axis',(-1.50638205766762E-16,0.,1.));
#768=DIRECTION('',(0.,-1.,0.));
#769=DIRECTION('',(-1.50638205766762E-16,0.,1.));
#770=DIRECTION('center_axis',(0.,-1.,0.));
#771=DIRECTION('ref_axis',(0.,0.,-1.));
#772=DIRECTION('center_axis',(0.,1.,0.));
#773=DIRECTION('ref_axis',(-1.,0.,0.));
#774=DIRECTION('center_axis',(0.,-1.,0.));
#775=DIRECTION('ref_axis',(-1.,0.,0.));
#776=DIRECTION('center_axis',(0.,-1.,0.));
#777=DIRECTION('ref_axis',(-1.,0.,0.));
#778=DIRECTION('',(0.,1.,0.));
#779=DIRECTION('center_axis',(0.,-1.,0.));
#780=DIRECTION('ref_axis',(1.,0.,0.));
#781=DIRECTION('center_axis',(0.,1.,0.));
#782=DIRECTION('ref_axis',(1.,0.,0.));
#783=DIRECTION('',(0.,1.,0.));
#784=DIRECTION('center_axis',(0.,-1.,0.));
#785=DIRECTION('ref_axis',(0.,0.,-1.));
#786=DIRECTION('center_axis',(0.,1.,0.));
#787=DIRECTION('ref_axis',(1.,0.,0.));
#788=DIRECTION('center_axis',(0.,1.,0.));
#789=DIRECTION('ref_axis',(1.,0.,0.));
#790=DIRECTION('',(0.,1.,0.));
#791=DIRECTION('center_axis',(0.,1.,0.));
#792=DIRECTION('ref_axis',(1.,0.,0.));
#793=DIRECTION('center_axis',(0.,-1.,0.));
#794=DIRECTION('ref_axis',(0.,0.,-1.));
#795=DIRECTION('center_axis',(0.,-1.,0.));
#796=DIRECTION('ref_axis',(1.,0.,0.));
#797=DIRECTION('center_axis',(0.,1.,0.));
#798=DIRECTION('ref_axis',(1.,0.,0.));
#799=DIRECTION('',(0.,1.,0.));
#800=DIRECTION('center_axis',(0.,-1.,0.));
#801=DIRECTION('ref_axis',(0.,0.,-1.));
#802=DIRECTION('center_axis',(0.,-1.,0.));
#803=DIRECTION('ref_axis',(-1.,0.,0.));
#804=DIRECTION('center_axis',(0.,1.,0.));
#805=DIRECTION('ref_axis',(-1.,0.,0.));
#806=DIRECTION('',(0.,1.,0.));
#807=DIRECTION('center_axis',(0.,-1.,0.));
#808=DIRECTION('ref_axis',(-1.,0.,0.));
#809=DIRECTION('center_axis',(0.,-1.,0.));
#810=DIRECTION('ref_axis',(0.,0.,-1.));
#811=DIRECTION('center_axis',(0.,-1.,0.));
#812=DIRECTION('ref_axis',(1.,0.,0.));
#813=DIRECTION('center_axis',(0.,-1.,0.));
#814=DIRECTION('ref_axis',(-1.,0.,0.));
#815=DIRECTION('center_axis',(0.,1.,0.));
#816=DIRECTION('ref_axis',(-1.,0.,0.));
#817=DIRECTION('',(0.,1.,0.));
#818=DIRECTION('center_axis',(0.,-1.,0.));
#819=DIRECTION('ref_axis',(-1.,0.,0.));
#820=DIRECTION('center_axis',(0.,-1.,0.));
#821=DIRECTION('ref_axis',(0.,0.,-1.));
#822=DIRECTION('center_axis',(0.,-1.,0.));
#823=DIRECTION('ref_axis',(1.,0.,0.));
#824=DIRECTION('center_axis',(0.,-1.,0.));
#825=DIRECTION('ref_axis',(-1.,0.,0.));
#826=DIRECTION('center_axis',(0.,1.,0.));
#827=DIRECTION('ref_axis',(-1.,0.,0.));
#828=DIRECTION('',(0.,1.,0.));
#829=DIRECTION('center_axis',(0.,-1.,0.));
#830=DIRECTION('ref_axis',(-1.,0.,0.));
#831=DIRECTION('center_axis',(0.,-1.,0.));
#832=DIRECTION('ref_axis',(0.,0.,-1.));
#833=DIRECTION('center_axis',(0.,-1.,0.));
#834=DIRECTION('ref_axis',(1.,0.,0.));
#835=DIRECTION('center_axis',(0.,-1.,0.));
#836=DIRECTION('ref_axis',(-1.,0.,0.));
#837=DIRECTION('center_axis',(0.,1.,0.));
#838=DIRECTION('ref_axis',(-1.,0.,0.));
#839=DIRECTION('',(0.,1.,0.));
#840=DIRECTION('center_axis',(0.,-1.,0.));
#841=DIRECTION('ref_axis',(-1.,0.,0.));
#842=DIRECTION('center_axis',(0.,-1.,0.));
#843=DIRECTION('ref_axis',(0.,0.,-1.));
#844=DIRECTION('center_axis',(0.,-1.,0.));
#845=DIRECTION('ref_axis',(1.,0.,0.));
#846=DIRECTION('center_axis',(0.,-1.,0.));
#847=DIRECTION('ref_axis',(1.,0.,0.));
#848=DIRECTION('',(0.,1.,0.));
#849=DIRECTION('center_axis',(0.,1.,0.));
#850=DIRECTION('ref_axis',(1.,0.,0.));
#851=DIRECTION('center_axis',(0.,-1.,0.));
#852=DIRECTION('ref_axis',(0.,0.,-1.));
#853=DIRECTION('center_axis',(0.,-1.,0.));
#854=DIRECTION('ref_axis',(1.,0.,0.));
#855=DIRECTION('',(0.,1.,0.));
#856=DIRECTION('center_axis',(0.,1.,0.));
#857=DIRECTION('ref_axis',(1.,0.,0.));
#858=DIRECTION('center_axis',(0.,-1.,0.));
#859=DIRECTION('ref_axis',(0.,0.,-1.));
#860=DIRECTION('center_axis',(0.,-1.,0.));
#861=DIRECTION('ref_axis',(1.,0.,0.));
#862=DIRECTION('',(0.,1.,0.));
#863=DIRECTION('center_axis',(0.,1.,0.));
#864=DIRECTION('ref_axis',(1.,0.,0.));
#865=DIRECTION('center_axis',(0.,-1.,0.));
#866=DIRECTION('ref_axis',(0.,0.,-1.));
#867=DIRECTION('center_axis',(0.,-1.,0.));
#868=DIRECTION('ref_axis',(1.,0.,0.));
#869=DIRECTION('',(0.,1.,0.));
#870=DIRECTION('center_axis',(0.,1.,0.));
#871=DIRECTION('ref_axis',(1.,0.,0.));
#872=DIRECTION('center_axis',(0.,-1.,0.));
#873=DIRECTION('ref_axis',(0.,0.,-1.));
#874=DIRECTION('center_axis',(-1.,0.,0.));
#875=DIRECTION('ref_axis',(0.,0.,-1.));
#876=DIRECTION('',(0.,0.,-1.));
#877=DIRECTION('',(0.,1.,0.));
#878=DIRECTION('center_axis',(0.,-1.,0.));
#879=DIRECTION('ref_axis',(0.,0.,-1.));
#880=DIRECTION('center_axis',(0.,-1.,0.));
#881=DIRECTION('ref_axis',(0.996619424486888,0.,0.0821566962299681));
#882=DIRECTION('center_axis',(0.,-1.,0.));
#883=DIRECTION('ref_axis',(-0.0655807900633354,0.,-0.997847262848713));
#884=DIRECTION('center_axis',(0.,-1.,0.));
#885=DIRECTION('ref_axis',(-0.0655807900633354,0.,-0.997847262848713));
#886=DIRECTION('',(0.,-1.,0.));
#887=DIRECTION('center_axis',(0.,-1.,0.));
#888=DIRECTION('ref_axis',(-0.0655807900633354,0.,-0.997847262848713));
#889=DIRECTION('',(0.,1.,0.));
#890=DIRECTION('center_axis',(0.,-1.,0.));
#891=DIRECTION('ref_axis',(-0.832186796071809,0.,-0.554495389019365));
#892=DIRECTION('center_axis',(0.,1.,0.));
#893=DIRECTION('ref_axis',(-0.832186796071809,0.,-0.554495389019365));
#894=DIRECTION('',(0.,-1.,0.));
#895=DIRECTION('',(0.,-1.,0.));
#896=DIRECTION('center_axis',(0.,1.,0.));
#897=DIRECTION('ref_axis',(0.,0.,1.));
#898=DIRECTION('center_axis',(0.,1.,0.));
#899=DIRECTION('ref_axis',(-1.,0.,0.));
#900=DIRECTION('center_axis',(0.,-1.,0.));
#901=DIRECTION('ref_axis',(1.,0.,0.));
#902=DIRECTION('center_axis',(0.,-1.,0.));
#903=DIRECTION('ref_axis',(1.,0.,0.));
#904=DIRECTION('center_axis',(0.,-1.,0.));
#905=DIRECTION('ref_axis',(1.,0.,0.));
#906=DIRECTION('center_axis',(0.,1.,0.));
#907=DIRECTION('ref_axis',(0.0256239971498479,0.,-0.999671651478656));
#908=DIRECTION('center_axis',(0.,1.,0.));
#909=DIRECTION('ref_axis',(-1.,0.,0.));
#910=DIRECTION('center_axis',(0.,1.,0.));
#911=DIRECTION('ref_axis',(1.,0.,0.));
#912=DIRECTION('center_axis',(0.,-1.,0.));
#913=DIRECTION('ref_axis',(1.,0.,0.));
#914=DIRECTION('',(0.,-1.,0.));
#915=DIRECTION('center_axis',(0.,1.,0.));
#916=DIRECTION('ref_axis',(1.,0.,0.));
#917=DIRECTION('center_axis',(0.,-1.,0.));
#918=DIRECTION('ref_axis',(1.,0.,0.));
#919=DIRECTION('',(0.,-1.,0.));
#920=DIRECTION('center_axis',(0.,1.,0.));
#921=DIRECTION('ref_axis',(1.,0.,0.));
#922=DIRECTION('center_axis',(0.,-1.,0.));
#923=DIRECTION('ref_axis',(1.,0.,0.));
#924=DIRECTION('',(0.,-1.,0.));
#925=DIRECTION('center_axis',(0.,1.,0.));
#926=DIRECTION('ref_axis',(0.,0.,1.));
#927=DIRECTION('center_axis',(0.,1.,0.));
#928=DIRECTION('ref_axis',(1.,0.,0.));
#929=DIRECTION('center_axis',(0.,1.,0.));
#930=DIRECTION('ref_axis',(1.,0.,0.));
#931=DIRECTION('center_axis',(0.,1.,0.));
#932=DIRECTION('ref_axis',(1.,0.,0.));
#933=DIRECTION('center_axis',(0.,1.,0.));
#934=DIRECTION('ref_axis',(1.,0.,0.));
#935=CARTESIAN_POINT('',(0.,0.,0.));
#936=CARTESIAN_POINT('Origin',(-23.9651424441621,-8.5,149.884459398212));
#937=CARTESIAN_POINT('',(-32.1651424441621,-10.,149.884459398212));
#938=CARTESIAN_POINT('',(-23.9651424441621,-10.,158.084459398212));
#939=CARTESIAN_POINT('Origin',(-23.9651424441621,-10.,149.884459398212));
#940=CARTESIAN_POINT('',(-23.9651424441621,-8.5,158.084459398212));
#941=CARTESIAN_POINT('',(-23.9651424441621,-8.5,158.084459398212));
#942=CARTESIAN_POINT('',(-32.1651424441621,-8.5,149.884459398212));
#943=CARTESIAN_POINT('Origin',(-23.9651424441621,-8.5,149.884459398212));
#944=CARTESIAN_POINT('',(-32.1651424441621,-8.5,149.884459398212));
#945=CARTESIAN_POINT('Origin',(28.6348575558379,-8.5,158.084459398212));
#946=CARTESIAN_POINT('',(20.4348575558379,-10.,158.084459398212));
#947=CARTESIAN_POINT('',(25.0375038328441,-10.,158.084459398212));
#948=CARTESIAN_POINT('',(20.4348575558379,-8.5,158.084459398212));
#949=CARTESIAN_POINT('',(20.4348575558379,-8.5,158.084459398212));
#950=CARTESIAN_POINT('',(28.6348575558379,-8.5,158.084459398212));
#951=CARTESIAN_POINT('Origin',(20.8134935197632,-10.,36.3802987189933));
#952=CARTESIAN_POINT('',(-32.1651424441621,-10.,68.0844593982119));
#953=CARTESIAN_POINT('',(-32.1651424441621,-10.,120.109944355188));
#954=CARTESIAN_POINT('',(-33.5276783714311,-10.,67.4239184786962));
#955=CARTESIAN_POINT('Origin',(0.,-10.,0.));
#956=CARTESIAN_POINT('',(75.1546654109575,-10.,4.67613803977474));
#957=CARTESIAN_POINT('Origin',(84.2267532727297,-10.,145.885016024936));
#958=CARTESIAN_POINT('',(28.634857555838,-10.,69.6429101399193));
#959=CARTESIAN_POINT('Origin',(0.,-10.,0.));
#960=CARTESIAN_POINT('',(28.6348575558379,-10.,149.884459398212));
#961=CARTESIAN_POINT('',(28.6348575558379,-10.,75.8891697260418));
#962=CARTESIAN_POINT('Origin',(20.4348575558379,-10.,149.884459398212));
#963=CARTESIAN_POINT('',(20.3346940959987,-10.,61.5545005651266));
#964=CARTESIAN_POINT('Origin',(26.5846940959987,-10.,61.5545005651266));
#965=CARTESIAN_POINT('',(-8.01514244416206,-10.,133.084459398212));
#966=CARTESIAN_POINT('Origin',(-1.76514244416206,-10.,133.084459398212));
#967=CARTESIAN_POINT('Origin',(20.4348575558379,-8.5,149.884459398212));
#968=CARTESIAN_POINT('',(28.6348575558379,-8.5,149.884459398212));
#969=CARTESIAN_POINT('',(28.6348575558379,-8.5,149.884459398212));
#970=CARTESIAN_POINT('Origin',(20.4348575558379,-8.5,149.884459398212));
#971=CARTESIAN_POINT('Origin',(28.634857555838,-8.5,69.6429101399193));
#972=CARTESIAN_POINT('',(28.634857555838,-8.5,69.6429101399193));
#973=CARTESIAN_POINT('',(28.634857555838,-8.5,69.6429101399193));
#974=CARTESIAN_POINT('',(28.634857555838,-8.5,69.6429101399193));
#975=CARTESIAN_POINT('Origin',(-1.76514244416206,-11.,133.084459398212));
#976=CARTESIAN_POINT('',(3.48485755583794,-11.,133.084459398212));
#977=CARTESIAN_POINT('Origin',(-1.76514244416206,-11.,133.084459398212));
#978=CARTESIAN_POINT('Origin',(-1.76514244416206,-10.,133.084459398212));
#979=CARTESIAN_POINT('',(3.48485755583794,-12.,133.084459398212));
#980=CARTESIAN_POINT('Origin',(-1.76514244416206,-12.,133.084459398212));
#981=CARTESIAN_POINT('',(3.48485755583794,-10.,133.084459398212));
#982=CARTESIAN_POINT('Origin',(-1.76514244416206,-10.,133.084459398212));
#983=CARTESIAN_POINT('',(-8.01514244416206,-12.,133.084459398212));
#984=CARTESIAN_POINT('Origin',(-1.76514244416206,-12.,133.084459398212));
#985=CARTESIAN_POINT('',(-8.01514244416206,-10.,133.084459398212));
#986=CARTESIAN_POINT('Origin',(-1.76514244416206,-12.,133.084459398212));
#987=CARTESIAN_POINT('Origin',(26.5846940959987,-12.,61.5545005651266));
#988=CARTESIAN_POINT('',(21.3346940959987,-12.,61.5545005651266));
#989=CARTESIAN_POINT('Origin',(26.5846940959987,-12.,61.5545005651266));
#990=CARTESIAN_POINT('',(21.3346940959987,-11.,61.5545005651266));
#991=CARTESIAN_POINT('',(21.3346940959987,-12.,61.5545005651266));
#992=CARTESIAN_POINT('Origin',(26.5846940959987,-11.,61.5545005651266));
#993=CARTESIAN_POINT('Origin',(26.5846940959987,-11.,61.5545005651266));
#994=CARTESIAN_POINT('Origin',(26.5846940959987,-10.,61.5545005651266));
#995=CARTESIAN_POINT('',(20.3346940959987,-12.,61.5545005651266));
#996=CARTESIAN_POINT('Origin',(26.5846940959987,-12.,61.5545005651266));
#997=CARTESIAN_POINT('',(20.3346940959987,-10.,61.5545005651266));
#998=CARTESIAN_POINT('Origin',(26.5846940959987,-12.,61.5545005651266));
#999=CARTESIAN_POINT('Origin',(-57.6882969583324,-11.,-34.1725459111149));
#1000=CARTESIAN_POINT('',(-52.4382969583324,-12.,-34.1725459111149));
#1001=CARTESIAN_POINT('Origin',(-57.6882969583324,-12.,-34.1725459111149));
#1002=CARTESIAN_POINT('',(-52.4382969583324,-11.,-34.1725459111149));
#1003=CARTESIAN_POINT('',(-52.4382969583324,-11.,-34.1725459111149));
#1004=CARTESIAN_POINT('Origin',(-57.6882969583324,-11.,-34.1725459111149));
#1005=CARTESIAN_POINT('Origin',(-57.6882969583324,-12.,-34.1725459111149));
#1006=CARTESIAN_POINT('',(-63.9382969583324,-12.,-34.1725459111149));
#1007=CARTESIAN_POINT('Origin',(-57.6882969583324,-12.,-34.1725459111149));
#1008=CARTESIAN_POINT('Origin',(14.6733583304878,-11.,-65.4247281637846));
#1009=CARTESIAN_POINT('',(19.9233583304878,-12.,-65.4247281637846));
#1010=CARTESIAN_POINT('Origin',(14.6733583304878,-12.,-65.4247281637846));
#1011=CARTESIAN_POINT('',(19.9233583304878,-11.,-65.4247281637846));
#1012=CARTESIAN_POINT('',(19.9233583304878,-11.,-65.4247281637846));
#1013=CARTESIAN_POINT('Origin',(14.6733583304878,-11.,-65.4247281637846));
#1014=CARTESIAN_POINT('Origin',(14.6733583304878,-12.,-65.4247281637846));
#1015=CARTESIAN_POINT('',(8.42335833048784,-12.,-65.4247281637846));
#1016=CARTESIAN_POINT('Origin',(14.6733583304878,-12.,-65.4247281637846));
#1017=CARTESIAN_POINT('Origin',(-50.3266866038345,-11.,44.3049333085993));
#1018=CARTESIAN_POINT('',(-45.0766866038345,-12.,44.3049333085993));
#1019=CARTESIAN_POINT('Origin',(-50.3266866038345,-12.,44.3049333085993));
#1020=CARTESIAN_POINT('',(-45.0766866038345,-11.,44.3049333085993));
#1021=CARTESIAN_POINT('',(-45.0766866038345,-11.,44.3049333085993));
#1022=CARTESIAN_POINT('Origin',(-50.3266866038345,-11.,44.3049333085993));
#1023=CARTESIAN_POINT('Origin',(-50.3266866038345,-12.,44.3049333085993));
#1024=CARTESIAN_POINT('',(-56.5766866038345,-12.,44.3049333085993));
#1025=CARTESIAN_POINT('Origin',(-50.3266866038345,-12.,44.3049333085993));
#1026=CARTESIAN_POINT('Origin',(66.7569311356803,-11.,-6.26215979882645));
#1027=CARTESIAN_POINT('',(72.0069311356803,-12.,-6.26215979882645));
#1028=CARTESIAN_POINT('Origin',(66.7569311356803,-12.,-6.26215979882645));
#1029=CARTESIAN_POINT('',(72.0069311356803,-11.,-6.26215979882645));
#1030=CARTESIAN_POINT('',(72.0069311356803,-11.,-6.26215979882645));
#1031=CARTESIAN_POINT('Origin',(66.7569311356803,-11.,-6.26215979882645));
#1032=CARTESIAN_POINT('Origin',(66.7569311356803,-12.,-6.26215979882645));
#1033=CARTESIAN_POINT('',(60.5069311356803,-12.,-6.26215979882645));
#1034=CARTESIAN_POINT('Origin',(66.7569311356803,-12.,-6.26215979882645));
#1035=CARTESIAN_POINT('Origin',(-57.6882969583324,0.,-34.1725459111149));
#1036=CARTESIAN_POINT('',(-63.9382969583324,0.,-34.1725459111149));
#1037=CARTESIAN_POINT('',(-63.9382969583324,0.,-34.1725459111149));
#1038=CARTESIAN_POINT('Origin',(-57.6882969583324,0.,-34.1725459111149));
#1039=CARTESIAN_POINT('Origin',(-57.6882969583324,-11.,-34.1725459111149));
#1040=CARTESIAN_POINT('Origin',(14.6733583304878,0.,-65.4247281637846));
#1041=CARTESIAN_POINT('',(8.42335833048784,0.,-65.4247281637846));
#1042=CARTESIAN_POINT('',(8.42335833048784,0.,-65.4247281637846));
#1043=CARTESIAN_POINT('Origin',(14.6733583304878,0.,-65.4247281637846));
#1044=CARTESIAN_POINT('Origin',(14.6733583304878,-11.,-65.4247281637846));
#1045=CARTESIAN_POINT('Origin',(-50.3266866038345,0.,44.3049333085993));
#1046=CARTESIAN_POINT('',(-56.5766866038345,0.,44.3049333085993));
#1047=CARTESIAN_POINT('',(-56.5766866038345,0.,44.3049333085993));
#1048=CARTESIAN_POINT('Origin',(-50.3266866038345,0.,44.3049333085993));
#1049=CARTESIAN_POINT('Origin',(-50.3266866038345,-11.,44.3049333085993));
#1050=CARTESIAN_POINT('Origin',(66.7569311356803,0.,-6.26215979882645));
#1051=CARTESIAN_POINT('',(60.5069311356803,0.,-6.26215979882645));
#1052=CARTESIAN_POINT('',(60.5069311356803,0.,-6.26215979882645));
#1053=CARTESIAN_POINT('Origin',(66.7569311356803,0.,-6.26215979882645));
#1054=CARTESIAN_POINT('Origin',(66.7569311356803,-11.,-6.26215979882645));
#1055=CARTESIAN_POINT('Origin',(-32.1651424441621,-8.5,158.084459398212));
#1056=CARTESIAN_POINT('',(-32.1651424441621,-8.5,68.0844593982119));
#1057=CARTESIAN_POINT('',(-32.1651424441621,-8.5,158.084459398212));
#1058=CARTESIAN_POINT('',(-32.165142444162,1.5,68.0844593982119));
#1059=CARTESIAN_POINT('Origin',(21.4401501098503,-8.5,82.1354293121643));
#1060=CARTESIAN_POINT('',(75.0454426638627,-8.5,6.18639922611662));
#1061=CARTESIAN_POINT('Origin',(1.77635683940025E-14,-8.5,1.99840144432528E-14));
#1062=CARTESIAN_POINT('Origin',(84.2267532727297,-8.5,145.885016024936));
#1063=CARTESIAN_POINT('Origin',(84.2267532727297,1.5,145.885016024936));
#1064=CARTESIAN_POINT('',(75.0454426638627,1.5,6.18639922611659));
#1065=CARTESIAN_POINT('',(75.0454426638627,0.,6.18639922611662));
#1066=CARTESIAN_POINT('',(-32.1651424441621,1.5,68.0844593982119));
#1067=CARTESIAN_POINT('Origin',(84.2267532727297,1.5,145.885016024936));
#1068=CARTESIAN_POINT('',(-32.165142444162,1.5,68.0844593982119));
#1069=CARTESIAN_POINT('Origin',(84.2267532727297,0.,145.885016024936));
#1070=CARTESIAN_POINT('',(75.1546654109575,0.,4.67613803977474));
#1071=CARTESIAN_POINT('',(-33.5276783714311,0.,67.4239184786962));
#1072=CARTESIAN_POINT('Origin',(84.2267532727297,0.,145.885016024936));
#1073=CARTESIAN_POINT('',(75.1546654109575,0.,4.67613803977474));
#1074=CARTESIAN_POINT('',(-33.5276783714311,0.,67.4239184786962));
#1075=CARTESIAN_POINT('Origin',(0.,0.,0.));
#1076=CARTESIAN_POINT('Origin',(0.,0.,0.));
#1077=CARTESIAN_POINT('',(-38.2004172281361,0.,-64.));
#1078=CARTESIAN_POINT('Origin',(-36.9504172281361,0.,-64.));
#1079=CARTESIAN_POINT('',(72.6508344562721,0.,-5.21661791855671E-14));
#1080=CARTESIAN_POINT('Origin',(73.9008344562721,0.,-5.23192600354605E-14));
#1081=CARTESIAN_POINT('',(-38.200417228136,0.,64.));
#1082=CARTESIAN_POINT('Origin',(-36.950417228136,0.,64.));
#1083=CARTESIAN_POINT('Origin',(0.,0.,0.));
#1084=CARTESIAN_POINT('Origin',(0.,1.5,0.));
#1085=CARTESIAN_POINT('Origin',(-36.9504172281361,0.,-64.));
#1086=CARTESIAN_POINT('',(-38.2004172281361,1.5,-64.));
#1087=CARTESIAN_POINT('Origin',(-36.9504172281361,1.5,-64.));
#1088=CARTESIAN_POINT('',(-38.2004172281361,0.,-64.));
#1089=CARTESIAN_POINT('Origin',(73.9008344562721,0.,-5.23192600354605E-14));
#1090=CARTESIAN_POINT('',(72.6508344562721,1.5,-5.21661791855671E-14));
#1091=CARTESIAN_POINT('Origin',(73.9008344562721,1.5,-5.23192600354605E-14));
#1092=CARTESIAN_POINT('',(72.6508344562721,0.,-5.21661791855671E-14));
#1093=CARTESIAN_POINT('Origin',(-36.950417228136,0.,64.));
#1094=CARTESIAN_POINT('',(-38.200417228136,1.5,64.));
#1095=CARTESIAN_POINT('Origin',(-36.950417228136,1.5,64.));
#1096=CARTESIAN_POINT('',(-38.200417228136,0.,64.));
#1097=CARTESIAN_POINT('Origin',(0.,1.5,0.));
#1098=CARTESIAN_POINT('polyline point',(-23.765142444162,-8.5,154.884459398212));
#1099=CARTESIAN_POINT('polyline point',(20.234857555838,-8.5,154.884459398212));
#1100=CARTESIAN_POINT('polyline point',(25.434857555838,-8.5,149.684459398212));
#1101=CARTESIAN_POINT('polyline point',(25.434857555838,-8.5,105.684459398212));
#1102=CARTESIAN_POINT('polyline point',(20.234857555838,-8.5,100.484459398212));
#1103=CARTESIAN_POINT('polyline point',(-23.7651424441621,-8.5,100.484459398212));
#1104=CARTESIAN_POINT('polyline point',(-28.9651424441621,-8.5,105.684459398212));
#1105=CARTESIAN_POINT('polyline point',(-28.9651424441621,-8.5,149.684459398212));
#1106=CARTESIAN_POINT('polyline point',(-32.1651424441621,-8.5,158.084459398212));
#1107=CARTESIAN_POINT('polyline point',(-32.1651424441621,-8.5,68.0844593982119));
#1108=CARTESIAN_POINT('polyline point',(-32.1651424441621,-8.5,158.084459398212));
#1109=CARTESIAN_POINT('polyline point',(28.6348575558379,-8.5,158.084459398212));
#1110=CARTESIAN_POINT('Origin',(-23.7651424441621,-8.5,149.684459398212));
#1111=CARTESIAN_POINT('',(-28.9651424441621,-8.5,149.684459398212));
#1112=CARTESIAN_POINT('',(-23.7651424441621,-8.5,154.884459398212));
#1113=CARTESIAN_POINT('Origin',(20.234857555838,-8.5,149.684459398212));
#1114=CARTESIAN_POINT('',(20.234857555838,-8.5,154.884459398212));
#1115=CARTESIAN_POINT('',(25.434857555838,-8.5,149.684459398212));
#1116=CARTESIAN_POINT('Origin',(20.234857555838,-8.5,105.684459398212));
#1117=CARTESIAN_POINT('',(25.434857555838,-8.5,105.684459398212));
#1118=CARTESIAN_POINT('',(20.234857555838,-8.5,100.484459398212));
#1119=CARTESIAN_POINT('Origin',(-23.7651424441621,-8.5,105.684459398212));
#1120=CARTESIAN_POINT('',(-23.7651424441621,-8.5,100.484459398212));
#1121=CARTESIAN_POINT('',(-28.9651424441621,-8.5,105.684459398212));
#1122=CARTESIAN_POINT('polyline point',(28.634857555838,-8.5,69.6429101399193));
#1123=CARTESIAN_POINT('polyline point',(28.6348575558379,-8.5,158.084459398212));
#1124=CARTESIAN_POINT('',(0.,-8.5,0.));
#1125=CARTESIAN_POINT('polyline point',(-9.26514244416204,-4.,154.884459398212));
#1126=CARTESIAN_POINT('polyline point',(5.73485755583796,-4.,154.884459398212));
#1127=CARTESIAN_POINT('polyline point',(5.73485755583796,-4.,154.884459398212));
#1128=CARTESIAN_POINT('polyline point',(5.73485755583796,-5.5,154.884459398212));
#1129=CARTESIAN_POINT('polyline point',(5.73485755583796,-5.5,154.884459398212));
#1130=CARTESIAN_POINT('polyline point',(-9.26514244416204,-5.5,154.884459398212));
#1131=CARTESIAN_POINT('polyline point',(-9.26514244416204,-5.5,154.884459398212));
#1132=CARTESIAN_POINT('polyline point',(-9.26514244416204,-4.,154.884459398212));
#1133=CARTESIAN_POINT('',(-6.21724893790088E-14,0.,154.884459398212));
#1134=UNCERTAINTY_MEASURE_WITH_UNIT(LENGTH_MEASURE(0.01),#1138,
'DISTANCE_ACCURACY_VALUE',
'Maximum model space distance between geometric entities at asserted c
onnectivities');
#1135=UNCERTAINTY_MEASURE_WITH_UNIT(LENGTH_MEASURE(0.01),#1138,
'DISTANCE_ACCURACY_VALUE',
'Maximum model space distance between geometric entities at asserted c
onnectivities');
#1136=(
GEOMETRIC_REPRESENTATION_CONTEXT(3)
GLOBAL_UNCERTAINTY_ASSIGNED_CONTEXT((#1134))
GLOBAL_UNIT_ASSIGNED_CONTEXT((#1138,#1140,#1141))
REPRESENTATION_CONTEXT('','3D')
);
#1137=(
GEOMETRIC_REPRESENTATION_CONTEXT(3)
GLOBAL_UNCERTAINTY_ASSIGNED_CONTEXT((#1135))
GLOBAL_UNIT_ASSIGNED_CONTEXT((#1138,#1140,#1141))
REPRESENTATION_CONTEXT('','3D')
);
#1138=(
LENGTH_UNIT()
NAMED_UNIT(*)
SI_UNIT(.MILLI.,.METRE.)
);
#1139=(
LENGTH_UNIT()
NAMED_UNIT(*)
SI_UNIT(.CENTI.,.METRE.)
);
#1140=(
NAMED_UNIT(*)
PLANE_ANGLE_UNIT()
SI_UNIT($,.RADIAN.)
);
#1141=(
NAMED_UNIT(*)
SI_UNIT($,.STERADIAN.)
SOLID_ANGLE_UNIT()
);
#1142=SHAPE_DEFINITION_REPRESENTATION(#1143,#1144);
#1143=PRODUCT_DEFINITION_SHAPE('',$,#1146);
#1144=SHAPE_REPRESENTATION('',(#643),#1136);
#1145=PRODUCT_DEFINITION_CONTEXT('part definition',#1150,'design');
#1146=PRODUCT_DEFINITION('bottom_replacement_housing_bottom',
'bottom_replacement_housing_master',#1147,#1145);
#1147=PRODUCT_DEFINITION_FORMATION('',$,#1152);
#1148=PRODUCT_RELATED_PRODUCT_CATEGORY(
'bottom_replacement_housing_master','bottom_replacement_housing_master',
(#1152));
#1149=APPLICATION_PROTOCOL_DEFINITION('international standard',
'automotive_design',2009,#1150);
#1150=APPLICATION_CONTEXT(
'Core Data for Automotive Mechanical Design Process');
#1151=PRODUCT_CONTEXT('part definition',#1150,'mechanical');
#1152=PRODUCT('bottom_replacement_housing_bottom',
'bottom_replacement_housing_master',$,(#1151));
#1153=PRESENTATION_STYLE_ASSIGNMENT((#1156));
#1154=PRESENTATION_STYLE_ASSIGNMENT((#1157));
#1155=PRESENTATION_STYLE_ASSIGNMENT((#1158));
#1156=SURFACE_STYLE_USAGE(.BOTH.,#1161);
#1157=SURFACE_STYLE_USAGE(.BOTH.,#1162);
#1158=SURFACE_STYLE_USAGE(.BOTH.,#1163);
#1159=SURFACE_STYLE_RENDERING_WITH_PROPERTIES($,#1173,(#1160));
#1160=SURFACE_STYLE_TRANSPARENT(0.);
#1161=SURFACE_SIDE_STYLE('',(#1164,#1159));
#1162=SURFACE_SIDE_STYLE('',(#1165));
#1163=SURFACE_SIDE_STYLE('',(#1166));
#1164=SURFACE_STYLE_FILL_AREA(#1167);
#1165=SURFACE_STYLE_FILL_AREA(#1168);
#1166=SURFACE_STYLE_FILL_AREA(#1169);
#1167=FILL_AREA_STYLE('',(#1170));
#1168=FILL_AREA_STYLE('',(#1171));
#1169=FILL_AREA_STYLE('',(#1172));
#1170=FILL_AREA_STYLE_COLOUR('',#1173);
#1171=FILL_AREA_STYLE_COLOUR('',#1174);
#1172=FILL_AREA_STYLE_COLOUR('',#1175);
#1173=COLOUR_RGB('',0.749019607843137,0.749019607843137,0.749019607843137);
#1174=COLOUR_RGB('',0.913725490196078,0.913725490196078,0.);
#1175=COLOUR_RGB('',1.,1.,1.);
ENDSEC;
END-ISO-10303-21;
