ISO-10303-21;
HEADER;
/* Generated by software containing ST-Developer
 * from STEP Tools, Inc. (www.steptools.com) 
 */

FILE_DESCRIPTION(
/* description */ (''),
/* implementation_level */ '2;1');

FILE_NAME(
/* name */ 'core_dummy.stp',
/* time_stamp */ '2026-04-07T10:57:23+02:00',
/* author */ ('Paul Juschitz'),
/* organization */ (''),
/* preprocessor_version */ 'ST-DEVELOPER v20.1',
/* originating_system */ 'Autodesk Inventor 2026',
/* authorisation */ '');

FILE_SCHEMA (('AUTOMOTIVE_DESIGN { 1 0 10303 214 3 1 1 }'));
ENDSEC;

DATA;
#10=MECHANICAL_DESIGN_GEOMETRIC_PRESENTATION_REPRESENTATION('',(#13),#1022);
#11=SHAPE_REPRESENTATION_RELATIONSHIP('SRR','None',#1029,#12);
#12=ADVANCED_BREP_SHAPE_REPRESENTATION('',(#14),#1021);
#13=STYLED_ITEM('',(#1038),#14);
#14=MANIFOLD_SOLID_BREP('Solid1',#565);
#15=FACE_BOUND('',#171,.T.);
#16=PLANE('',#612);
#17=PLANE('',#615);
#18=PLANE('',#618);
#19=PLANE('',#645);
#20=PLANE('',#647);
#21=PLANE('',#648);
#22=PLANE('',#652);
#23=PLANE('',#655);
#24=PLANE('',#658);
#25=PLANE('',#661);
#26=PLANE('',#662);
#27=LINE('',#869,#67);
#28=LINE('',#870,#68);
#29=LINE('',#881,#69);
#30=LINE('',#882,#70);
#31=LINE('',#893,#71);
#32=LINE('',#894,#72);
#33=LINE('',#902,#73);
#34=LINE('',#903,#74);
#35=LINE('',#906,#75);
#36=LINE('',#908,#76);
#37=LINE('',#909,#77);
#38=LINE('',#912,#78);
#39=LINE('',#916,#79);
#40=LINE('',#917,#80);
#41=LINE('',#920,#81);
#42=LINE('',#925,#82);
#43=LINE('',#929,#83);
#44=LINE('',#933,#84);
#45=LINE('',#937,#85);
#46=LINE('',#948,#86);
#47=LINE('',#956,#87);
#48=LINE('',#967,#88);
#49=LINE('',#968,#89);
#50=LINE('',#976,#90);
#51=LINE('',#977,#91);
#52=LINE('',#979,#92);
#53=LINE('',#980,#93);
#54=LINE('',#982,#94);
#55=LINE('',#988,#95);
#56=LINE('',#991,#96);
#57=LINE('',#994,#97);
#58=LINE('',#995,#98);
#59=LINE('',#999,#99);
#60=LINE('',#1002,#100);
#61=LINE('',#1003,#101);
#62=LINE('',#1007,#102);
#63=LINE('',#1010,#103);
#64=LINE('',#1011,#104);
#65=LINE('',#1015,#105);
#66=LINE('',#1017,#106);
#67=VECTOR('',#679,10.);
#68=VECTOR('',#680,10.);
#69=VECTOR('',#693,10.);
#70=VECTOR('',#694,10.);
#71=VECTOR('',#707,10.);
#72=VECTOR('',#708,10.);
#73=VECTOR('',#719,10.);
#74=VECTOR('',#720,10.);
#75=VECTOR('',#723,10.);
#76=VECTOR('',#724,10.);
#77=VECTOR('',#725,10.);
#78=VECTOR('',#728,10.);
#79=VECTOR('',#733,10.);
#80=VECTOR('',#734,10.);
#81=VECTOR('',#737,10.);
#82=VECTOR('',#742,10.);
#83=VECTOR('',#745,10.);
#84=VECTOR('',#748,10.);
#85=VECTOR('',#751,10.);
#86=VECTOR('',#766,10.);
#87=VECTOR('',#777,10.);
#88=VECTOR('',#790,10.);
#89=VECTOR('',#791,10.);
#90=VECTOR('',#802,10.);
#91=VECTOR('',#803,10.);
#92=VECTOR('',#806,10.);
#93=VECTOR('',#807,10.);
#94=VECTOR('',#810,10.);
#95=VECTOR('',#819,10.);
#96=VECTOR('',#822,10.);
#97=VECTOR('',#825,10.);
#98=VECTOR('',#826,10.);
#99=VECTOR('',#831,10.);
#100=VECTOR('',#834,10.);
#101=VECTOR('',#835,10.);
#102=VECTOR('',#840,10.);
#103=VECTOR('',#843,10.);
#104=VECTOR('',#844,10.);
#105=VECTOR('',#849,10.);
#106=VECTOR('',#852,10.);
#107=CYLINDRICAL_SURFACE('',#593,0.2);
#108=CYLINDRICAL_SURFACE('',#599,0.2);
#109=CYLINDRICAL_SURFACE('',#605,0.2);
#110=CYLINDRICAL_SURFACE('',#611,0.2);
#111=CYLINDRICAL_SURFACE('',#613,3.2);
#112=CYLINDRICAL_SURFACE('',#616,3.2);
#113=CYLINDRICAL_SURFACE('',#627,0.2);
#114=CYLINDRICAL_SURFACE('',#632,0.2);
#115=CYLINDRICAL_SURFACE('',#638,0.2);
#116=CYLINDRICAL_SURFACE('',#644,0.2);
#117=CYLINDRICAL_SURFACE('',#646,3.2);
#118=CYLINDRICAL_SURFACE('',#649,3.2);
#119=CYLINDRICAL_SURFACE('',#650,5.);
#120=CYLINDRICAL_SURFACE('',#653,5.);
#121=CYLINDRICAL_SURFACE('',#656,5.);
#122=CYLINDRICAL_SURFACE('',#659,5.);
#123=FACE_OUTER_BOUND('',#158,.T.);
#124=FACE_OUTER_BOUND('',#159,.T.);
#125=FACE_OUTER_BOUND('',#160,.T.);
#126=FACE_OUTER_BOUND('',#161,.T.);
#127=FACE_OUTER_BOUND('',#162,.T.);
#128=FACE_OUTER_BOUND('',#163,.T.);
#129=FACE_OUTER_BOUND('',#164,.T.);
#130=FACE_OUTER_BOUND('',#165,.T.);
#131=FACE_OUTER_BOUND('',#166,.T.);
#132=FACE_OUTER_BOUND('',#167,.T.);
#133=FACE_OUTER_BOUND('',#168,.T.);
#134=FACE_OUTER_BOUND('',#169,.T.);
#135=FACE_OUTER_BOUND('',#170,.T.);
#136=FACE_OUTER_BOUND('',#172,.T.);
#137=FACE_OUTER_BOUND('',#173,.T.);
#138=FACE_OUTER_BOUND('',#174,.T.);
#139=FACE_OUTER_BOUND('',#175,.T.);
#140=FACE_OUTER_BOUND('',#176,.T.);
#141=FACE_OUTER_BOUND('',#177,.T.);
#142=FACE_OUTER_BOUND('',#178,.T.);
#143=FACE_OUTER_BOUND('',#179,.T.);
#144=FACE_OUTER_BOUND('',#180,.T.);
#145=FACE_OUTER_BOUND('',#181,.T.);
#146=FACE_OUTER_BOUND('',#182,.T.);
#147=FACE_OUTER_BOUND('',#183,.T.);
#148=FACE_OUTER_BOUND('',#184,.T.);
#149=FACE_OUTER_BOUND('',#185,.T.);
#150=FACE_OUTER_BOUND('',#186,.T.);
#151=FACE_OUTER_BOUND('',#187,.T.);
#152=FACE_OUTER_BOUND('',#188,.T.);
#153=FACE_OUTER_BOUND('',#189,.T.);
#154=FACE_OUTER_BOUND('',#190,.T.);
#155=FACE_OUTER_BOUND('',#191,.T.);
#156=FACE_OUTER_BOUND('',#192,.T.);
#157=FACE_OUTER_BOUND('',#193,.T.);
#158=EDGE_LOOP('',(#362,#363,#364,#365));
#159=EDGE_LOOP('',(#366,#367,#368,#369));
#160=EDGE_LOOP('',(#370,#371,#372,#373));
#161=EDGE_LOOP('',(#374,#375,#376,#377));
#162=EDGE_LOOP('',(#378,#379,#380,#381));
#163=EDGE_LOOP('',(#382,#383,#384,#385));
#164=EDGE_LOOP('',(#386,#387,#388,#389));
#165=EDGE_LOOP('',(#390,#391,#392,#393));
#166=EDGE_LOOP('',(#394,#395,#396,#397));
#167=EDGE_LOOP('',(#398,#399,#400,#401));
#168=EDGE_LOOP('',(#402,#403,#404,#405));
#169=EDGE_LOOP('',(#406,#407,#408,#409));
#170=EDGE_LOOP('',(#410,#411,#412,#413,#414,#415,#416,#417));
#171=EDGE_LOOP('',(#418,#419,#420,#421,#422,#423,#424,#425));
#172=EDGE_LOOP('',(#426,#427,#428,#429));
#173=EDGE_LOOP('',(#430,#431,#432,#433));
#174=EDGE_LOOP('',(#434,#435,#436,#437));
#175=EDGE_LOOP('',(#438,#439,#440,#441));
#176=EDGE_LOOP('',(#442,#443,#444,#445));
#177=EDGE_LOOP('',(#446,#447,#448,#449));
#178=EDGE_LOOP('',(#450,#451,#452,#453));
#179=EDGE_LOOP('',(#454,#455,#456,#457));
#180=EDGE_LOOP('',(#458,#459,#460,#461));
#181=EDGE_LOOP('',(#462,#463,#464,#465));
#182=EDGE_LOOP('',(#466,#467,#468,#469));
#183=EDGE_LOOP('',(#470,#471,#472,#473,#474,#475,#476,#477));
#184=EDGE_LOOP('',(#478,#479,#480,#481));
#185=EDGE_LOOP('',(#482,#483,#484,#485));
#186=EDGE_LOOP('',(#486,#487,#488,#489));
#187=EDGE_LOOP('',(#490,#491,#492,#493));
#188=EDGE_LOOP('',(#494,#495,#496,#497));
#189=EDGE_LOOP('',(#498,#499,#500,#501));
#190=EDGE_LOOP('',(#502,#503,#504,#505));
#191=EDGE_LOOP('',(#506,#507,#508,#509));
#192=EDGE_LOOP('',(#510,#511,#512,#513));
#193=EDGE_LOOP('',(#514,#515,#516,#517,#518,#519,#520,#521));
#194=CIRCLE('',#589,0.2);
#195=CIRCLE('',#590,3.2);
#196=CIRCLE('',#591,0.200000000000005);
#197=CIRCLE('',#592,3.4);
#198=CIRCLE('',#594,0.2);
#199=CIRCLE('',#596,0.199999999999987);
#200=CIRCLE('',#597,3.4);
#201=CIRCLE('',#598,3.2);
#202=CIRCLE('',#600,0.2);
#203=CIRCLE('',#602,0.2);
#204=CIRCLE('',#603,3.4);
#205=CIRCLE('',#604,3.2);
#206=CIRCLE('',#606,0.2);
#207=CIRCLE('',#608,0.199999999999991);
#208=CIRCLE('',#609,3.4);
#209=CIRCLE('',#610,3.2);
#210=CIRCLE('',#614,3.2);
#211=CIRCLE('',#617,3.2);
#212=CIRCLE('',#619,5.);
#213=CIRCLE('',#620,5.);
#214=CIRCLE('',#621,5.);
#215=CIRCLE('',#622,5.);
#216=CIRCLE('',#624,0.200000000000009);
#217=CIRCLE('',#625,3.);
#218=CIRCLE('',#626,0.2);
#219=CIRCLE('',#628,0.2);
#220=CIRCLE('',#630,0.2);
#221=CIRCLE('',#631,3.);
#222=CIRCLE('',#633,0.2);
#223=CIRCLE('',#635,0.2);
#224=CIRCLE('',#636,3.2);
#225=CIRCLE('',#637,3.);
#226=CIRCLE('',#639,0.2);
#227=CIRCLE('',#641,0.2);
#228=CIRCLE('',#642,3.2);
#229=CIRCLE('',#643,3.);
#230=CIRCLE('',#651,5.);
#231=CIRCLE('',#654,5.);
#232=CIRCLE('',#657,5.);
#233=CIRCLE('',#660,5.);
#234=VERTEX_POINT('',#857);
#235=VERTEX_POINT('',#858);
#236=VERTEX_POINT('',#860);
#237=VERTEX_POINT('',#862);
#238=VERTEX_POINT('',#866);
#239=VERTEX_POINT('',#867);
#240=VERTEX_POINT('',#872);
#241=VERTEX_POINT('',#873);
#242=VERTEX_POINT('',#878);
#243=VERTEX_POINT('',#879);
#244=VERTEX_POINT('',#884);
#245=VERTEX_POINT('',#885);
#246=VERTEX_POINT('',#890);
#247=VERTEX_POINT('',#891);
#248=VERTEX_POINT('',#896);
#249=VERTEX_POINT('',#897);
#250=VERTEX_POINT('',#905);
#251=VERTEX_POINT('',#907);
#252=VERTEX_POINT('',#911);
#253=VERTEX_POINT('',#915);
#254=VERTEX_POINT('',#919);
#255=VERTEX_POINT('',#923);
#256=VERTEX_POINT('',#924);
#257=VERTEX_POINT('',#926);
#258=VERTEX_POINT('',#928);
#259=VERTEX_POINT('',#930);
#260=VERTEX_POINT('',#932);
#261=VERTEX_POINT('',#934);
#262=VERTEX_POINT('',#936);
#263=VERTEX_POINT('',#940);
#264=VERTEX_POINT('',#942);
#265=VERTEX_POINT('',#946);
#266=VERTEX_POINT('',#950);
#267=VERTEX_POINT('',#954);
#268=VERTEX_POINT('',#958);
#269=VERTEX_POINT('',#959);
#270=VERTEX_POINT('',#964);
#271=VERTEX_POINT('',#965);
#272=VERTEX_POINT('',#970);
#273=VERTEX_POINT('',#971);
#274=VERTEX_POINT('',#987);
#275=VERTEX_POINT('',#989);
#276=VERTEX_POINT('',#993);
#277=VERTEX_POINT('',#997);
#278=VERTEX_POINT('',#1001);
#279=VERTEX_POINT('',#1005);
#280=VERTEX_POINT('',#1009);
#281=VERTEX_POINT('',#1013);
#282=EDGE_CURVE('',#234,#235,#194,.T.);
#283=EDGE_CURVE('',#235,#236,#195,.T.);
#284=EDGE_CURVE('',#236,#237,#196,.T.);
#285=EDGE_CURVE('',#237,#234,#197,.T.);
#286=EDGE_CURVE('',#238,#239,#198,.T.);
#287=EDGE_CURVE('',#239,#237,#27,.T.);
#288=EDGE_CURVE('',#236,#238,#28,.T.);
#289=EDGE_CURVE('',#240,#241,#199,.T.);
#290=EDGE_CURVE('',#241,#239,#200,.T.);
#291=EDGE_CURVE('',#238,#240,#201,.T.);
#292=EDGE_CURVE('',#242,#243,#202,.T.);
#293=EDGE_CURVE('',#243,#241,#29,.T.);
#294=EDGE_CURVE('',#240,#242,#30,.T.);
#295=EDGE_CURVE('',#244,#245,#203,.T.);
#296=EDGE_CURVE('',#245,#243,#204,.T.);
#297=EDGE_CURVE('',#242,#244,#205,.T.);
#298=EDGE_CURVE('',#246,#247,#206,.T.);
#299=EDGE_CURVE('',#247,#245,#31,.T.);
#300=EDGE_CURVE('',#244,#246,#32,.T.);
#301=EDGE_CURVE('',#248,#249,#207,.T.);
#302=EDGE_CURVE('',#249,#247,#208,.T.);
#303=EDGE_CURVE('',#246,#248,#209,.T.);
#304=EDGE_CURVE('',#234,#249,#33,.T.);
#305=EDGE_CURVE('',#248,#235,#34,.T.);
#306=EDGE_CURVE('',#240,#250,#35,.T.);
#307=EDGE_CURVE('',#251,#250,#36,.T.);
#308=EDGE_CURVE('',#242,#251,#37,.T.);
#309=EDGE_CURVE('',#238,#252,#38,.T.);
#310=EDGE_CURVE('',#250,#252,#210,.T.);
#311=EDGE_CURVE('',#236,#253,#39,.T.);
#312=EDGE_CURVE('',#252,#253,#40,.T.);
#313=EDGE_CURVE('',#235,#254,#41,.T.);
#314=EDGE_CURVE('',#253,#254,#211,.T.);
#315=EDGE_CURVE('',#255,#256,#42,.T.);
#316=EDGE_CURVE('',#256,#257,#212,.T.);
#317=EDGE_CURVE('',#257,#258,#43,.T.);
#318=EDGE_CURVE('',#258,#259,#213,.T.);
#319=EDGE_CURVE('',#259,#260,#44,.T.);
#320=EDGE_CURVE('',#260,#261,#214,.T.);
#321=EDGE_CURVE('',#261,#262,#45,.T.);
#322=EDGE_CURVE('',#262,#255,#215,.T.);
#323=EDGE_CURVE('',#254,#263,#216,.T.);
#324=EDGE_CURVE('',#263,#264,#217,.T.);
#325=EDGE_CURVE('',#264,#253,#218,.T.);
#326=EDGE_CURVE('',#265,#252,#219,.T.);
#327=EDGE_CURVE('',#264,#265,#46,.T.);
#328=EDGE_CURVE('',#266,#250,#220,.T.);
#329=EDGE_CURVE('',#265,#266,#221,.T.);
#330=EDGE_CURVE('',#267,#251,#222,.T.);
#331=EDGE_CURVE('',#266,#267,#47,.T.);
#332=EDGE_CURVE('',#268,#269,#223,.T.);
#333=EDGE_CURVE('',#269,#251,#224,.T.);
#334=EDGE_CURVE('',#267,#268,#225,.T.);
#335=EDGE_CURVE('',#270,#271,#226,.T.);
#336=EDGE_CURVE('',#271,#269,#48,.T.);
#337=EDGE_CURVE('',#268,#270,#49,.T.);
#338=EDGE_CURVE('',#272,#273,#227,.T.);
#339=EDGE_CURVE('',#273,#271,#228,.T.);
#340=EDGE_CURVE('',#270,#272,#229,.T.);
#341=EDGE_CURVE('',#254,#273,#50,.T.);
#342=EDGE_CURVE('',#272,#263,#51,.T.);
#343=EDGE_CURVE('',#244,#269,#52,.T.);
#344=EDGE_CURVE('',#246,#271,#53,.T.);
#345=EDGE_CURVE('',#248,#273,#54,.T.);
#346=EDGE_CURVE('',#256,#274,#55,.T.);
#347=EDGE_CURVE('',#275,#274,#230,.T.);
#348=EDGE_CURVE('',#257,#275,#56,.T.);
#349=EDGE_CURVE('',#276,#275,#57,.T.);
#350=EDGE_CURVE('',#258,#276,#58,.T.);
#351=EDGE_CURVE('',#277,#276,#231,.T.);
#352=EDGE_CURVE('',#259,#277,#59,.T.);
#353=EDGE_CURVE('',#278,#277,#60,.T.);
#354=EDGE_CURVE('',#260,#278,#61,.T.);
#355=EDGE_CURVE('',#279,#278,#232,.T.);
#356=EDGE_CURVE('',#261,#279,#62,.T.);
#357=EDGE_CURVE('',#280,#279,#63,.T.);
#358=EDGE_CURVE('',#262,#280,#64,.T.);
#359=EDGE_CURVE('',#281,#280,#233,.T.);
#360=EDGE_CURVE('',#255,#281,#65,.T.);
#361=EDGE_CURVE('',#274,#281,#66,.T.);
#362=ORIENTED_EDGE('',*,*,#282,.T.);
#363=ORIENTED_EDGE('',*,*,#283,.T.);
#364=ORIENTED_EDGE('',*,*,#284,.T.);
#365=ORIENTED_EDGE('',*,*,#285,.T.);
#366=ORIENTED_EDGE('',*,*,#286,.T.);
#367=ORIENTED_EDGE('',*,*,#287,.T.);
#368=ORIENTED_EDGE('',*,*,#284,.F.);
#369=ORIENTED_EDGE('',*,*,#288,.T.);
#370=ORIENTED_EDGE('',*,*,#289,.T.);
#371=ORIENTED_EDGE('',*,*,#290,.T.);
#372=ORIENTED_EDGE('',*,*,#286,.F.);
#373=ORIENTED_EDGE('',*,*,#291,.T.);
#374=ORIENTED_EDGE('',*,*,#292,.T.);
#375=ORIENTED_EDGE('',*,*,#293,.T.);
#376=ORIENTED_EDGE('',*,*,#289,.F.);
#377=ORIENTED_EDGE('',*,*,#294,.T.);
#378=ORIENTED_EDGE('',*,*,#295,.T.);
#379=ORIENTED_EDGE('',*,*,#296,.T.);
#380=ORIENTED_EDGE('',*,*,#292,.F.);
#381=ORIENTED_EDGE('',*,*,#297,.T.);
#382=ORIENTED_EDGE('',*,*,#298,.T.);
#383=ORIENTED_EDGE('',*,*,#299,.T.);
#384=ORIENTED_EDGE('',*,*,#295,.F.);
#385=ORIENTED_EDGE('',*,*,#300,.T.);
#386=ORIENTED_EDGE('',*,*,#301,.T.);
#387=ORIENTED_EDGE('',*,*,#302,.T.);
#388=ORIENTED_EDGE('',*,*,#298,.F.);
#389=ORIENTED_EDGE('',*,*,#303,.T.);
#390=ORIENTED_EDGE('',*,*,#282,.F.);
#391=ORIENTED_EDGE('',*,*,#304,.T.);
#392=ORIENTED_EDGE('',*,*,#301,.F.);
#393=ORIENTED_EDGE('',*,*,#305,.T.);
#394=ORIENTED_EDGE('',*,*,#294,.F.);
#395=ORIENTED_EDGE('',*,*,#306,.T.);
#396=ORIENTED_EDGE('',*,*,#307,.F.);
#397=ORIENTED_EDGE('',*,*,#308,.F.);
#398=ORIENTED_EDGE('',*,*,#291,.F.);
#399=ORIENTED_EDGE('',*,*,#309,.T.);
#400=ORIENTED_EDGE('',*,*,#310,.F.);
#401=ORIENTED_EDGE('',*,*,#306,.F.);
#402=ORIENTED_EDGE('',*,*,#288,.F.);
#403=ORIENTED_EDGE('',*,*,#311,.T.);
#404=ORIENTED_EDGE('',*,*,#312,.F.);
#405=ORIENTED_EDGE('',*,*,#309,.F.);
#406=ORIENTED_EDGE('',*,*,#283,.F.);
#407=ORIENTED_EDGE('',*,*,#313,.T.);
#408=ORIENTED_EDGE('',*,*,#314,.F.);
#409=ORIENTED_EDGE('',*,*,#311,.F.);
#410=ORIENTED_EDGE('',*,*,#315,.T.);
#411=ORIENTED_EDGE('',*,*,#316,.T.);
#412=ORIENTED_EDGE('',*,*,#317,.T.);
#413=ORIENTED_EDGE('',*,*,#318,.T.);
#414=ORIENTED_EDGE('',*,*,#319,.T.);
#415=ORIENTED_EDGE('',*,*,#320,.T.);
#416=ORIENTED_EDGE('',*,*,#321,.T.);
#417=ORIENTED_EDGE('',*,*,#322,.T.);
#418=ORIENTED_EDGE('',*,*,#285,.F.);
#419=ORIENTED_EDGE('',*,*,#287,.F.);
#420=ORIENTED_EDGE('',*,*,#290,.F.);
#421=ORIENTED_EDGE('',*,*,#293,.F.);
#422=ORIENTED_EDGE('',*,*,#296,.F.);
#423=ORIENTED_EDGE('',*,*,#299,.F.);
#424=ORIENTED_EDGE('',*,*,#302,.F.);
#425=ORIENTED_EDGE('',*,*,#304,.F.);
#426=ORIENTED_EDGE('',*,*,#323,.T.);
#427=ORIENTED_EDGE('',*,*,#324,.T.);
#428=ORIENTED_EDGE('',*,*,#325,.T.);
#429=ORIENTED_EDGE('',*,*,#314,.T.);
#430=ORIENTED_EDGE('',*,*,#326,.T.);
#431=ORIENTED_EDGE('',*,*,#312,.T.);
#432=ORIENTED_EDGE('',*,*,#325,.F.);
#433=ORIENTED_EDGE('',*,*,#327,.T.);
#434=ORIENTED_EDGE('',*,*,#328,.T.);
#435=ORIENTED_EDGE('',*,*,#310,.T.);
#436=ORIENTED_EDGE('',*,*,#326,.F.);
#437=ORIENTED_EDGE('',*,*,#329,.T.);
#438=ORIENTED_EDGE('',*,*,#330,.T.);
#439=ORIENTED_EDGE('',*,*,#307,.T.);
#440=ORIENTED_EDGE('',*,*,#328,.F.);
#441=ORIENTED_EDGE('',*,*,#331,.T.);
#442=ORIENTED_EDGE('',*,*,#332,.T.);
#443=ORIENTED_EDGE('',*,*,#333,.T.);
#444=ORIENTED_EDGE('',*,*,#330,.F.);
#445=ORIENTED_EDGE('',*,*,#334,.T.);
#446=ORIENTED_EDGE('',*,*,#335,.T.);
#447=ORIENTED_EDGE('',*,*,#336,.T.);
#448=ORIENTED_EDGE('',*,*,#332,.F.);
#449=ORIENTED_EDGE('',*,*,#337,.T.);
#450=ORIENTED_EDGE('',*,*,#338,.T.);
#451=ORIENTED_EDGE('',*,*,#339,.T.);
#452=ORIENTED_EDGE('',*,*,#335,.F.);
#453=ORIENTED_EDGE('',*,*,#340,.T.);
#454=ORIENTED_EDGE('',*,*,#323,.F.);
#455=ORIENTED_EDGE('',*,*,#341,.T.);
#456=ORIENTED_EDGE('',*,*,#338,.F.);
#457=ORIENTED_EDGE('',*,*,#342,.T.);
#458=ORIENTED_EDGE('',*,*,#300,.F.);
#459=ORIENTED_EDGE('',*,*,#343,.T.);
#460=ORIENTED_EDGE('',*,*,#336,.F.);
#461=ORIENTED_EDGE('',*,*,#344,.F.);
#462=ORIENTED_EDGE('',*,*,#303,.F.);
#463=ORIENTED_EDGE('',*,*,#344,.T.);
#464=ORIENTED_EDGE('',*,*,#339,.F.);
#465=ORIENTED_EDGE('',*,*,#345,.F.);
#466=ORIENTED_EDGE('',*,*,#305,.F.);
#467=ORIENTED_EDGE('',*,*,#345,.T.);
#468=ORIENTED_EDGE('',*,*,#341,.F.);
#469=ORIENTED_EDGE('',*,*,#313,.F.);
#470=ORIENTED_EDGE('',*,*,#324,.F.);
#471=ORIENTED_EDGE('',*,*,#342,.F.);
#472=ORIENTED_EDGE('',*,*,#340,.F.);
#473=ORIENTED_EDGE('',*,*,#337,.F.);
#474=ORIENTED_EDGE('',*,*,#334,.F.);
#475=ORIENTED_EDGE('',*,*,#331,.F.);
#476=ORIENTED_EDGE('',*,*,#329,.F.);
#477=ORIENTED_EDGE('',*,*,#327,.F.);
#478=ORIENTED_EDGE('',*,*,#297,.F.);
#479=ORIENTED_EDGE('',*,*,#308,.T.);
#480=ORIENTED_EDGE('',*,*,#333,.F.);
#481=ORIENTED_EDGE('',*,*,#343,.F.);
#482=ORIENTED_EDGE('',*,*,#316,.F.);
#483=ORIENTED_EDGE('',*,*,#346,.T.);
#484=ORIENTED_EDGE('',*,*,#347,.F.);
#485=ORIENTED_EDGE('',*,*,#348,.F.);
#486=ORIENTED_EDGE('',*,*,#317,.F.);
#487=ORIENTED_EDGE('',*,*,#348,.T.);
#488=ORIENTED_EDGE('',*,*,#349,.F.);
#489=ORIENTED_EDGE('',*,*,#350,.F.);
#490=ORIENTED_EDGE('',*,*,#318,.F.);
#491=ORIENTED_EDGE('',*,*,#350,.T.);
#492=ORIENTED_EDGE('',*,*,#351,.F.);
#493=ORIENTED_EDGE('',*,*,#352,.F.);
#494=ORIENTED_EDGE('',*,*,#319,.F.);
#495=ORIENTED_EDGE('',*,*,#352,.T.);
#496=ORIENTED_EDGE('',*,*,#353,.F.);
#497=ORIENTED_EDGE('',*,*,#354,.F.);
#498=ORIENTED_EDGE('',*,*,#320,.F.);
#499=ORIENTED_EDGE('',*,*,#354,.T.);
#500=ORIENTED_EDGE('',*,*,#355,.F.);
#501=ORIENTED_EDGE('',*,*,#356,.F.);
#502=ORIENTED_EDGE('',*,*,#321,.F.);
#503=ORIENTED_EDGE('',*,*,#356,.T.);
#504=ORIENTED_EDGE('',*,*,#357,.F.);
#505=ORIENTED_EDGE('',*,*,#358,.F.);
#506=ORIENTED_EDGE('',*,*,#322,.F.);
#507=ORIENTED_EDGE('',*,*,#358,.T.);
#508=ORIENTED_EDGE('',*,*,#359,.F.);
#509=ORIENTED_EDGE('',*,*,#360,.F.);
#510=ORIENTED_EDGE('',*,*,#315,.F.);
#511=ORIENTED_EDGE('',*,*,#360,.T.);
#512=ORIENTED_EDGE('',*,*,#361,.F.);
#513=ORIENTED_EDGE('',*,*,#346,.F.);
#514=ORIENTED_EDGE('',*,*,#361,.T.);
#515=ORIENTED_EDGE('',*,*,#359,.T.);
#516=ORIENTED_EDGE('',*,*,#357,.T.);
#517=ORIENTED_EDGE('',*,*,#355,.T.);
#518=ORIENTED_EDGE('',*,*,#353,.T.);
#519=ORIENTED_EDGE('',*,*,#351,.T.);
#520=ORIENTED_EDGE('',*,*,#349,.T.);
#521=ORIENTED_EDGE('',*,*,#347,.T.);
#522=TOROIDAL_SURFACE('',#588,3.4,0.2);
#523=TOROIDAL_SURFACE('',#595,3.4,0.2);
#524=TOROIDAL_SURFACE('',#601,3.4,0.2);
#525=TOROIDAL_SURFACE('',#607,3.4,0.2);
#526=TOROIDAL_SURFACE('',#623,3.,0.2);
#527=TOROIDAL_SURFACE('',#629,3.,0.2);
#528=TOROIDAL_SURFACE('',#634,3.,0.2);
#529=TOROIDAL_SURFACE('',#640,3.,0.2);
#530=ADVANCED_FACE('',(#123),#522,.T.);
#531=ADVANCED_FACE('',(#124),#107,.T.);
#532=ADVANCED_FACE('',(#125),#523,.T.);
#533=ADVANCED_FACE('',(#126),#108,.T.);
#534=ADVANCED_FACE('',(#127),#524,.T.);
#535=ADVANCED_FACE('',(#128),#109,.T.);
#536=ADVANCED_FACE('',(#129),#525,.T.);
#537=ADVANCED_FACE('',(#130),#110,.T.);
#538=ADVANCED_FACE('',(#131),#16,.F.);
#539=ADVANCED_FACE('',(#132),#111,.F.);
#540=ADVANCED_FACE('',(#133),#17,.F.);
#541=ADVANCED_FACE('',(#134),#112,.F.);
#542=ADVANCED_FACE('',(#135,#15),#18,.T.);
#543=ADVANCED_FACE('',(#136),#526,.F.);
#544=ADVANCED_FACE('',(#137),#113,.F.);
#545=ADVANCED_FACE('',(#138),#527,.F.);
#546=ADVANCED_FACE('',(#139),#114,.F.);
#547=ADVANCED_FACE('',(#140),#528,.F.);
#548=ADVANCED_FACE('',(#141),#115,.F.);
#549=ADVANCED_FACE('',(#142),#529,.F.);
#550=ADVANCED_FACE('',(#143),#116,.F.);
#551=ADVANCED_FACE('',(#144),#19,.F.);
#552=ADVANCED_FACE('',(#145),#117,.F.);
#553=ADVANCED_FACE('',(#146),#20,.F.);
#554=ADVANCED_FACE('',(#147),#21,.T.);
#555=ADVANCED_FACE('',(#148),#118,.F.);
#556=ADVANCED_FACE('',(#149),#119,.T.);
#557=ADVANCED_FACE('',(#150),#22,.T.);
#558=ADVANCED_FACE('',(#151),#120,.T.);
#559=ADVANCED_FACE('',(#152),#23,.T.);
#560=ADVANCED_FACE('',(#153),#121,.T.);
#561=ADVANCED_FACE('',(#154),#24,.T.);
#562=ADVANCED_FACE('',(#155),#122,.T.);
#563=ADVANCED_FACE('',(#156),#25,.T.);
#564=ADVANCED_FACE('',(#157),#26,.F.);
#565=CLOSED_SHELL('',(#530,#531,#532,#533,#534,#535,#536,#537,#538,#539,
#540,#541,#542,#543,#544,#545,#546,#547,#548,#549,#550,#551,#552,#553,#554,
#555,#556,#557,#558,#559,#560,#561,#562,#563,#564));
#566=DERIVED_UNIT_ELEMENT(#569,1.);
#567=DERIVED_UNIT_ELEMENT(#1024,-3.);
#568=DIMENSIONAL_EXPONENTS(0.,1.,0.,0.,0.,0.,0.);
#569=(
CONVERSION_BASED_UNIT('gram',#571)
MASS_UNIT()
NAMED_UNIT(#568)
);
#570=(
MASS_UNIT()
NAMED_UNIT(*)
SI_UNIT(.KILO.,.GRAM.)
);
#571=MASS_MEASURE_WITH_UNIT(MASS_MEASURE(0.001),#570);
#572=DERIVED_UNIT((#566,#567));
#573=MEASURE_REPRESENTATION_ITEM('density measure',
POSITIVE_RATIO_MEASURE(1.),#572);
#574=PROPERTY_DEFINITION_REPRESENTATION(#579,#576);
#575=PROPERTY_DEFINITION_REPRESENTATION(#580,#577);
#576=REPRESENTATION('material name',(#578),#1021);
#577=REPRESENTATION('density',(#573),#1021);
#578=DESCRIPTIVE_REPRESENTATION_ITEM('Generic','Generic');
#579=PROPERTY_DEFINITION('material property','material name',#1031);
#580=PROPERTY_DEFINITION('material property','density of part',#1031);
#581=DATE_TIME_ROLE('creation_date');
#582=APPLIED_DATE_AND_TIME_ASSIGNMENT(#583,#581,(#1031));
#583=DATE_AND_TIME(#584,#585);
#584=CALENDAR_DATE(2025,7,5);
#585=LOCAL_TIME(0,0,0.,#586);
#586=COORDINATED_UNIVERSAL_TIME_OFFSET(0,0,.BEHIND.);
#587=AXIS2_PLACEMENT_3D('',#855,#663,#664);
#588=AXIS2_PLACEMENT_3D('',#856,#665,#666);
#589=AXIS2_PLACEMENT_3D('',#859,#667,#668);
#590=AXIS2_PLACEMENT_3D('',#861,#669,#670);
#591=AXIS2_PLACEMENT_3D('',#863,#671,#672);
#592=AXIS2_PLACEMENT_3D('',#864,#673,#674);
#593=AXIS2_PLACEMENT_3D('',#865,#675,#676);
#594=AXIS2_PLACEMENT_3D('',#868,#677,#678);
#595=AXIS2_PLACEMENT_3D('',#871,#681,#682);
#596=AXIS2_PLACEMENT_3D('',#874,#683,#684);
#597=AXIS2_PLACEMENT_3D('',#875,#685,#686);
#598=AXIS2_PLACEMENT_3D('',#876,#687,#688);
#599=AXIS2_PLACEMENT_3D('',#877,#689,#690);
#600=AXIS2_PLACEMENT_3D('',#880,#691,#692);
#601=AXIS2_PLACEMENT_3D('',#883,#695,#696);
#602=AXIS2_PLACEMENT_3D('',#886,#697,#698);
#603=AXIS2_PLACEMENT_3D('',#887,#699,#700);
#604=AXIS2_PLACEMENT_3D('',#888,#701,#702);
#605=AXIS2_PLACEMENT_3D('',#889,#703,#704);
#606=AXIS2_PLACEMENT_3D('',#892,#705,#706);
#607=AXIS2_PLACEMENT_3D('',#895,#709,#710);
#608=AXIS2_PLACEMENT_3D('',#898,#711,#712);
#609=AXIS2_PLACEMENT_3D('',#899,#713,#714);
#610=AXIS2_PLACEMENT_3D('',#900,#715,#716);
#611=AXIS2_PLACEMENT_3D('',#901,#717,#718);
#612=AXIS2_PLACEMENT_3D('',#904,#721,#722);
#613=AXIS2_PLACEMENT_3D('',#910,#726,#727);
#614=AXIS2_PLACEMENT_3D('',#913,#729,#730);
#615=AXIS2_PLACEMENT_3D('',#914,#731,#732);
#616=AXIS2_PLACEMENT_3D('',#918,#735,#736);
#617=AXIS2_PLACEMENT_3D('',#921,#738,#739);
#618=AXIS2_PLACEMENT_3D('',#922,#740,#741);
#619=AXIS2_PLACEMENT_3D('',#927,#743,#744);
#620=AXIS2_PLACEMENT_3D('',#931,#746,#747);
#621=AXIS2_PLACEMENT_3D('',#935,#749,#750);
#622=AXIS2_PLACEMENT_3D('',#938,#752,#753);
#623=AXIS2_PLACEMENT_3D('',#939,#754,#755);
#624=AXIS2_PLACEMENT_3D('',#941,#756,#757);
#625=AXIS2_PLACEMENT_3D('',#943,#758,#759);
#626=AXIS2_PLACEMENT_3D('',#944,#760,#761);
#627=AXIS2_PLACEMENT_3D('',#945,#762,#763);
#628=AXIS2_PLACEMENT_3D('',#947,#764,#765);
#629=AXIS2_PLACEMENT_3D('',#949,#767,#768);
#630=AXIS2_PLACEMENT_3D('',#951,#769,#770);
#631=AXIS2_PLACEMENT_3D('',#952,#771,#772);
#632=AXIS2_PLACEMENT_3D('',#953,#773,#774);
#633=AXIS2_PLACEMENT_3D('',#955,#775,#776);
#634=AXIS2_PLACEMENT_3D('',#957,#778,#779);
#635=AXIS2_PLACEMENT_3D('',#960,#780,#781);
#636=AXIS2_PLACEMENT_3D('',#961,#782,#783);
#637=AXIS2_PLACEMENT_3D('',#962,#784,#785);
#638=AXIS2_PLACEMENT_3D('',#963,#786,#787);
#639=AXIS2_PLACEMENT_3D('',#966,#788,#789);
#640=AXIS2_PLACEMENT_3D('',#969,#792,#793);
#641=AXIS2_PLACEMENT_3D('',#972,#794,#795);
#642=AXIS2_PLACEMENT_3D('',#973,#796,#797);
#643=AXIS2_PLACEMENT_3D('',#974,#798,#799);
#644=AXIS2_PLACEMENT_3D('',#975,#800,#801);
#645=AXIS2_PLACEMENT_3D('',#978,#804,#805);
#646=AXIS2_PLACEMENT_3D('',#981,#808,#809);
#647=AXIS2_PLACEMENT_3D('',#983,#811,#812);
#648=AXIS2_PLACEMENT_3D('',#984,#813,#814);
#649=AXIS2_PLACEMENT_3D('',#985,#815,#816);
#650=AXIS2_PLACEMENT_3D('',#986,#817,#818);
#651=AXIS2_PLACEMENT_3D('',#990,#820,#821);
#652=AXIS2_PLACEMENT_3D('',#992,#823,#824);
#653=AXIS2_PLACEMENT_3D('',#996,#827,#828);
#654=AXIS2_PLACEMENT_3D('',#998,#829,#830);
#655=AXIS2_PLACEMENT_3D('',#1000,#832,#833);
#656=AXIS2_PLACEMENT_3D('',#1004,#836,#837);
#657=AXIS2_PLACEMENT_3D('',#1006,#838,#839);
#658=AXIS2_PLACEMENT_3D('',#1008,#841,#842);
#659=AXIS2_PLACEMENT_3D('',#1012,#845,#846);
#660=AXIS2_PLACEMENT_3D('',#1014,#847,#848);
#661=AXIS2_PLACEMENT_3D('',#1016,#850,#851);
#662=AXIS2_PLACEMENT_3D('',#1018,#853,#854);
#663=DIRECTION('axis',(0.,0.,1.));
#664=DIRECTION('refdir',(1.,0.,0.));
#665=DIRECTION('center_axis',(0.,-1.,0.));
#666=DIRECTION('ref_axis',(0.,0.,-1.));
#667=DIRECTION('center_axis',(-9.08162434143418E-12,0.,-1.));
#668=DIRECTION('ref_axis',(0.,1.,0.));
#669=DIRECTION('center_axis',(0.,-1.,0.));
#670=DIRECTION('ref_axis',(-0.707106781186547,0.,-0.707106781186548));
#671=DIRECTION('center_axis',(-1.,0.,-9.08162434143357E-12));
#672=DIRECTION('ref_axis',(-9.08162434143357E-12,0.,1.));
#673=DIRECTION('center_axis',(0.,1.,0.));
#674=DIRECTION('ref_axis',(-0.707106781186547,0.,-0.707106781186548));
#675=DIRECTION('center_axis',(1.,0.,-3.02788097625443E-16));
#676=DIRECTION('ref_axis',(0.,0.707106781186539,0.707106781186556));
#677=DIRECTION('center_axis',(-1.,0.,0.));
#678=DIRECTION('ref_axis',(0.,0.,1.));
#679=DIRECTION('',(-1.,0.,3.02788097625443E-16));
#680=DIRECTION('',(1.,0.,-3.02788097625443E-16));
#681=DIRECTION('center_axis',(0.,-1.,0.));
#682=DIRECTION('ref_axis',(0.,0.,-1.));
#683=DIRECTION('center_axis',(9.08162434143438E-12,0.,-1.));
#684=DIRECTION('ref_axis',(-1.,0.,-9.08162434143438E-12));
#685=DIRECTION('center_axis',(0.,1.,0.));
#686=DIRECTION('ref_axis',(0.707106781186548,0.,-0.707106781186547));
#687=DIRECTION('center_axis',(0.,-1.,0.));
#688=DIRECTION('ref_axis',(0.707106781186548,0.,-0.707106781186547));
#689=DIRECTION('center_axis',(1.00929365875148E-16,0.,1.));
#690=DIRECTION('ref_axis',(-0.707106781186556,0.707106781186539,0.));
#691=DIRECTION('center_axis',(0.,0.,-1.));
#692=DIRECTION('ref_axis',(-1.,0.,0.));
#693=DIRECTION('',(-1.00929365875148E-16,0.,-1.));
#694=DIRECTION('',(1.00929365875148E-16,0.,1.));
#695=DIRECTION('center_axis',(0.,-1.,0.));
#696=DIRECTION('ref_axis',(0.,0.,-1.));
#697=DIRECTION('center_axis',(1.,0.,9.08162434143377E-12));
#698=DIRECTION('ref_axis',(9.08162434143377E-12,0.,-1.));
#699=DIRECTION('center_axis',(0.,1.,0.));
#700=DIRECTION('ref_axis',(0.707106781186547,0.,0.707106781186548));
#701=DIRECTION('center_axis',(0.,-1.,0.));
#702=DIRECTION('ref_axis',(0.707106781186547,0.,0.707106781186548));
#703=DIRECTION('center_axis',(-1.,0.,1.00929365875148E-16));
#704=DIRECTION('ref_axis',(0.,0.707106781186539,-0.707106781186556));
#705=DIRECTION('center_axis',(1.,0.,0.));
#706=DIRECTION('ref_axis',(0.,0.,-1.));
#707=DIRECTION('',(1.,0.,-1.00929365875148E-16));
#708=DIRECTION('',(-1.,0.,1.00929365875148E-16));
#709=DIRECTION('center_axis',(0.,-1.,0.));
#710=DIRECTION('ref_axis',(0.,0.,-1.));
#711=DIRECTION('center_axis',(-9.10382880192668E-12,0.,1.));
#712=DIRECTION('ref_axis',(1.,0.,9.10382880192668E-12));
#713=DIRECTION('center_axis',(0.,1.,0.));
#714=DIRECTION('ref_axis',(-0.707106781186547,0.,0.707106781186548));
#715=DIRECTION('center_axis',(0.,-1.,0.));
#716=DIRECTION('ref_axis',(-0.707106781186547,0.,0.707106781186548));
#717=DIRECTION('center_axis',(-1.00929365875148E-16,0.,-1.));
#718=DIRECTION('ref_axis',(0.70710678118654,0.707106781186555,0.));
#719=DIRECTION('',(1.00929365875148E-16,0.,1.));
#720=DIRECTION('',(-1.00929365875148E-16,0.,-1.));
#721=DIRECTION('center_axis',(1.,0.,-1.00929365875148E-16));
#722=DIRECTION('ref_axis',(1.00929365875148E-16,0.,1.));
#723=DIRECTION('',(0.,-1.,0.));
#724=DIRECTION('',(-1.00929365875148E-16,0.,-1.));
#725=DIRECTION('',(0.,-1.,0.));
#726=DIRECTION('center_axis',(0.,-1.,0.));
#727=DIRECTION('ref_axis',(1.,0.,9.09688990802234E-12));
#728=DIRECTION('',(0.,-1.,0.));
#729=DIRECTION('center_axis',(0.,1.,0.));
#730=DIRECTION('ref_axis',(0.707106781186548,0.,-0.707106781186547));
#731=DIRECTION('center_axis',(-3.02788097625443E-16,0.,-1.));
#732=DIRECTION('ref_axis',(1.,0.,-3.02788097625443E-16));
#733=DIRECTION('',(0.,-1.,0.));
#734=DIRECTION('',(-1.,0.,3.02788097625443E-16));
#735=DIRECTION('center_axis',(0.,-1.,0.));
#736=DIRECTION('ref_axis',(9.09688990802239E-12,0.,-1.));
#737=DIRECTION('',(0.,-1.,0.));
#738=DIRECTION('center_axis',(0.,1.,0.));
#739=DIRECTION('ref_axis',(-0.707106781186547,0.,-0.707106781186548));
#740=DIRECTION('center_axis',(0.,1.,0.));
#741=DIRECTION('ref_axis',(0.,0.,1.));
#742=DIRECTION('',(1.00929365875014E-16,0.,1.));
#743=DIRECTION('center_axis',(0.,1.,0.));
#744=DIRECTION('ref_axis',(-1.,0.,0.));
#745=DIRECTION('',(1.,0.,-1.00929365875014E-16));
#746=DIRECTION('center_axis',(0.,1.,0.));
#747=DIRECTION('ref_axis',(8.88178419700125E-16,0.,1.));
#748=DIRECTION('',(-1.00929365875014E-16,0.,-1.));
#749=DIRECTION('center_axis',(0.,1.,0.));
#750=DIRECTION('ref_axis',(1.,0.,0.));
#751=DIRECTION('',(-1.,0.,3.02788097625043E-16));
#752=DIRECTION('center_axis',(0.,1.,0.));
#753=DIRECTION('ref_axis',(0.,0.,-1.));
#754=DIRECTION('center_axis',(0.,-1.,0.));
#755=DIRECTION('ref_axis',(0.,0.,-1.));
#756=DIRECTION('center_axis',(9.08162434143337E-12,0.,1.));
#757=DIRECTION('ref_axis',(-1.,0.,9.08162434143337E-12));
#758=DIRECTION('center_axis',(0.,-1.,0.));
#759=DIRECTION('ref_axis',(-0.707106781186547,0.,-0.707106781186548));
#760=DIRECTION('center_axis',(1.,0.,9.08162434143397E-12));
#761=DIRECTION('ref_axis',(0.,-1.,0.));
#762=DIRECTION('center_axis',(1.,0.,-3.02788097625443E-16));
#763=DIRECTION('ref_axis',(0.,-0.707106781186539,-0.707106781186556));
#764=DIRECTION('center_axis',(1.,0.,0.));
#765=DIRECTION('ref_axis',(0.,-1.,0.));
#766=DIRECTION('',(1.,0.,-3.02788097625443E-16));
#767=DIRECTION('center_axis',(0.,-1.,0.));
#768=DIRECTION('ref_axis',(0.,0.,-1.));
#769=DIRECTION('center_axis',(-9.08162434143317E-12,0.,1.));
#770=DIRECTION('ref_axis',(0.,-1.,0.));
#771=DIRECTION('center_axis',(0.,-1.,0.));
#772=DIRECTION('ref_axis',(0.707106781186548,0.,-0.707106781186547));
#773=DIRECTION('center_axis',(1.00929365875148E-16,0.,1.));
#774=DIRECTION('ref_axis',(0.707106781186556,-0.707106781186539,0.));
#775=DIRECTION('center_axis',(0.,0.,1.));
#776=DIRECTION('ref_axis',(0.,-1.,0.));
#777=DIRECTION('',(1.00929365875148E-16,0.,1.));
#778=DIRECTION('center_axis',(0.,-1.,0.));
#779=DIRECTION('ref_axis',(0.,0.,-1.));
#780=DIRECTION('center_axis',(-1.,0.,-9.08162434143377E-12));
#781=DIRECTION('ref_axis',(0.,-1.,0.));
#782=DIRECTION('center_axis',(0.,1.,0.));
#783=DIRECTION('ref_axis',(0.707106781186547,0.,0.707106781186548));
#784=DIRECTION('center_axis',(0.,-1.,0.));
#785=DIRECTION('ref_axis',(0.707106781186547,0.,0.707106781186548));
#786=DIRECTION('center_axis',(-1.,0.,1.00929365875148E-16));
#787=DIRECTION('ref_axis',(0.,-0.707106781186539,0.707106781186556));
#788=DIRECTION('center_axis',(-1.,0.,0.));
#789=DIRECTION('ref_axis',(0.,-1.,0.));
#790=DIRECTION('',(1.,0.,-1.00929365875148E-16));
#791=DIRECTION('',(-1.,0.,1.00929365875148E-16));
#792=DIRECTION('center_axis',(0.,-1.,0.));
#793=DIRECTION('ref_axis',(0.,0.,-1.));
#794=DIRECTION('center_axis',(9.10382880192587E-12,0.,-1.));
#795=DIRECTION('ref_axis',(0.,-1.,0.));
#796=DIRECTION('center_axis',(0.,1.,0.));
#797=DIRECTION('ref_axis',(-0.707106781186547,0.,0.707106781186548));
#798=DIRECTION('center_axis',(0.,-1.,0.));
#799=DIRECTION('ref_axis',(-0.707106781186547,0.,0.707106781186548));
#800=DIRECTION('center_axis',(-1.00929365875148E-16,0.,-1.));
#801=DIRECTION('ref_axis',(-0.70710678118654,-0.707106781186555,0.));
#802=DIRECTION('',(1.00929365875148E-16,0.,1.));
#803=DIRECTION('',(-1.00929365875148E-16,0.,-1.));
#804=DIRECTION('center_axis',(1.00929365875148E-16,0.,1.));
#805=DIRECTION('ref_axis',(-1.,0.,1.00929365875148E-16));
#806=DIRECTION('',(0.,-1.,0.));
#807=DIRECTION('',(0.,-1.,0.));
#808=DIRECTION('center_axis',(0.,-1.,0.));
#809=DIRECTION('ref_axis',(-1.,0.,-9.09550212924158E-12));
#810=DIRECTION('',(0.,-1.,0.));
#811=DIRECTION('center_axis',(-1.,0.,1.00929365875148E-16));
#812=DIRECTION('ref_axis',(-1.00929365875148E-16,0.,-1.));
#813=DIRECTION('center_axis',(0.,1.,0.));
#814=DIRECTION('ref_axis',(0.,0.,1.));
#815=DIRECTION('center_axis',(0.,-1.,0.));
#816=DIRECTION('ref_axis',(-9.09688990802238E-12,0.,1.));
#817=DIRECTION('center_axis',(0.,-1.,0.));
#818=DIRECTION('ref_axis',(-1.,0.,0.));
#819=DIRECTION('',(0.,-1.,0.));
#820=DIRECTION('center_axis',(0.,-1.,0.));
#821=DIRECTION('ref_axis',(-1.,0.,0.));
#822=DIRECTION('',(0.,-1.,0.));
#823=DIRECTION('center_axis',(1.00929365875014E-16,0.,1.));
#824=DIRECTION('ref_axis',(-1.,0.,1.00929365875014E-16));
#825=DIRECTION('',(-1.,0.,1.00929365875014E-16));
#826=DIRECTION('',(0.,-1.,0.));
#827=DIRECTION('center_axis',(0.,-1.,0.));
#828=DIRECTION('ref_axis',(8.88178419700125E-16,0.,1.));
#829=DIRECTION('center_axis',(0.,-1.,0.));
#830=DIRECTION('ref_axis',(8.88178419700125E-16,0.,1.));
#831=DIRECTION('',(0.,-1.,0.));
#832=DIRECTION('center_axis',(1.,0.,-1.00929365875014E-16));
#833=DIRECTION('ref_axis',(1.00929365875014E-16,0.,1.));
#834=DIRECTION('',(1.00929365875014E-16,0.,1.));
#835=DIRECTION('',(0.,-1.,0.));
#836=DIRECTION('center_axis',(0.,-1.,0.));
#837=DIRECTION('ref_axis',(1.,0.,0.));
#838=DIRECTION('center_axis',(0.,-1.,0.));
#839=DIRECTION('ref_axis',(1.,0.,0.));
#840=DIRECTION('',(0.,-1.,0.));
#841=DIRECTION('center_axis',(-3.02788097625043E-16,0.,-1.));
#842=DIRECTION('ref_axis',(1.,0.,-3.02788097625043E-16));
#843=DIRECTION('',(1.,0.,-3.02788097625043E-16));
#844=DIRECTION('',(0.,-1.,0.));
#845=DIRECTION('center_axis',(0.,-1.,0.));
#846=DIRECTION('ref_axis',(0.,0.,-1.));
#847=DIRECTION('center_axis',(0.,-1.,0.));
#848=DIRECTION('ref_axis',(0.,0.,-1.));
#849=DIRECTION('',(0.,-1.,0.));
#850=DIRECTION('center_axis',(-1.,0.,1.00929365875014E-16));
#851=DIRECTION('ref_axis',(-1.00929365875014E-16,0.,-1.));
#852=DIRECTION('',(-1.00929365875014E-16,0.,-1.));
#853=DIRECTION('center_axis',(0.,1.,0.));
#854=DIRECTION('ref_axis',(0.,0.,1.));
#855=CARTESIAN_POINT('',(0.,0.,0.));
#856=CARTESIAN_POINT('Origin',(-22.,-0.2,-22.));
#857=CARTESIAN_POINT('',(-25.4,0.,-21.9999999999691));
#858=CARTESIAN_POINT('',(-25.2,-0.2,-21.9999999999709));
#859=CARTESIAN_POINT('Origin',(-25.4,-0.2,-21.9999999999691));
#860=CARTESIAN_POINT('',(-21.9999999999709,-0.2,-25.2));
#861=CARTESIAN_POINT('Origin',(-22.,-0.2,-22.));
#862=CARTESIAN_POINT('',(-21.9999999999691,0.,-25.4));
#863=CARTESIAN_POINT('Origin',(-21.9999999999691,-0.2,-25.4));
#864=CARTESIAN_POINT('Origin',(-22.,0.,-22.));
#865=CARTESIAN_POINT('Origin',(-10.9999999999855,-0.2,-25.4));
#866=CARTESIAN_POINT('',(21.9999999999709,-0.2,-25.2));
#867=CARTESIAN_POINT('',(21.9999999999709,0.,-25.4));
#868=CARTESIAN_POINT('Origin',(21.9999999999709,-0.2,-25.4));
#869=CARTESIAN_POINT('',(-10.9999999999855,0.,-25.4));
#870=CARTESIAN_POINT('',(-10.9999999999855,-0.2,-25.2));
#871=CARTESIAN_POINT('Origin',(22.,-0.2,-22.));
#872=CARTESIAN_POINT('',(25.2,-0.2,-21.9999999999709));
#873=CARTESIAN_POINT('',(25.4,0.,-21.9999999999691));
#874=CARTESIAN_POINT('Origin',(25.4,-0.2,-21.9999999999691));
#875=CARTESIAN_POINT('Origin',(22.,0.,-22.));
#876=CARTESIAN_POINT('Origin',(22.,-0.2,-22.));
#877=CARTESIAN_POINT('Origin',(25.4,-0.2,-10.9999999999854));
#878=CARTESIAN_POINT('',(25.2,-0.2,21.9999999999709));
#879=CARTESIAN_POINT('',(25.4,0.,21.9999999999709));
#880=CARTESIAN_POINT('Origin',(25.4,-0.2,21.9999999999709));
#881=CARTESIAN_POINT('',(25.4,0.,-10.9999999999854));
#882=CARTESIAN_POINT('',(25.2,-0.2,-10.9999999999854));
#883=CARTESIAN_POINT('Origin',(22.,-0.2,22.));
#884=CARTESIAN_POINT('',(21.9999999999709,-0.2,25.2));
#885=CARTESIAN_POINT('',(21.9999999999691,0.,25.4));
#886=CARTESIAN_POINT('Origin',(21.9999999999691,-0.2,25.4));
#887=CARTESIAN_POINT('Origin',(22.,0.,22.));
#888=CARTESIAN_POINT('Origin',(22.,-0.2,22.));
#889=CARTESIAN_POINT('Origin',(10.9999999999854,-0.2,25.4));
#890=CARTESIAN_POINT('',(-21.9999999999709,-0.2,25.2));
#891=CARTESIAN_POINT('',(-21.9999999999709,0.,25.4));
#892=CARTESIAN_POINT('Origin',(-21.9999999999709,-0.2,25.4));
#893=CARTESIAN_POINT('',(10.9999999999854,0.,25.4));
#894=CARTESIAN_POINT('',(10.9999999999854,-0.2,25.2));
#895=CARTESIAN_POINT('Origin',(-22.,-0.2,22.));
#896=CARTESIAN_POINT('',(-25.2,-0.2,21.9999999999709));
#897=CARTESIAN_POINT('',(-25.4,0.,21.9999999999691));
#898=CARTESIAN_POINT('Origin',(-25.4,-0.2,21.9999999999691));
#899=CARTESIAN_POINT('Origin',(-22.,0.,22.));
#900=CARTESIAN_POINT('Origin',(-22.,-0.2,22.));
#901=CARTESIAN_POINT('Origin',(-25.4,-0.2,10.9999999999854));
#902=CARTESIAN_POINT('',(-25.4,0.,10.9999999999854));
#903=CARTESIAN_POINT('',(-25.2,-0.2,10.9999999999854));
#904=CARTESIAN_POINT('Origin',(25.2,0.,-21.9999999999709));
#905=CARTESIAN_POINT('',(25.2,-0.3,-21.9999999999709));
#906=CARTESIAN_POINT('',(25.2,0.,-21.9999999999709));
#907=CARTESIAN_POINT('',(25.2,-0.3,21.9999999999709));
#908=CARTESIAN_POINT('',(25.2,-0.3,-10.9999999999854));
#909=CARTESIAN_POINT('',(25.2,0.,21.9999999999709));
#910=CARTESIAN_POINT('Origin',(22.,0.,-22.));
#911=CARTESIAN_POINT('',(21.9999999999709,-0.3,-25.2));
#912=CARTESIAN_POINT('',(21.9999999999709,0.,-25.2));
#913=CARTESIAN_POINT('Origin',(22.,-0.3,-22.));
#914=CARTESIAN_POINT('Origin',(-21.9999999999709,0.,-25.2));
#915=CARTESIAN_POINT('',(-21.9999999999709,-0.3,-25.2));
#916=CARTESIAN_POINT('',(-21.9999999999709,0.,-25.2));
#917=CARTESIAN_POINT('',(-10.9999999999855,-0.3,-25.2));
#918=CARTESIAN_POINT('Origin',(-22.,0.,-22.));
#919=CARTESIAN_POINT('',(-25.2,-0.3,-21.9999999999709));
#920=CARTESIAN_POINT('',(-25.2,0.,-21.9999999999709));
#921=CARTESIAN_POINT('Origin',(-22.,-0.3,-22.));
#922=CARTESIAN_POINT('Origin',(2.22044604925031E-15,0.,-2.22044604925031E-15));
#923=CARTESIAN_POINT('',(-27.,0.,-22.));
#924=CARTESIAN_POINT('',(-27.,0.,22.));
#925=CARTESIAN_POINT('',(-27.,0.,-22.));
#926=CARTESIAN_POINT('',(-22.,0.,27.));
#927=CARTESIAN_POINT('Origin',(-22.,0.,22.));
#928=CARTESIAN_POINT('',(22.,0.,27.));
#929=CARTESIAN_POINT('',(-22.,0.,27.));
#930=CARTESIAN_POINT('',(27.,0.,22.));
#931=CARTESIAN_POINT('Origin',(22.,0.,22.));
#932=CARTESIAN_POINT('',(27.,0.,-22.));
#933=CARTESIAN_POINT('',(27.,0.,22.));
#934=CARTESIAN_POINT('',(22.,0.,-27.));
#935=CARTESIAN_POINT('Origin',(22.,0.,-22.));
#936=CARTESIAN_POINT('',(-22.,0.,-27.));
#937=CARTESIAN_POINT('',(22.,0.,-27.));
#938=CARTESIAN_POINT('Origin',(-22.,0.,-22.));
#939=CARTESIAN_POINT('Origin',(-22.,-0.3,-22.));
#940=CARTESIAN_POINT('',(-25.,-0.5,-21.9999999999727));
#941=CARTESIAN_POINT('Origin',(-25.,-0.3,-21.9999999999727));
#942=CARTESIAN_POINT('',(-21.9999999999727,-0.5,-25.));
#943=CARTESIAN_POINT('Origin',(-22.,-0.5,-22.));
#944=CARTESIAN_POINT('Origin',(-21.9999999999727,-0.3,-25.));
#945=CARTESIAN_POINT('Origin',(-10.9999999999855,-0.3,-25.));
#946=CARTESIAN_POINT('',(21.9999999999709,-0.5,-25.));
#947=CARTESIAN_POINT('Origin',(21.9999999999709,-0.3,-25.));
#948=CARTESIAN_POINT('',(-10.9999999999855,-0.5,-25.));
#949=CARTESIAN_POINT('Origin',(22.,-0.3,-22.));
#950=CARTESIAN_POINT('',(25.,-0.5,-21.9999999999727));
#951=CARTESIAN_POINT('Origin',(25.,-0.3,-21.9999999999727));
#952=CARTESIAN_POINT('Origin',(22.,-0.5,-22.));
#953=CARTESIAN_POINT('Origin',(25.,-0.3,-10.9999999999854));
#954=CARTESIAN_POINT('',(25.,-0.5,21.9999999999709));
#955=CARTESIAN_POINT('Origin',(25.,-0.3,21.9999999999709));
#956=CARTESIAN_POINT('',(25.,-0.5,-10.9999999999854));
#957=CARTESIAN_POINT('Origin',(22.,-0.3,22.));
#958=CARTESIAN_POINT('',(21.9999999999727,-0.5,25.));
#959=CARTESIAN_POINT('',(21.9999999999709,-0.3,25.2));
#960=CARTESIAN_POINT('Origin',(21.9999999999727,-0.3,25.));
#961=CARTESIAN_POINT('Origin',(22.,-0.3,22.));
#962=CARTESIAN_POINT('Origin',(22.,-0.5,22.));
#963=CARTESIAN_POINT('Origin',(10.9999999999854,-0.3,25.));
#964=CARTESIAN_POINT('',(-21.9999999999709,-0.5,25.));
#965=CARTESIAN_POINT('',(-21.9999999999709,-0.3,25.2));
#966=CARTESIAN_POINT('Origin',(-21.9999999999709,-0.3,25.));
#967=CARTESIAN_POINT('',(10.9999999999854,-0.3,25.2));
#968=CARTESIAN_POINT('',(10.9999999999854,-0.5,25.));
#969=CARTESIAN_POINT('Origin',(-22.,-0.3,22.));
#970=CARTESIAN_POINT('',(-25.,-0.5,21.9999999999727));
#971=CARTESIAN_POINT('',(-25.2,-0.3,21.9999999999709));
#972=CARTESIAN_POINT('Origin',(-25.,-0.3,21.9999999999727));
#973=CARTESIAN_POINT('Origin',(-22.,-0.3,22.));
#974=CARTESIAN_POINT('Origin',(-22.,-0.5,22.));
#975=CARTESIAN_POINT('Origin',(-25.,-0.3,10.9999999999854));
#976=CARTESIAN_POINT('',(-25.2,-0.3,10.9999999999854));
#977=CARTESIAN_POINT('',(-25.,-0.5,10.9999999999854));
#978=CARTESIAN_POINT('Origin',(21.9999999999709,0.,25.2));
#979=CARTESIAN_POINT('',(21.9999999999709,0.,25.2));
#980=CARTESIAN_POINT('',(-21.9999999999709,0.,25.2));
#981=CARTESIAN_POINT('Origin',(-22.,0.,22.));
#982=CARTESIAN_POINT('',(-25.2,0.,21.9999999999709));
#983=CARTESIAN_POINT('Origin',(-25.2,0.,21.9999999999709));
#984=CARTESIAN_POINT('Origin',(2.22044604925031E-15,-0.5,-2.22044604925031E-15));
#985=CARTESIAN_POINT('Origin',(22.,0.,22.));
#986=CARTESIAN_POINT('Origin',(-22.,0.,22.));
#987=CARTESIAN_POINT('',(-27.,-25.,22.));
#988=CARTESIAN_POINT('',(-27.,0.,22.));
#989=CARTESIAN_POINT('',(-22.,-25.,27.));
#990=CARTESIAN_POINT('Origin',(-22.,-25.,22.));
#991=CARTESIAN_POINT('',(-22.,0.,27.));
#992=CARTESIAN_POINT('Origin',(22.,0.,27.));
#993=CARTESIAN_POINT('',(22.,-25.,27.));
#994=CARTESIAN_POINT('',(-22.,-25.,27.));
#995=CARTESIAN_POINT('',(22.,0.,27.));
#996=CARTESIAN_POINT('Origin',(22.,0.,22.));
#997=CARTESIAN_POINT('',(27.,-25.,22.));
#998=CARTESIAN_POINT('Origin',(22.,-25.,22.));
#999=CARTESIAN_POINT('',(27.,0.,22.));
#1000=CARTESIAN_POINT('Origin',(27.,0.,-22.));
#1001=CARTESIAN_POINT('',(27.,-25.,-22.));
#1002=CARTESIAN_POINT('',(27.,-25.,22.));
#1003=CARTESIAN_POINT('',(27.,0.,-22.));
#1004=CARTESIAN_POINT('Origin',(22.,0.,-22.));
#1005=CARTESIAN_POINT('',(22.,-25.,-27.));
#1006=CARTESIAN_POINT('Origin',(22.,-25.,-22.));
#1007=CARTESIAN_POINT('',(22.,0.,-27.));
#1008=CARTESIAN_POINT('Origin',(-22.,0.,-27.));
#1009=CARTESIAN_POINT('',(-22.,-25.,-27.));
#1010=CARTESIAN_POINT('',(22.,-25.,-27.));
#1011=CARTESIAN_POINT('',(-22.,0.,-27.));
#1012=CARTESIAN_POINT('Origin',(-22.,0.,-22.));
#1013=CARTESIAN_POINT('',(-27.,-25.,-22.));
#1014=CARTESIAN_POINT('Origin',(-22.,-25.,-22.));
#1015=CARTESIAN_POINT('',(-27.,0.,-22.));
#1016=CARTESIAN_POINT('Origin',(-27.,0.,22.));
#1017=CARTESIAN_POINT('',(-27.,-25.,-22.));
#1018=CARTESIAN_POINT('Origin',(2.22044604925031E-15,-25.,-2.22044604925031E-15));
#1019=UNCERTAINTY_MEASURE_WITH_UNIT(LENGTH_MEASURE(0.01),#1023,
'DISTANCE_ACCURACY_VALUE',
'Maximum model space distance between geometric entities at asserted c
onnectivities');
#1020=UNCERTAINTY_MEASURE_WITH_UNIT(LENGTH_MEASURE(0.01),#1023,
'DISTANCE_ACCURACY_VALUE',
'Maximum model space distance between geometric entities at asserted c
onnectivities');
#1021=(
GEOMETRIC_REPRESENTATION_CONTEXT(3)
GLOBAL_UNCERTAINTY_ASSIGNED_CONTEXT((#1019))
GLOBAL_UNIT_ASSIGNED_CONTEXT((#1023,#1025,#1026))
REPRESENTATION_CONTEXT('','3D')
);
#1022=(
GEOMETRIC_REPRESENTATION_CONTEXT(3)
GLOBAL_UNCERTAINTY_ASSIGNED_CONTEXT((#1020))
GLOBAL_UNIT_ASSIGNED_CONTEXT((#1023,#1025,#1026))
REPRESENTATION_CONTEXT('','3D')
);
#1023=(
LENGTH_UNIT()
NAMED_UNIT(*)
SI_UNIT(.MILLI.,.METRE.)
);
#1024=(
LENGTH_UNIT()
NAMED_UNIT(*)
SI_UNIT(.CENTI.,.METRE.)
);
#1025=(
NAMED_UNIT(*)
PLANE_ANGLE_UNIT()
SI_UNIT($,.RADIAN.)
);
#1026=(
NAMED_UNIT(*)
SI_UNIT($,.STERADIAN.)
SOLID_ANGLE_UNIT()
);
#1027=SHAPE_DEFINITION_REPRESENTATION(#1028,#1029);
#1028=PRODUCT_DEFINITION_SHAPE('',$,#1031);
#1029=SHAPE_REPRESENTATION('',(#587),#1021);
#1030=PRODUCT_DEFINITION_CONTEXT('part definition',#1035,'design');
#1031=PRODUCT_DEFINITION('core_dummy_1','core_dummy',#1032,#1030);
#1032=PRODUCT_DEFINITION_FORMATION('',$,#1037);
#1033=PRODUCT_RELATED_PRODUCT_CATEGORY('core_dummy','core_dummy',(#1037));
#1034=APPLICATION_PROTOCOL_DEFINITION('international standard',
'automotive_design',2009,#1035);
#1035=APPLICATION_CONTEXT(
'Core Data for Automotive Mechanical Design Process');
#1036=PRODUCT_CONTEXT('part definition',#1035,'mechanical');
#1037=PRODUCT('core_dummy_1','core_dummy',$,(#1036));
#1038=PRESENTATION_STYLE_ASSIGNMENT((#1039));
#1039=SURFACE_STYLE_USAGE(.BOTH.,#1042);
#1040=SURFACE_STYLE_RENDERING_WITH_PROPERTIES($,#1046,(#1041));
#1041=SURFACE_STYLE_TRANSPARENT(0.);
#1042=SURFACE_SIDE_STYLE('',(#1043,#1040));
#1043=SURFACE_STYLE_FILL_AREA(#1044);
#1044=FILL_AREA_STYLE('',(#1045));
#1045=FILL_AREA_STYLE_COLOUR('',#1046);
#1046=COLOUR_RGB('',0.0941176470588235,0.145098039215686,0.972549019607843);
ENDSEC;
END-ISO-10303-21;
