ISO-10303-21;
HEADER;
/* Generated by software containing ST-Developer
 * from STEP Tools, Inc. (www.steptools.com) 
 */

FILE_DESCRIPTION(
/* description */ (''),
/* implementation_level */ '2;1');

FILE_NAME(
/* name */ 'load_cell.stp',
/* time_stamp */ '2026-04-07T10:57:33+02:00',
/* author */ ('Paul Juschitz'),
/* organization */ (''),
/* preprocessor_version */ 'ST-DEVELOPER v20.1',
/* originating_system */ 'Autodesk Inventor 2026',
/* authorisation */ '');

FILE_SCHEMA (('AUTOMOTIVE_DESIGN { 1 0 10303 214 3 1 1 }'));
ENDSEC;

DATA;
#10=MECHANICAL_DESIGN_GEOMETRIC_PRESENTATION_REPRESENTATION('',(#20,#21,
#22,#23,#24),#444);
#11=GEOMETRICALLY_BOUNDED_WIREFRAME_SHAPE_REPRESENTATION('',(#12),#443);
#12=GEOMETRIC_CURVE_SET('Sketch1',(#16,#17,#18,#19,#438,#439,#440));
#13=SHAPE_REPRESENTATION_RELATIONSHIP('SRR','None',#451,#15);
#14=SHAPE_REPRESENTATION_RELATIONSHIP('SRR','None',#451,#11);
#15=ADVANCED_BREP_SHAPE_REPRESENTATION('',(#25),#443);
#16=POLYLINE('',(#430,#431));
#17=POLYLINE('',(#432,#433));
#18=POLYLINE('',(#434,#435));
#19=POLYLINE('',(#436,#437));
#20=STYLED_ITEM('',(#460),#25);
#21=STYLED_ITEM('',(#462),#16);
#22=STYLED_ITEM('',(#462),#17);
#23=STYLED_ITEM('',(#462),#18);
#24=STYLED_ITEM('',(#462),#19);
#25=MANIFOLD_SOLID_BREP('Solid1',#252);
#26=FACE_BOUND('',#62,.T.);
#27=FACE_BOUND('',#65,.T.);
#28=FACE_BOUND('',#67,.T.);
#29=FACE_BOUND('',#68,.T.);
#30=FACE_BOUND('',#69,.T.);
#31=FACE_BOUND('',#70,.T.);
#32=FACE_BOUND('',#72,.T.);
#33=FACE_BOUND('',#73,.T.);
#34=FACE_BOUND('',#74,.T.);
#35=FACE_BOUND('',#75,.T.);
#36=PLANE('',#293);
#37=PLANE('',#294);
#38=PLANE('',#295);
#39=PLANE('',#296);
#40=PLANE('',#297);
#41=PLANE('',#298);
#42=FACE_OUTER_BOUND('',#54,.T.);
#43=FACE_OUTER_BOUND('',#55,.T.);
#44=FACE_OUTER_BOUND('',#56,.T.);
#45=FACE_OUTER_BOUND('',#57,.T.);
#46=FACE_OUTER_BOUND('',#58,.T.);
#47=FACE_OUTER_BOUND('',#59,.T.);
#48=FACE_OUTER_BOUND('',#60,.T.);
#49=FACE_OUTER_BOUND('',#61,.T.);
#50=FACE_OUTER_BOUND('',#63,.T.);
#51=FACE_OUTER_BOUND('',#64,.T.);
#52=FACE_OUTER_BOUND('',#66,.T.);
#53=FACE_OUTER_BOUND('',#71,.T.);
#54=EDGE_LOOP('',(#174,#175,#176,#177));
#55=EDGE_LOOP('',(#178,#179,#180,#181));
#56=EDGE_LOOP('',(#182,#183,#184,#185));
#57=EDGE_LOOP('',(#186,#187,#188,#189));
#58=EDGE_LOOP('',(#190,#191,#192,#193));
#59=EDGE_LOOP('',(#194,#195,#196,#197));
#60=EDGE_LOOP('',(#198,#199,#200,#201));
#61=EDGE_LOOP('',(#202,#203,#204,#205));
#62=EDGE_LOOP('',(#206,#207));
#63=EDGE_LOOP('',(#208,#209,#210,#211));
#64=EDGE_LOOP('',(#212,#213,#214,#215));
#65=EDGE_LOOP('',(#216,#217));
#66=EDGE_LOOP('',(#218,#219,#220,#221));
#67=EDGE_LOOP('',(#222));
#68=EDGE_LOOP('',(#223));
#69=EDGE_LOOP('',(#224));
#70=EDGE_LOOP('',(#225));
#71=EDGE_LOOP('',(#226,#227,#228,#229));
#72=EDGE_LOOP('',(#230));
#73=EDGE_LOOP('',(#231));
#74=EDGE_LOOP('',(#232));
#75=EDGE_LOOP('',(#233));
#76=LINE('',#373,#94);
#77=LINE('',#376,#95);
#78=LINE('',#384,#96);
#79=LINE('',#390,#97);
#80=LINE('',#396,#98);
#81=LINE('',#402,#99);
#82=LINE('',#407,#100);
#83=LINE('',#409,#101);
#84=LINE('',#411,#102);
#85=LINE('',#412,#103);
#86=LINE('',#415,#104);
#87=LINE('',#417,#105);
#88=LINE('',#418,#106);
#89=LINE('',#421,#107);
#90=LINE('',#423,#108);
#91=LINE('',#424,#109);
#92=LINE('',#426,#110);
#93=LINE('',#427,#111);
#94=VECTOR('',#305,10.);
#95=VECTOR('',#308,10.);
#96=VECTOR('',#319,1.5);
#97=VECTOR('',#326,1.5);
#98=VECTOR('',#333,1.5);
#99=VECTOR('',#340,1.5);
#100=VECTOR('',#345,10.);
#101=VECTOR('',#346,10.);
#102=VECTOR('',#347,10.);
#103=VECTOR('',#348,10.);
#104=VECTOR('',#351,10.);
#105=VECTOR('',#352,10.);
#106=VECTOR('',#353,10.);
#107=VECTOR('',#356,10.);
#108=VECTOR('',#357,10.);
#109=VECTOR('',#358,10.);
#110=VECTOR('',#361,10.);
#111=VECTOR('',#362,10.);
#112=CIRCLE('',#276,5.);
#113=CIRCLE('',#277,5.);
#114=CIRCLE('',#279,5.);
#115=CIRCLE('',#280,5.);
#116=CIRCLE('',#282,1.5);
#117=CIRCLE('',#283,1.5);
#118=CIRCLE('',#285,1.5);
#119=CIRCLE('',#286,1.5);
#120=CIRCLE('',#288,1.5);
#121=CIRCLE('',#289,1.5);
#122=CIRCLE('',#291,1.5);
#123=CIRCLE('',#292,1.5);
#124=VERTEX_POINT('',#369);
#125=VERTEX_POINT('',#370);
#126=VERTEX_POINT('',#372);
#127=VERTEX_POINT('',#374);
#128=VERTEX_POINT('',#381);
#129=VERTEX_POINT('',#383);
#130=VERTEX_POINT('',#387);
#131=VERTEX_POINT('',#389);
#132=VERTEX_POINT('',#393);
#133=VERTEX_POINT('',#395);
#134=VERTEX_POINT('',#399);
#135=VERTEX_POINT('',#401);
#136=VERTEX_POINT('',#405);
#137=VERTEX_POINT('',#406);
#138=VERTEX_POINT('',#408);
#139=VERTEX_POINT('',#410);
#140=VERTEX_POINT('',#414);
#141=VERTEX_POINT('',#416);
#142=VERTEX_POINT('',#420);
#143=VERTEX_POINT('',#422);
#144=EDGE_CURVE('',#124,#125,#112,.T.);
#145=EDGE_CURVE('',#124,#126,#76,.T.);
#146=EDGE_CURVE('',#127,#126,#113,.T.);
#147=EDGE_CURVE('',#125,#127,#77,.T.);
#148=EDGE_CURVE('',#125,#124,#114,.T.);
#149=EDGE_CURVE('',#126,#127,#115,.T.);
#150=EDGE_CURVE('',#128,#128,#116,.T.);
#151=EDGE_CURVE('',#128,#129,#78,.T.);
#152=EDGE_CURVE('',#129,#129,#117,.T.);
#153=EDGE_CURVE('',#130,#130,#118,.T.);
#154=EDGE_CURVE('',#130,#131,#79,.T.);
#155=EDGE_CURVE('',#131,#131,#119,.T.);
#156=EDGE_CURVE('',#132,#132,#120,.T.);
#157=EDGE_CURVE('',#132,#133,#80,.T.);
#158=EDGE_CURVE('',#133,#133,#121,.T.);
#159=EDGE_CURVE('',#134,#134,#122,.T.);
#160=EDGE_CURVE('',#134,#135,#81,.T.);
#161=EDGE_CURVE('',#135,#135,#123,.T.);
#162=EDGE_CURVE('',#136,#137,#82,.T.);
#163=EDGE_CURVE('',#137,#138,#83,.T.);
#164=EDGE_CURVE('',#139,#138,#84,.T.);
#165=EDGE_CURVE('',#136,#139,#85,.T.);
#166=EDGE_CURVE('',#140,#136,#86,.T.);
#167=EDGE_CURVE('',#141,#139,#87,.T.);
#168=EDGE_CURVE('',#140,#141,#88,.T.);
#169=EDGE_CURVE('',#142,#140,#89,.T.);
#170=EDGE_CURVE('',#143,#141,#90,.T.);
#171=EDGE_CURVE('',#142,#143,#91,.T.);
#172=EDGE_CURVE('',#137,#142,#92,.T.);
#173=EDGE_CURVE('',#138,#143,#93,.T.);
#174=ORIENTED_EDGE('',*,*,#144,.F.);
#175=ORIENTED_EDGE('',*,*,#145,.T.);
#176=ORIENTED_EDGE('',*,*,#146,.F.);
#177=ORIENTED_EDGE('',*,*,#147,.F.);
#178=ORIENTED_EDGE('',*,*,#148,.F.);
#179=ORIENTED_EDGE('',*,*,#147,.T.);
#180=ORIENTED_EDGE('',*,*,#149,.F.);
#181=ORIENTED_EDGE('',*,*,#145,.F.);
#182=ORIENTED_EDGE('',*,*,#150,.F.);
#183=ORIENTED_EDGE('',*,*,#151,.T.);
#184=ORIENTED_EDGE('',*,*,#152,.F.);
#185=ORIENTED_EDGE('',*,*,#151,.F.);
#186=ORIENTED_EDGE('',*,*,#153,.F.);
#187=ORIENTED_EDGE('',*,*,#154,.T.);
#188=ORIENTED_EDGE('',*,*,#155,.F.);
#189=ORIENTED_EDGE('',*,*,#154,.F.);
#190=ORIENTED_EDGE('',*,*,#156,.F.);
#191=ORIENTED_EDGE('',*,*,#157,.T.);
#192=ORIENTED_EDGE('',*,*,#158,.F.);
#193=ORIENTED_EDGE('',*,*,#157,.F.);
#194=ORIENTED_EDGE('',*,*,#159,.F.);
#195=ORIENTED_EDGE('',*,*,#160,.T.);
#196=ORIENTED_EDGE('',*,*,#161,.F.);
#197=ORIENTED_EDGE('',*,*,#160,.F.);
#198=ORIENTED_EDGE('',*,*,#162,.T.);
#199=ORIENTED_EDGE('',*,*,#163,.T.);
#200=ORIENTED_EDGE('',*,*,#164,.F.);
#201=ORIENTED_EDGE('',*,*,#165,.F.);
#202=ORIENTED_EDGE('',*,*,#166,.T.);
#203=ORIENTED_EDGE('',*,*,#165,.T.);
#204=ORIENTED_EDGE('',*,*,#167,.F.);
#205=ORIENTED_EDGE('',*,*,#168,.F.);
#206=ORIENTED_EDGE('',*,*,#144,.T.);
#207=ORIENTED_EDGE('',*,*,#148,.T.);
#208=ORIENTED_EDGE('',*,*,#169,.T.);
#209=ORIENTED_EDGE('',*,*,#168,.T.);
#210=ORIENTED_EDGE('',*,*,#170,.F.);
#211=ORIENTED_EDGE('',*,*,#171,.F.);
#212=ORIENTED_EDGE('',*,*,#172,.T.);
#213=ORIENTED_EDGE('',*,*,#171,.T.);
#214=ORIENTED_EDGE('',*,*,#173,.F.);
#215=ORIENTED_EDGE('',*,*,#163,.F.);
#216=ORIENTED_EDGE('',*,*,#146,.T.);
#217=ORIENTED_EDGE('',*,*,#149,.T.);
#218=ORIENTED_EDGE('',*,*,#173,.T.);
#219=ORIENTED_EDGE('',*,*,#170,.T.);
#220=ORIENTED_EDGE('',*,*,#167,.T.);
#221=ORIENTED_EDGE('',*,*,#164,.T.);
#222=ORIENTED_EDGE('',*,*,#152,.T.);
#223=ORIENTED_EDGE('',*,*,#155,.T.);
#224=ORIENTED_EDGE('',*,*,#158,.T.);
#225=ORIENTED_EDGE('',*,*,#161,.T.);
#226=ORIENTED_EDGE('',*,*,#172,.F.);
#227=ORIENTED_EDGE('',*,*,#162,.F.);
#228=ORIENTED_EDGE('',*,*,#166,.F.);
#229=ORIENTED_EDGE('',*,*,#169,.F.);
#230=ORIENTED_EDGE('',*,*,#150,.T.);
#231=ORIENTED_EDGE('',*,*,#153,.T.);
#232=ORIENTED_EDGE('',*,*,#156,.T.);
#233=ORIENTED_EDGE('',*,*,#159,.T.);
#234=CYLINDRICAL_SURFACE('',#275,5.);
#235=CYLINDRICAL_SURFACE('',#278,5.);
#236=CYLINDRICAL_SURFACE('',#281,1.5);
#237=CYLINDRICAL_SURFACE('',#284,1.5);
#238=CYLINDRICAL_SURFACE('',#287,1.5);
#239=CYLINDRICAL_SURFACE('',#290,1.5);
#240=ADVANCED_FACE('',(#42),#234,.F.);
#241=ADVANCED_FACE('',(#43),#235,.F.);
#242=ADVANCED_FACE('',(#44),#236,.F.);
#243=ADVANCED_FACE('',(#45),#237,.F.);
#244=ADVANCED_FACE('',(#46),#238,.F.);
#245=ADVANCED_FACE('',(#47),#239,.F.);
#246=ADVANCED_FACE('',(#48),#36,.T.);
#247=ADVANCED_FACE('',(#49,#26),#37,.T.);
#248=ADVANCED_FACE('',(#50),#38,.T.);
#249=ADVANCED_FACE('',(#51,#27),#39,.T.);
#250=ADVANCED_FACE('',(#52,#28,#29,#30,#31),#40,.T.);
#251=ADVANCED_FACE('',(#53,#32,#33,#34,#35),#41,.F.);
#252=CLOSED_SHELL('',(#240,#241,#242,#243,#244,#245,#246,#247,#248,#249,
#250,#251));
#253=DERIVED_UNIT_ELEMENT(#256,1.);
#254=DERIVED_UNIT_ELEMENT(#446,-3.);
#255=DIMENSIONAL_EXPONENTS(0.,1.,0.,0.,0.,0.,0.);
#256=(
CONVERSION_BASED_UNIT('gram',#258)
MASS_UNIT()
NAMED_UNIT(#255)
);
#257=(
MASS_UNIT()
NAMED_UNIT(*)
SI_UNIT(.KILO.,.GRAM.)
);
#258=MASS_MEASURE_WITH_UNIT(MASS_MEASURE(0.001),#257);
#259=DERIVED_UNIT((#253,#254));
#260=MEASURE_REPRESENTATION_ITEM('density measure',
POSITIVE_RATIO_MEASURE(1.),#259);
#261=PROPERTY_DEFINITION_REPRESENTATION(#266,#263);
#262=PROPERTY_DEFINITION_REPRESENTATION(#267,#264);
#263=REPRESENTATION('material name',(#265),#443);
#264=REPRESENTATION('density',(#260),#443);
#265=DESCRIPTIVE_REPRESENTATION_ITEM('Generic','Generic');
#266=PROPERTY_DEFINITION('material property','material name',#453);
#267=PROPERTY_DEFINITION('material property','density of part',#453);
#268=DATE_TIME_ROLE('creation_date');
#269=APPLIED_DATE_AND_TIME_ASSIGNMENT(#270,#268,(#453));
#270=DATE_AND_TIME(#271,#272);
#271=CALENDAR_DATE(2025,15,4);
#272=LOCAL_TIME(0,0,0.,#273);
#273=COORDINATED_UNIVERSAL_TIME_OFFSET(0,0,.BEHIND.);
#274=AXIS2_PLACEMENT_3D('',#367,#299,#300);
#275=AXIS2_PLACEMENT_3D('',#368,#301,#302);
#276=AXIS2_PLACEMENT_3D('',#371,#303,#304);
#277=AXIS2_PLACEMENT_3D('',#375,#306,#307);
#278=AXIS2_PLACEMENT_3D('',#377,#309,#310);
#279=AXIS2_PLACEMENT_3D('',#378,#311,#312);
#280=AXIS2_PLACEMENT_3D('',#379,#313,#314);
#281=AXIS2_PLACEMENT_3D('',#380,#315,#316);
#282=AXIS2_PLACEMENT_3D('',#382,#317,#318);
#283=AXIS2_PLACEMENT_3D('',#385,#320,#321);
#284=AXIS2_PLACEMENT_3D('',#386,#322,#323);
#285=AXIS2_PLACEMENT_3D('',#388,#324,#325);
#286=AXIS2_PLACEMENT_3D('',#391,#327,#328);
#287=AXIS2_PLACEMENT_3D('',#392,#329,#330);
#288=AXIS2_PLACEMENT_3D('',#394,#331,#332);
#289=AXIS2_PLACEMENT_3D('',#397,#334,#335);
#290=AXIS2_PLACEMENT_3D('',#398,#336,#337);
#291=AXIS2_PLACEMENT_3D('',#400,#338,#339);
#292=AXIS2_PLACEMENT_3D('',#403,#341,#342);
#293=AXIS2_PLACEMENT_3D('',#404,#343,#344);
#294=AXIS2_PLACEMENT_3D('',#413,#349,#350);
#295=AXIS2_PLACEMENT_3D('',#419,#354,#355);
#296=AXIS2_PLACEMENT_3D('',#425,#359,#360);
#297=AXIS2_PLACEMENT_3D('',#428,#363,#364);
#298=AXIS2_PLACEMENT_3D('',#429,#365,#366);
#299=DIRECTION('axis',(0.,0.,1.));
#300=DIRECTION('refdir',(1.,0.,0.));
#301=DIRECTION('center_axis',(0.,-1.,0.));
#302=DIRECTION('ref_axis',(-1.,0.,5.55111512312578E-16));
#303=DIRECTION('center_axis',(0.,-1.,0.));
#304=DIRECTION('ref_axis',(0.6,0.,-0.8));
#305=DIRECTION('',(0.,-1.,0.));
#306=DIRECTION('center_axis',(5.55111512312578E-17,1.,0.));
#307=DIRECTION('ref_axis',(0.6,0.,-0.8));
#308=DIRECTION('',(0.,-1.,0.));
#309=DIRECTION('center_axis',(0.,-1.,0.));
#310=DIRECTION('ref_axis',(1.,0.,-5.55111512312578E-16));
#311=DIRECTION('center_axis',(0.,-1.,0.));
#312=DIRECTION('ref_axis',(-0.6,0.,0.8));
#313=DIRECTION('center_axis',(5.55111512312578E-17,1.,0.));
#314=DIRECTION('ref_axis',(-0.6,0.,0.8));
#315=DIRECTION('center_axis',(0.,0.,1.));
#316=DIRECTION('ref_axis',(1.,0.,0.));
#317=DIRECTION('center_axis',(0.,0.,1.));
#318=DIRECTION('ref_axis',(1.,0.,0.));
#319=DIRECTION('',(0.,0.,1.));
#320=DIRECTION('center_axis',(0.,0.,-1.));
#321=DIRECTION('ref_axis',(1.,0.,0.));
#322=DIRECTION('center_axis',(0.,0.,1.));
#323=DIRECTION('ref_axis',(1.,0.,0.));
#324=DIRECTION('center_axis',(0.,0.,1.));
#325=DIRECTION('ref_axis',(1.,0.,0.));
#326=DIRECTION('',(0.,0.,1.));
#327=DIRECTION('center_axis',(0.,0.,-1.));
#328=DIRECTION('ref_axis',(1.,0.,0.));
#329=DIRECTION('center_axis',(0.,0.,1.));
#330=DIRECTION('ref_axis',(1.,0.,0.));
#331=DIRECTION('center_axis',(0.,0.,1.));
#332=DIRECTION('ref_axis',(1.,0.,0.));
#333=DIRECTION('',(0.,0.,1.));
#334=DIRECTION('center_axis',(0.,0.,-1.));
#335=DIRECTION('ref_axis',(1.,0.,0.));
#336=DIRECTION('center_axis',(0.,0.,1.));
#337=DIRECTION('ref_axis',(1.,0.,0.));
#338=DIRECTION('center_axis',(0.,0.,1.));
#339=DIRECTION('ref_axis',(1.,0.,0.));
#340=DIRECTION('',(0.,0.,1.));
#341=DIRECTION('center_axis',(0.,0.,-1.));
#342=DIRECTION('ref_axis',(1.,0.,0.));
#343=DIRECTION('center_axis',(-1.,0.,0.));
#344=DIRECTION('ref_axis',(0.,-1.,0.));
#345=DIRECTION('',(0.,-1.,0.));
#346=DIRECTION('',(0.,0.,1.));
#347=DIRECTION('',(0.,-1.,0.));
#348=DIRECTION('',(0.,0.,1.));
#349=DIRECTION('center_axis',(0.,1.,0.));
#350=DIRECTION('ref_axis',(-1.,0.,0.));
#351=DIRECTION('',(-1.,0.,0.));
#352=DIRECTION('',(-1.,0.,0.));
#353=DIRECTION('',(0.,0.,1.));
#354=DIRECTION('center_axis',(1.,-2.22044604925032E-16,0.));
#355=DIRECTION('ref_axis',(2.22044604925032E-16,1.,0.));
#356=DIRECTION('',(2.22044604925032E-16,1.,0.));
#357=DIRECTION('',(2.22044604925032E-16,1.,0.));
#358=DIRECTION('',(0.,0.,1.));
#359=DIRECTION('center_axis',(-5.55111512312578E-17,-1.,0.));
#360=DIRECTION('ref_axis',(1.,-5.55111512312578E-17,0.));
#361=DIRECTION('',(1.,-5.55111512312578E-17,0.));
#362=DIRECTION('',(1.,-5.55111512312578E-17,0.));
#363=DIRECTION('center_axis',(0.,0.,1.));
#364=DIRECTION('ref_axis',(1.,0.,0.));
#365=DIRECTION('center_axis',(0.,0.,1.));
#366=DIRECTION('ref_axis',(1.,0.,0.));
#367=CARTESIAN_POINT('',(0.,0.,0.));
#368=CARTESIAN_POINT('Origin',(-43.,9.99999999999999,6.35));
#369=CARTESIAN_POINT('',(-40.,9.99999999999999,10.35));
#370=CARTESIAN_POINT('',(-40.,9.99999999999999,2.35));
#371=CARTESIAN_POINT('Origin',(-43.,9.99999999999999,6.35));
#372=CARTESIAN_POINT('',(-40.,-8.88178419700125E-15,10.35));
#373=CARTESIAN_POINT('',(-40.,9.99999999999999,10.35));
#374=CARTESIAN_POINT('',(-40.,-8.88178419700125E-15,2.35));
#375=CARTESIAN_POINT('Origin',(-43.,4.44089209850063E-15,6.35));
#376=CARTESIAN_POINT('',(-40.,9.99999999999999,2.35));
#377=CARTESIAN_POINT('Origin',(-37.,9.99999999999999,6.35));
#378=CARTESIAN_POINT('Origin',(-37.,9.99999999999999,6.35));
#379=CARTESIAN_POINT('Origin',(-37.,4.44089209850063E-15,6.35));
#380=CARTESIAN_POINT('Origin',(-75.0000000000001,5.,81.61672622692));
#381=CARTESIAN_POINT('',(-76.5000000000001,5.,0.));
#382=CARTESIAN_POINT('Origin',(-75.0000000000001,5.,0.));
#383=CARTESIAN_POINT('',(-76.5000000000001,5.,12.7));
#384=CARTESIAN_POINT('',(-76.5000000000001,5.,81.61672622692));
#385=CARTESIAN_POINT('Origin',(-75.0000000000001,5.,12.7));
#386=CARTESIAN_POINT('Origin',(-60.0000000000001,5.,81.61672622692));
#387=CARTESIAN_POINT('',(-61.5000000000001,5.,0.));
#388=CARTESIAN_POINT('Origin',(-60.0000000000001,5.,0.));
#389=CARTESIAN_POINT('',(-61.5000000000001,5.,12.7));
#390=CARTESIAN_POINT('',(-61.5000000000001,5.,81.61672622692));
#391=CARTESIAN_POINT('Origin',(-60.0000000000001,5.,12.7));
#392=CARTESIAN_POINT('Origin',(-20.,5.,81.61672622692));
#393=CARTESIAN_POINT('',(-21.5,5.,0.));
#394=CARTESIAN_POINT('Origin',(-20.,5.,0.));
#395=CARTESIAN_POINT('',(-21.5,5.,12.7));
#396=CARTESIAN_POINT('',(-21.5,5.,81.61672622692));
#397=CARTESIAN_POINT('Origin',(-20.,5.,12.7));
#398=CARTESIAN_POINT('Origin',(-5.,5.,81.61672622692));
#399=CARTESIAN_POINT('',(-6.5,5.,0.));
#400=CARTESIAN_POINT('Origin',(-5.,5.,0.));
#401=CARTESIAN_POINT('',(-6.5,5.,12.7));
#402=CARTESIAN_POINT('',(-6.5,5.,81.61672622692));
#403=CARTESIAN_POINT('Origin',(-5.,5.,12.7));
#404=CARTESIAN_POINT('Origin',(-80.0000000000001,9.99999999999999,0.));
#405=CARTESIAN_POINT('',(-80.0000000000001,9.99999999999999,0.));
#406=CARTESIAN_POINT('',(-80.0000000000001,4.44089209850063E-15,0.));
#407=CARTESIAN_POINT('',(-80.0000000000001,9.99999999999999,0.));
#408=CARTESIAN_POINT('',(-80.0000000000001,4.44089209850063E-15,12.7));
#409=CARTESIAN_POINT('',(-80.0000000000001,4.44089209850063E-15,0.));
#410=CARTESIAN_POINT('',(-80.0000000000001,9.99999999999999,12.7));
#411=CARTESIAN_POINT('',(-80.0000000000001,9.99999999999999,12.7));
#412=CARTESIAN_POINT('',(-80.0000000000001,9.99999999999999,0.));
#413=CARTESIAN_POINT('Origin',(2.22044604925031E-15,9.99999999999999,0.));
#414=CARTESIAN_POINT('',(2.22044604925031E-15,9.99999999999999,0.));
#415=CARTESIAN_POINT('',(0.,9.99999999999999,0.));
#416=CARTESIAN_POINT('',(0.,9.99999999999999,12.7));
#417=CARTESIAN_POINT('',(0.,9.99999999999999,12.7));
#418=CARTESIAN_POINT('',(2.22044604925031E-15,9.99999999999999,0.));
#419=CARTESIAN_POINT('Origin',(0.,0.,0.));
#420=CARTESIAN_POINT('',(0.,0.,0.));
#421=CARTESIAN_POINT('',(0.,0.,0.));
#422=CARTESIAN_POINT('',(0.,0.,12.7));
#423=CARTESIAN_POINT('',(0.,0.,12.7));
#424=CARTESIAN_POINT('',(0.,0.,0.));
#425=CARTESIAN_POINT('Origin',(-80.0000000000001,4.44089209850063E-15,0.));
#426=CARTESIAN_POINT('',(-80.0000000000001,4.44089209850063E-15,0.));
#427=CARTESIAN_POINT('',(-80.0000000000001,4.44089209850063E-15,12.7));
#428=CARTESIAN_POINT('Origin',(-40.,5.,12.7));
#429=CARTESIAN_POINT('Origin',(-40.,5.,0.));
#430=CARTESIAN_POINT('polyline point',(-80.0000000000001,9.99999999999999,
0.));
#431=CARTESIAN_POINT('polyline point',(2.22044604925031E-15,9.99999999999999,
0.));
#432=CARTESIAN_POINT('polyline point',(2.22044604925031E-15,9.99999999999999,
0.));
#433=CARTESIAN_POINT('polyline point',(0.,0.,0.));
#434=CARTESIAN_POINT('polyline point',(0.,0.,0.));
#435=CARTESIAN_POINT('polyline point',(-80.0000000000001,4.44089209850063E-15,
0.));
#436=CARTESIAN_POINT('polyline point',(-80.0000000000001,4.44089209850063E-15,
0.));
#437=CARTESIAN_POINT('polyline point',(-80.0000000000001,9.99999999999999,
0.));
#438=CARTESIAN_POINT('',(0.,0.,0.));
#439=CARTESIAN_POINT('',(-5.,5.,0.));
#440=CARTESIAN_POINT('',(-20.,5.,0.));
#441=UNCERTAINTY_MEASURE_WITH_UNIT(LENGTH_MEASURE(0.01),#445,
'DISTANCE_ACCURACY_VALUE',
'Maximum model space distance between geometric entities at asserted c
onnectivities');
#442=UNCERTAINTY_MEASURE_WITH_UNIT(LENGTH_MEASURE(0.01),#445,
'DISTANCE_ACCURACY_VALUE',
'Maximum model space distance between geometric entities at asserted c
onnectivities');
#443=(
GEOMETRIC_REPRESENTATION_CONTEXT(3)
GLOBAL_UNCERTAINTY_ASSIGNED_CONTEXT((#441))
GLOBAL_UNIT_ASSIGNED_CONTEXT((#445,#447,#448))
REPRESENTATION_CONTEXT('','3D')
);
#444=(
GEOMETRIC_REPRESENTATION_CONTEXT(3)
GLOBAL_UNCERTAINTY_ASSIGNED_CONTEXT((#442))
GLOBAL_UNIT_ASSIGNED_CONTEXT((#445,#447,#448))
REPRESENTATION_CONTEXT('','3D')
);
#445=(
LENGTH_UNIT()
NAMED_UNIT(*)
SI_UNIT(.MILLI.,.METRE.)
);
#446=(
LENGTH_UNIT()
NAMED_UNIT(*)
SI_UNIT(.CENTI.,.METRE.)
);
#447=(
NAMED_UNIT(*)
PLANE_ANGLE_UNIT()
SI_UNIT($,.RADIAN.)
);
#448=(
NAMED_UNIT(*)
SI_UNIT($,.STERADIAN.)
SOLID_ANGLE_UNIT()
);
#449=SHAPE_DEFINITION_REPRESENTATION(#450,#451);
#450=PRODUCT_DEFINITION_SHAPE('',$,#453);
#451=SHAPE_REPRESENTATION('',(#274),#443);
#452=PRODUCT_DEFINITION_CONTEXT('part definition',#457,'design');
#453=PRODUCT_DEFINITION('load_cell','load_cell',#454,#452);
#454=PRODUCT_DEFINITION_FORMATION('',$,#459);
#455=PRODUCT_RELATED_PRODUCT_CATEGORY('load_cell','load_cell',(#459));
#456=APPLICATION_PROTOCOL_DEFINITION('international standard',
'automotive_design',2009,#457);
#457=APPLICATION_CONTEXT(
'Core Data for Automotive Mechanical Design Process');
#458=PRODUCT_CONTEXT('part definition',#457,'mechanical');
#459=PRODUCT('load_cell','load_cell',$,(#458));
#460=PRESENTATION_STYLE_ASSIGNMENT((#463));
#461=PRESENTATION_STYLE_ASSIGNMENT((#464));
#462=PRESENTATION_STYLE_ASSIGNMENT((#465));
#463=SURFACE_STYLE_USAGE(.BOTH.,#468);
#464=SURFACE_STYLE_USAGE(.BOTH.,#469);
#465=SURFACE_STYLE_USAGE(.BOTH.,#470);
#466=SURFACE_STYLE_RENDERING_WITH_PROPERTIES($,#480,(#467));
#467=SURFACE_STYLE_TRANSPARENT(0.);
#468=SURFACE_SIDE_STYLE('',(#471,#466));
#469=SURFACE_SIDE_STYLE('',(#472));
#470=SURFACE_SIDE_STYLE('',(#473));
#471=SURFACE_STYLE_FILL_AREA(#474);
#472=SURFACE_STYLE_FILL_AREA(#475);
#473=SURFACE_STYLE_FILL_AREA(#476);
#474=FILL_AREA_STYLE('',(#477));
#475=FILL_AREA_STYLE('',(#478));
#476=FILL_AREA_STYLE('',(#479));
#477=FILL_AREA_STYLE_COLOUR('',#480);
#478=FILL_AREA_STYLE_COLOUR('',#481);
#479=FILL_AREA_STYLE_COLOUR('',#482);
#480=COLOUR_RGB('',0.749019607843137,0.749019607843137,0.749019607843137);
#481=COLOUR_RGB('',0.913725490196078,0.913725490196078,0.);
#482=COLOUR_RGB('',1.,1.,1.);
ENDSEC;
END-ISO-10303-21;
