ISO-10303-21;
HEADER;
/* Generated by software containing ST-Developer
 * from STEP Tools, Inc. (www.steptools.com) 
 */

FILE_DESCRIPTION(
/* description */ (''),
/* implementation_level */ '2;1');

FILE_NAME(
/* name */ 'load_cell_holder.stp',
/* time_stamp */ '2026-04-07T10:57:40+02:00',
/* author */ ('Paul Juschitz'),
/* organization */ (''),
/* preprocessor_version */ 'ST-DEVELOPER v20.1',
/* originating_system */ 'Autodesk Inventor 2026',
/* authorisation */ '');

FILE_SCHEMA (('AUTOMOTIVE_DESIGN { 1 0 10303 214 3 1 1 }'));
ENDSEC;

DATA;
#10=MECHANICAL_DESIGN_GEOMETRIC_PRESENTATION_REPRESENTATION('',(#17,#18),
#1981);
#11=GEOMETRICALLY_BOUNDED_WIREFRAME_SHAPE_REPRESENTATION('',(#12,#13),#1980);
#12=GEOMETRIC_CURVE_SET('Sketch10',(#1976));
#13=GEOMETRIC_CURVE_SET('Sketch15',(#1977));
#14=SHAPE_REPRESENTATION_RELATIONSHIP('SRR','None',#1988,#16);
#15=SHAPE_REPRESENTATION_RELATIONSHIP('SRR','None',#1988,#11);
#16=ADVANCED_BREP_SHAPE_REPRESENTATION('',(#19,#20),#1980);
#17=STYLED_ITEM('',(#1997),#19);
#18=STYLED_ITEM('',(#1997),#20);
#19=MANIFOLD_SOLID_BREP('Solid1',#1125);
#20=MANIFOLD_SOLID_BREP('Solid1',#1126);
#21=B_SPLINE_SURFACE_WITH_KNOTS('',3,3,((#1716,#1717,#1718,#1719),(#1720,
#1721,#1722,#1723),(#1724,#1725,#1726,#1727),(#1728,#1729,#1730,#1731)),
 .UNSPECIFIED.,.F.,.F.,.F.,(4,4),(4,4),(0.,1.),(0.,1.),.UNSPECIFIED.);
#22=B_SPLINE_SURFACE_WITH_KNOTS('',3,3,((#1735,#1736,#1737,#1738),(#1739,
#1740,#1741,#1742),(#1743,#1744,#1745,#1746),(#1747,#1748,#1749,#1750)),
 .UNSPECIFIED.,.F.,.F.,.F.,(4,4),(4,4),(0.,1.),(0.,1.),.UNSPECIFIED.);
#23=B_SPLINE_SURFACE_WITH_KNOTS('',3,3,((#1759,#1760,#1761,#1762),(#1763,
#1764,#1765,#1766),(#1767,#1768,#1769,#1770),(#1771,#1772,#1773,#1774)),
 .UNSPECIFIED.,.F.,.F.,.F.,(4,4),(4,4),(0.,1.),(0.,1.),.UNSPECIFIED.);
#24=B_SPLINE_SURFACE_WITH_KNOTS('',3,3,((#1778,#1779,#1780,#1781),(#1782,
#1783,#1784,#1785),(#1786,#1787,#1788,#1789),(#1790,#1791,#1792,#1793)),
 .UNSPECIFIED.,.F.,.F.,.F.,(4,4),(4,4),(0.,1.),(0.,1.),.UNSPECIFIED.);
#25=B_SPLINE_SURFACE_WITH_KNOTS('',3,3,((#1806,#1807,#1808,#1809),(#1810,
#1811,#1812,#1813),(#1814,#1815,#1816,#1817),(#1818,#1819,#1820,#1821)),
 .UNSPECIFIED.,.F.,.F.,.F.,(4,4),(4,4),(0.,1.),(0.,1.),.UNSPECIFIED.);
#26=B_SPLINE_SURFACE_WITH_KNOTS('',3,3,((#1826,#1827,#1828,#1829),(#1830,
#1831,#1832,#1833),(#1834,#1835,#1836,#1837),(#1838,#1839,#1840,#1841)),
 .UNSPECIFIED.,.F.,.F.,.F.,(4,4),(4,4),(0.,1.),(0.,1.),.UNSPECIFIED.);
#27=TOROIDAL_SURFACE('',#1173,5.6894686228646,1.25);
#28=TOROIDAL_SURFACE('',#1174,3.19775301034721,1.25);
#29=TOROIDAL_SURFACE('',#1176,71.1850477751045,6.13296019011727);
#30=FACE_BOUND('',#172,.T.);
#31=FACE_BOUND('',#175,.T.);
#32=FACE_BOUND('',#215,.T.);
#33=FACE_BOUND('',#218,.T.);
#34=FACE_BOUND('',#219,.T.);
#35=FACE_BOUND('',#222,.T.);
#36=FACE_BOUND('',#223,.T.);
#37=FACE_BOUND('',#226,.T.);
#38=FACE_BOUND('',#227,.T.);
#39=FACE_BOUND('',#229,.T.);
#40=FACE_BOUND('',#230,.T.);
#41=FACE_BOUND('',#238,.T.);
#42=B_SPLINE_CURVE_WITH_KNOTS('',3,(#1549,#1550,#1551,#1552,#1553,#1554),
 .UNSPECIFIED.,.F.,.F.,(4,2,4),(0.784093613493426,0.895164842552132,1.06409138749867),
 .UNSPECIFIED.);
#43=B_SPLINE_CURVE_WITH_KNOTS('',3,(#1557,#1558,#1559,#1560,#1561,#1562),
 .UNSPECIFIED.,.F.,.F.,(4,2,4),(0.0324858680220029,0.201412412968543,0.312483642027249),
 .UNSPECIFIED.);
#44=B_SPLINE_CURVE_WITH_KNOTS('',3,(#1573,#1574,#1575,#1576),
 .UNSPECIFIED.,.F.,.F.,(4,4),(-1.,0.),.UNSPECIFIED.);
#45=B_SPLINE_CURVE_WITH_KNOTS('',3,(#1588,#1589,#1590,#1591),
 .UNSPECIFIED.,.F.,.F.,(4,4),(0.,1.),.UNSPECIFIED.);
#46=B_SPLINE_CURVE_WITH_KNOTS('',3,(#1600,#1601,#1602,#1603,#1604,#1605,
#1606,#1607,#1608,#1609,#1610,#1611),.UNSPECIFIED.,.F.,.F.,(4,2,2,2,2,4),
(0.199573520277542,0.262250390015677,0.333787567024521,0.396567291756254,
0.417334388482456,0.433229031040134),.UNSPECIFIED.);
#47=B_SPLINE_CURVE_WITH_KNOTS('',3,(#1612,#1613,#1614,#1615,#1616,#1617,
#1618,#1619,#1620,#1621,#1622,#1623),.UNSPECIFIED.,.F.,.F.,(4,2,2,2,2,4),
(0.433229031040134,0.449123673597811,0.469890770324013,0.532670495055746,
0.60420767206459,0.666884541802725),.UNSPECIFIED.);
#48=B_SPLINE_CURVE_WITH_KNOTS('',3,(#1639,#1640,#1641,#1642,#1643,#1644,
#1645,#1646,#1647,#1648,#1649,#1650,#1651),.UNSPECIFIED.,.F.,.F.,(4,3,2,
2,2,4),(-0.0455561836525912,0.,0.113243134611426,0.226486269222852,0.340171504708326,
0.354609515524355),.UNSPECIFIED.);
#49=B_SPLINE_CURVE_WITH_KNOTS('',3,(#1655,#1656,#1657,#1658,#1659,#1660,
#1661,#1662,#1663,#1664,#1665,#1666,#1667),.UNSPECIFIED.,.F.,.F.,(4,2,2,
2,3,4),(-0.354609515524355,-0.340171504708326,-0.226486269222852,-0.113243134611426,
0.,0.0455561836525884),.UNSPECIFIED.);
#50=PLANE('',#1162);
#51=PLANE('',#1167);
#52=PLANE('',#1179);
#53=PLANE('',#1180);
#54=PLANE('',#1181);
#55=PLANE('',#1182);
#56=PLANE('',#1183);
#57=PLANE('',#1184);
#58=PLANE('',#1185);
#59=PLANE('',#1186);
#60=PLANE('',#1187);
#61=PLANE('',#1188);
#62=PLANE('',#1189);
#63=PLANE('',#1190);
#64=PLANE('',#1191);
#65=PLANE('',#1192);
#66=PLANE('',#1193);
#67=PLANE('',#1194);
#68=PLANE('',#1195);
#69=PLANE('',#1196);
#70=PLANE('',#1197);
#71=PLANE('',#1198);
#72=PLANE('',#1199);
#73=PLANE('',#1200);
#74=PLANE('',#1201);
#75=PLANE('',#1202);
#76=PLANE('',#1203);
#77=PLANE('',#1204);
#78=PLANE('',#1205);
#79=PLANE('',#1206);
#80=PLANE('',#1207);
#81=PLANE('',#1208);
#82=PLANE('',#1209);
#83=PLANE('',#1210);
#84=PLANE('',#1211);
#85=PLANE('',#1212);
#86=PLANE('',#1213);
#87=PLANE('',#1216);
#88=PLANE('',#1219);
#89=PLANE('',#1220);
#90=PLANE('',#1221);
#91=PLANE('',#1222);
#92=PLANE('',#1227);
#93=ELLIPSE('',#1160,2.17930849452637,1.25);
#94=ELLIPSE('',#1163,17.6225133995019,1.25);
#95=ELLIPSE('',#1165,1.52596823595182,1.25);
#96=CYLINDRICAL_SURFACE('',#1152,2.);
#97=CYLINDRICAL_SURFACE('',#1157,2.);
#98=CYLINDRICAL_SURFACE('',#1159,1.25);
#99=CYLINDRICAL_SURFACE('',#1164,1.25);
#100=CYLINDRICAL_SURFACE('',#1168,1.25);
#101=CYLINDRICAL_SURFACE('',#1223,1.5);
#102=CYLINDRICAL_SURFACE('',#1225,2.);
#103=CYLINDRICAL_SURFACE('',#1228,1.25);
#104=FACE_OUTER_BOUND('',#166,.T.);
#105=FACE_OUTER_BOUND('',#167,.T.);
#106=FACE_OUTER_BOUND('',#168,.T.);
#107=FACE_OUTER_BOUND('',#169,.T.);
#108=FACE_OUTER_BOUND('',#170,.T.);
#109=FACE_OUTER_BOUND('',#171,.T.);
#110=FACE_OUTER_BOUND('',#173,.T.);
#111=FACE_OUTER_BOUND('',#174,.T.);
#112=FACE_OUTER_BOUND('',#176,.T.);
#113=FACE_OUTER_BOUND('',#177,.T.);
#114=FACE_OUTER_BOUND('',#178,.T.);
#115=FACE_OUTER_BOUND('',#179,.T.);
#116=FACE_OUTER_BOUND('',#180,.T.);
#117=FACE_OUTER_BOUND('',#181,.T.);
#118=FACE_OUTER_BOUND('',#182,.T.);
#119=FACE_OUTER_BOUND('',#183,.T.);
#120=FACE_OUTER_BOUND('',#184,.T.);
#121=FACE_OUTER_BOUND('',#185,.T.);
#122=FACE_OUTER_BOUND('',#186,.T.);
#123=FACE_OUTER_BOUND('',#187,.T.);
#124=FACE_OUTER_BOUND('',#188,.T.);
#125=FACE_OUTER_BOUND('',#189,.T.);
#126=FACE_OUTER_BOUND('',#190,.T.);
#127=FACE_OUTER_BOUND('',#191,.T.);
#128=FACE_OUTER_BOUND('',#192,.T.);
#129=FACE_OUTER_BOUND('',#193,.T.);
#130=FACE_OUTER_BOUND('',#194,.T.);
#131=FACE_OUTER_BOUND('',#195,.T.);
#132=FACE_OUTER_BOUND('',#196,.T.);
#133=FACE_OUTER_BOUND('',#197,.T.);
#134=FACE_OUTER_BOUND('',#198,.T.);
#135=FACE_OUTER_BOUND('',#199,.T.);
#136=FACE_OUTER_BOUND('',#200,.T.);
#137=FACE_OUTER_BOUND('',#201,.T.);
#138=FACE_OUTER_BOUND('',#202,.T.);
#139=FACE_OUTER_BOUND('',#203,.T.);
#140=FACE_OUTER_BOUND('',#204,.T.);
#141=FACE_OUTER_BOUND('',#205,.T.);
#142=FACE_OUTER_BOUND('',#206,.T.);
#143=FACE_OUTER_BOUND('',#207,.T.);
#144=FACE_OUTER_BOUND('',#208,.T.);
#145=FACE_OUTER_BOUND('',#209,.T.);
#146=FACE_OUTER_BOUND('',#210,.T.);
#147=FACE_OUTER_BOUND('',#211,.T.);
#148=FACE_OUTER_BOUND('',#212,.T.);
#149=FACE_OUTER_BOUND('',#213,.T.);
#150=FACE_OUTER_BOUND('',#214,.T.);
#151=FACE_OUTER_BOUND('',#216,.T.);
#152=FACE_OUTER_BOUND('',#217,.T.);
#153=FACE_OUTER_BOUND('',#220,.T.);
#154=FACE_OUTER_BOUND('',#221,.T.);
#155=FACE_OUTER_BOUND('',#224,.T.);
#156=FACE_OUTER_BOUND('',#225,.T.);
#157=FACE_OUTER_BOUND('',#228,.T.);
#158=FACE_OUTER_BOUND('',#231,.T.);
#159=FACE_OUTER_BOUND('',#232,.T.);
#160=FACE_OUTER_BOUND('',#233,.T.);
#161=FACE_OUTER_BOUND('',#234,.T.);
#162=FACE_OUTER_BOUND('',#235,.T.);
#163=FACE_OUTER_BOUND('',#236,.T.);
#164=FACE_OUTER_BOUND('',#237,.T.);
#165=FACE_OUTER_BOUND('',#239,.T.);
#166=EDGE_LOOP('',(#753,#754,#755,#756));
#167=EDGE_LOOP('',(#757,#758,#759,#760));
#168=EDGE_LOOP('',(#761,#762,#763,#764));
#169=EDGE_LOOP('',(#765,#766,#767,#768));
#170=EDGE_LOOP('',(#769,#770));
#171=EDGE_LOOP('',(#771,#772,#773,#774));
#172=EDGE_LOOP('',(#775,#776,#777,#778));
#173=EDGE_LOOP('',(#779,#780));
#174=EDGE_LOOP('',(#781,#782,#783,#784,#785,#786,#787,#788,#789,#790,#791,
#792));
#175=EDGE_LOOP('',(#793,#794,#795));
#176=EDGE_LOOP('',(#796,#797,#798,#799,#800,#801,#802));
#177=EDGE_LOOP('',(#803,#804,#805,#806,#807));
#178=EDGE_LOOP('',(#808,#809,#810,#811,#812,#813,#814));
#179=EDGE_LOOP('',(#815,#816,#817,#818));
#180=EDGE_LOOP('',(#819,#820,#821,#822,#823,#824,#825,#826));
#181=EDGE_LOOP('',(#827,#828,#829,#830));
#182=EDGE_LOOP('',(#831,#832,#833,#834));
#183=EDGE_LOOP('',(#835,#836,#837,#838));
#184=EDGE_LOOP('',(#839,#840,#841,#842));
#185=EDGE_LOOP('',(#843,#844,#845,#846));
#186=EDGE_LOOP('',(#847,#848,#849,#850,#851,#852,#853,#854));
#187=EDGE_LOOP('',(#855,#856,#857));
#188=EDGE_LOOP('',(#858,#859,#860,#861));
#189=EDGE_LOOP('',(#862,#863,#864,#865));
#190=EDGE_LOOP('',(#866,#867,#868,#869,#870));
#191=EDGE_LOOP('',(#871,#872,#873,#874));
#192=EDGE_LOOP('',(#875,#876,#877));
#193=EDGE_LOOP('',(#878,#879,#880,#881));
#194=EDGE_LOOP('',(#882,#883,#884,#885));
#195=EDGE_LOOP('',(#886,#887,#888,#889,#890));
#196=EDGE_LOOP('',(#891,#892,#893,#894));
#197=EDGE_LOOP('',(#895,#896,#897,#898,#899,#900));
#198=EDGE_LOOP('',(#901,#902,#903,#904));
#199=EDGE_LOOP('',(#905,#906,#907,#908,#909));
#200=EDGE_LOOP('',(#910,#911,#912,#913,#914));
#201=EDGE_LOOP('',(#915,#916,#917,#918));
#202=EDGE_LOOP('',(#919,#920,#921,#922,#923,#924));
#203=EDGE_LOOP('',(#925,#926,#927,#928));
#204=EDGE_LOOP('',(#929,#930,#931,#932));
#205=EDGE_LOOP('',(#933,#934,#935,#936,#937,#938,#939,#940));
#206=EDGE_LOOP('',(#941,#942,#943,#944,#945,#946,#947));
#207=EDGE_LOOP('',(#948,#949,#950,#951));
#208=EDGE_LOOP('',(#952,#953,#954,#955,#956,#957,#958));
#209=EDGE_LOOP('',(#959,#960,#961,#962));
#210=EDGE_LOOP('',(#963,#964,#965,#966,#967,#968));
#211=EDGE_LOOP('',(#969,#970,#971,#972));
#212=EDGE_LOOP('',(#973,#974,#975,#976,#977,#978));
#213=EDGE_LOOP('',(#979,#980,#981,#982));
#214=EDGE_LOOP('',(#983,#984,#985,#986));
#215=EDGE_LOOP('',(#987,#988,#989,#990));
#216=EDGE_LOOP('',(#991,#992,#993,#994));
#217=EDGE_LOOP('',(#995,#996,#997,#998,#999,#1000,#1001,#1002));
#218=EDGE_LOOP('',(#1003));
#219=EDGE_LOOP('',(#1004));
#220=EDGE_LOOP('',(#1005,#1006,#1007,#1008));
#221=EDGE_LOOP('',(#1009,#1010,#1011,#1012));
#222=EDGE_LOOP('',(#1013));
#223=EDGE_LOOP('',(#1014));
#224=EDGE_LOOP('',(#1015,#1016,#1017,#1018));
#225=EDGE_LOOP('',(#1019,#1020,#1021,#1022));
#226=EDGE_LOOP('',(#1023));
#227=EDGE_LOOP('',(#1024));
#228=EDGE_LOOP('',(#1025,#1026,#1027,#1028));
#229=EDGE_LOOP('',(#1029));
#230=EDGE_LOOP('',(#1030));
#231=EDGE_LOOP('',(#1031,#1032,#1033,#1034));
#232=EDGE_LOOP('',(#1035,#1036,#1037,#1038));
#233=EDGE_LOOP('',(#1039,#1040,#1041,#1042));
#234=EDGE_LOOP('',(#1043,#1044,#1045,#1046));
#235=EDGE_LOOP('',(#1047,#1048,#1049,#1050));
#236=EDGE_LOOP('',(#1051,#1052,#1053,#1054));
#237=EDGE_LOOP('',(#1055));
#238=EDGE_LOOP('',(#1056));
#239=EDGE_LOOP('',(#1057,#1058,#1059,#1060));
#240=LINE('',#1518,#362);
#241=LINE('',#1522,#363);
#242=LINE('',#1528,#364);
#243=LINE('',#1532,#365);
#244=LINE('',#1542,#366);
#245=LINE('',#1544,#367);
#246=LINE('',#1546,#368);
#247=LINE('',#1547,#369);
#248=LINE('',#1571,#370);
#249=LINE('',#1578,#371);
#250=LINE('',#1580,#372);
#251=LINE('',#1582,#373);
#252=LINE('',#1584,#374);
#253=LINE('',#1586,#375);
#254=LINE('',#1593,#376);
#255=LINE('',#1595,#377);
#256=LINE('',#1597,#378);
#257=LINE('',#1598,#379);
#258=LINE('',#1629,#380);
#259=LINE('',#1671,#381);
#260=LINE('',#1673,#382);
#261=LINE('',#1675,#383);
#262=LINE('',#1677,#384);
#263=LINE('',#1679,#385);
#264=LINE('',#1681,#386);
#265=LINE('',#1682,#387);
#266=LINE('',#1685,#388);
#267=LINE('',#1686,#389);
#268=LINE('',#1689,#390);
#269=LINE('',#1690,#391);
#270=LINE('',#1693,#392);
#271=LINE('',#1695,#393);
#272=LINE('',#1696,#394);
#273=LINE('',#1699,#395);
#274=LINE('',#1701,#396);
#275=LINE('',#1702,#397);
#276=LINE('',#1704,#398);
#277=LINE('',#1706,#399);
#278=LINE('',#1707,#400);
#279=LINE('',#1709,#401);
#280=LINE('',#1711,#402);
#281=LINE('',#1712,#403);
#282=LINE('',#1714,#404);
#283=LINE('',#1715,#405);
#284=LINE('',#1732,#406);
#285=LINE('',#1734,#407);
#286=LINE('',#1752,#408);
#287=LINE('',#1754,#409);
#288=LINE('',#1755,#410);
#289=LINE('',#1757,#411);
#290=LINE('',#1758,#412);
#291=LINE('',#1775,#413);
#292=LINE('',#1777,#414);
#293=LINE('',#1796,#415);
#294=LINE('',#1798,#416);
#295=LINE('',#1799,#417);
#296=LINE('',#1802,#418);
#297=LINE('',#1804,#419);
#298=LINE('',#1805,#420);
#299=LINE('',#1823,#421);
#300=LINE('',#1824,#422);
#301=LINE('',#1825,#423);
#302=LINE('',#1843,#424);
#303=LINE('',#1845,#425);
#304=LINE('',#1847,#426);
#305=LINE('',#1848,#427);
#306=LINE('',#1851,#428);
#307=LINE('',#1853,#429);
#308=LINE('',#1854,#430);
#309=LINE('',#1856,#431);
#310=LINE('',#1857,#432);
#311=LINE('',#1861,#433);
#312=LINE('',#1862,#434);
#313=LINE('',#1863,#435);
#314=LINE('',#1867,#436);
#315=LINE('',#1868,#437);
#316=LINE('',#1869,#438);
#317=LINE('',#1872,#439);
#318=LINE('',#1874,#440);
#319=LINE('',#1875,#441);
#320=LINE('',#1877,#442);
#321=LINE('',#1879,#443);
#322=LINE('',#1880,#444);
#323=LINE('',#1884,#445);
#324=LINE('',#1885,#446);
#325=LINE('',#1886,#447);
#326=LINE('',#1889,#448);
#327=LINE('',#1890,#449);
#328=LINE('',#1893,#450);
#329=LINE('',#1894,#451);
#330=LINE('',#1896,#452);
#331=LINE('',#1900,#453);
#332=LINE('',#1901,#454);
#333=LINE('',#1902,#455);
#334=LINE('',#1905,#456);
#335=LINE('',#1906,#457);
#336=LINE('',#1909,#458);
#337=LINE('',#1910,#459);
#338=LINE('',#1912,#460);
#339=LINE('',#1916,#461);
#340=LINE('',#1918,#462);
#341=LINE('',#1919,#463);
#342=LINE('',#1922,#464);
#343=LINE('',#1923,#465);
#344=LINE('',#1926,#466);
#345=LINE('',#1927,#467);
#346=LINE('',#1929,#468);
#347=LINE('',#1934,#469);
#348=LINE('',#1936,#470);
#349=LINE('',#1938,#471);
#350=LINE('',#1939,#472);
#351=LINE('',#1947,#473);
#352=LINE('',#1949,#474);
#353=LINE('',#1951,#475);
#354=LINE('',#1952,#476);
#355=LINE('',#1958,#477);
#356=LINE('',#1959,#478);
#357=LINE('',#1961,#479);
#358=LINE('',#1963,#480);
#359=LINE('',#1968,#481);
#360=LINE('',#1971,#482);
#361=LINE('',#1975,#483);
#362=VECTOR('',#1235,2.5);
#363=VECTOR('',#1240,2.);
#364=VECTOR('',#1247,2.5);
#365=VECTOR('',#1252,2.);
#366=VECTOR('',#1263,10.);
#367=VECTOR('',#1264,10.);
#368=VECTOR('',#1265,10.);
#369=VECTOR('',#1266,25.6940503915061);
#370=VECTOR('',#1277,10.);
#371=VECTOR('',#1278,10.);
#372=VECTOR('',#1279,10.);
#373=VECTOR('',#1280,10.);
#374=VECTOR('',#1281,10.);
#375=VECTOR('',#1282,10.);
#376=VECTOR('',#1283,10.);
#377=VECTOR('',#1284,10.);
#378=VECTOR('',#1285,10.);
#379=VECTOR('',#1286,10.);
#380=VECTOR('',#1291,1.25);
#381=VECTOR('',#1312,10.);
#382=VECTOR('',#1313,10.);
#383=VECTOR('',#1314,10.);
#384=VECTOR('',#1315,10.);
#385=VECTOR('',#1316,10.);
#386=VECTOR('',#1317,10.);
#387=VECTOR('',#1318,10.);
#388=VECTOR('',#1321,10.);
#389=VECTOR('',#1322,10.);
#390=VECTOR('',#1325,10.);
#391=VECTOR('',#1326,10.);
#392=VECTOR('',#1329,10.);
#393=VECTOR('',#1330,10.);
#394=VECTOR('',#1331,10.);
#395=VECTOR('',#1334,10.);
#396=VECTOR('',#1335,10.);
#397=VECTOR('',#1336,10.);
#398=VECTOR('',#1339,10.);
#399=VECTOR('',#1342,10.);
#400=VECTOR('',#1343,10.);
#401=VECTOR('',#1346,10.);
#402=VECTOR('',#1347,10.);
#403=VECTOR('',#1348,10.);
#404=VECTOR('',#1351,23.4662206630365);
#405=VECTOR('',#1352,23.4662206630365);
#406=VECTOR('',#1353,10.);
#407=VECTOR('',#1356,18.5677382499078);
#408=VECTOR('',#1359,10.);
#409=VECTOR('',#1360,10.);
#410=VECTOR('',#1361,10.);
#411=VECTOR('',#1364,23.4662206630365);
#412=VECTOR('',#1365,23.4662206630365);
#413=VECTOR('',#1366,10.);
#414=VECTOR('',#1369,18.5677382499078);
#415=VECTOR('',#1372,10.);
#416=VECTOR('',#1373,10.);
#417=VECTOR('',#1374,10.);
#418=VECTOR('',#1377,10.);
#419=VECTOR('',#1378,10.);
#420=VECTOR('',#1379,29.1549739175353);
#421=VECTOR('',#1380,10.);
#422=VECTOR('',#1381,10.);
#423=VECTOR('',#1382,10.);
#424=VECTOR('',#1383,10.);
#425=VECTOR('',#1384,10.);
#426=VECTOR('',#1385,10.);
#427=VECTOR('',#1386,10.);
#428=VECTOR('',#1389,10.);
#429=VECTOR('',#1390,10.);
#430=VECTOR('',#1391,10.);
#431=VECTOR('',#1394,10.);
#432=VECTOR('',#1395,10.);
#433=VECTOR('',#1398,10.);
#434=VECTOR('',#1399,10.);
#435=VECTOR('',#1400,10.);
#436=VECTOR('',#1403,10.);
#437=VECTOR('',#1404,10.);
#438=VECTOR('',#1405,10.);
#439=VECTOR('',#1408,10.);
#440=VECTOR('',#1409,10.);
#441=VECTOR('',#1410,10.);
#442=VECTOR('',#1411,10.);
#443=VECTOR('',#1412,10.);
#444=VECTOR('',#1413,10.);
#445=VECTOR('',#1416,10.);
#446=VECTOR('',#1417,10.);
#447=VECTOR('',#1418,10.);
#448=VECTOR('',#1421,10.);
#449=VECTOR('',#1422,10.);
#450=VECTOR('',#1425,10.);
#451=VECTOR('',#1426,10.);
#452=VECTOR('',#1429,10.);
#453=VECTOR('',#1432,10.);
#454=VECTOR('',#1433,10.);
#455=VECTOR('',#1434,10.);
#456=VECTOR('',#1437,10.);
#457=VECTOR('',#1438,10.);
#458=VECTOR('',#1441,10.);
#459=VECTOR('',#1442,10.);
#460=VECTOR('',#1445,10.);
#461=VECTOR('',#1450,10.);
#462=VECTOR('',#1451,10.);
#463=VECTOR('',#1452,10.);
#464=VECTOR('',#1455,10.);
#465=VECTOR('',#1456,10.);
#466=VECTOR('',#1459,10.);
#467=VECTOR('',#1460,10.);
#468=VECTOR('',#1463,10.);
#469=VECTOR('',#1468,10.);
#470=VECTOR('',#1469,10.);
#471=VECTOR('',#1470,10.);
#472=VECTOR('',#1471,10.);
#473=VECTOR('',#1478,10.);
#474=VECTOR('',#1479,10.);
#475=VECTOR('',#1480,10.);
#476=VECTOR('',#1481,10.);
#477=VECTOR('',#1488,10.);
#478=VECTOR('',#1489,10.);
#479=VECTOR('',#1492,10.);
#480=VECTOR('',#1495,10.);
#481=VECTOR('',#1502,1.5);
#482=VECTOR('',#1505,2.);
#483=VECTOR('',#1512,1.25);
#484=CIRCLE('',#1150,3.);
#485=CIRCLE('',#1151,2.);
#486=CIRCLE('',#1153,2.);
#487=CIRCLE('',#1155,3.);
#488=CIRCLE('',#1156,2.);
#489=CIRCLE('',#1158,2.);
#490=CIRCLE('',#1161,1.25);
#491=CIRCLE('',#1166,1.25);
#492=CIRCLE('',#1169,1.25);
#493=CIRCLE('',#1170,1.25);
#494=CIRCLE('',#1171,1.25);
#495=CIRCLE('',#1172,1.25);
#496=CIRCLE('',#1175,1.94775301034721);
#497=CIRCLE('',#1177,77.3);
#498=CIRCLE('',#1178,76.2);
#499=CIRCLE('',#1214,1.25);
#500=CIRCLE('',#1215,1.5);
#501=CIRCLE('',#1217,1.25);
#502=CIRCLE('',#1218,2.);
#503=CIRCLE('',#1224,1.5);
#504=CIRCLE('',#1226,2.);
#505=VERTEX_POINT('',#1515);
#506=VERTEX_POINT('',#1517);
#507=VERTEX_POINT('',#1521);
#508=VERTEX_POINT('',#1525);
#509=VERTEX_POINT('',#1527);
#510=VERTEX_POINT('',#1531);
#511=VERTEX_POINT('',#1535);
#512=VERTEX_POINT('',#1536);
#513=VERTEX_POINT('',#1540);
#514=VERTEX_POINT('',#1541);
#515=VERTEX_POINT('',#1543);
#516=VERTEX_POINT('',#1545);
#517=VERTEX_POINT('',#1548);
#518=VERTEX_POINT('',#1555);
#519=VERTEX_POINT('',#1564);
#520=VERTEX_POINT('',#1565);
#521=VERTEX_POINT('',#1569);
#522=VERTEX_POINT('',#1570);
#523=VERTEX_POINT('',#1572);
#524=VERTEX_POINT('',#1577);
#525=VERTEX_POINT('',#1579);
#526=VERTEX_POINT('',#1581);
#527=VERTEX_POINT('',#1583);
#528=VERTEX_POINT('',#1585);
#529=VERTEX_POINT('',#1587);
#530=VERTEX_POINT('',#1592);
#531=VERTEX_POINT('',#1594);
#532=VERTEX_POINT('',#1596);
#533=VERTEX_POINT('',#1599);
#534=VERTEX_POINT('',#1625);
#535=VERTEX_POINT('',#1626);
#536=VERTEX_POINT('',#1628);
#537=VERTEX_POINT('',#1637);
#538=VERTEX_POINT('',#1638);
#539=VERTEX_POINT('',#1652);
#540=VERTEX_POINT('',#1654);
#541=VERTEX_POINT('',#1670);
#542=VERTEX_POINT('',#1672);
#543=VERTEX_POINT('',#1674);
#544=VERTEX_POINT('',#1676);
#545=VERTEX_POINT('',#1678);
#546=VERTEX_POINT('',#1680);
#547=VERTEX_POINT('',#1684);
#548=VERTEX_POINT('',#1688);
#549=VERTEX_POINT('',#1692);
#550=VERTEX_POINT('',#1694);
#551=VERTEX_POINT('',#1698);
#552=VERTEX_POINT('',#1700);
#553=VERTEX_POINT('',#1710);
#554=VERTEX_POINT('',#1753);
#555=VERTEX_POINT('',#1795);
#556=VERTEX_POINT('',#1797);
#557=VERTEX_POINT('',#1801);
#558=VERTEX_POINT('',#1803);
#559=VERTEX_POINT('',#1822);
#560=VERTEX_POINT('',#1842);
#561=VERTEX_POINT('',#1844);
#562=VERTEX_POINT('',#1846);
#563=VERTEX_POINT('',#1850);
#564=VERTEX_POINT('',#1852);
#565=VERTEX_POINT('',#1859);
#566=VERTEX_POINT('',#1860);
#567=VERTEX_POINT('',#1865);
#568=VERTEX_POINT('',#1866);
#569=VERTEX_POINT('',#1871);
#570=VERTEX_POINT('',#1873);
#571=VERTEX_POINT('',#1876);
#572=VERTEX_POINT('',#1878);
#573=VERTEX_POINT('',#1882);
#574=VERTEX_POINT('',#1883);
#575=VERTEX_POINT('',#1888);
#576=VERTEX_POINT('',#1892);
#577=VERTEX_POINT('',#1898);
#578=VERTEX_POINT('',#1899);
#579=VERTEX_POINT('',#1904);
#580=VERTEX_POINT('',#1908);
#581=VERTEX_POINT('',#1915);
#582=VERTEX_POINT('',#1917);
#583=VERTEX_POINT('',#1921);
#584=VERTEX_POINT('',#1925);
#585=VERTEX_POINT('',#1932);
#586=VERTEX_POINT('',#1933);
#587=VERTEX_POINT('',#1935);
#588=VERTEX_POINT('',#1937);
#589=VERTEX_POINT('',#1940);
#590=VERTEX_POINT('',#1942);
#591=VERTEX_POINT('',#1945);
#592=VERTEX_POINT('',#1946);
#593=VERTEX_POINT('',#1948);
#594=VERTEX_POINT('',#1950);
#595=VERTEX_POINT('',#1953);
#596=VERTEX_POINT('',#1955);
#597=VERTEX_POINT('',#1966);
#598=VERTEX_POINT('',#1970);
#599=EDGE_CURVE('',#505,#505,#484,.T.);
#600=EDGE_CURVE('',#505,#506,#240,.T.);
#601=EDGE_CURVE('',#506,#506,#485,.T.);
#602=EDGE_CURVE('',#506,#507,#241,.T.);
#603=EDGE_CURVE('',#507,#507,#486,.T.);
#604=EDGE_CURVE('',#508,#508,#487,.T.);
#605=EDGE_CURVE('',#508,#509,#242,.T.);
#606=EDGE_CURVE('',#509,#509,#488,.T.);
#607=EDGE_CURVE('',#509,#510,#243,.T.);
#608=EDGE_CURVE('',#510,#510,#489,.T.);
#609=EDGE_CURVE('',#511,#512,#93,.T.);
#610=EDGE_CURVE('',#512,#511,#490,.T.);
#611=EDGE_CURVE('',#513,#514,#244,.T.);
#612=EDGE_CURVE('',#514,#515,#245,.T.);
#613=EDGE_CURVE('',#516,#515,#246,.T.);
#614=EDGE_CURVE('',#513,#516,#247,.T.);
#615=EDGE_CURVE('',#512,#517,#42,.T.);
#616=EDGE_CURVE('',#517,#518,#94,.T.);
#617=EDGE_CURVE('',#518,#511,#43,.T.);
#618=EDGE_CURVE('',#519,#520,#95,.T.);
#619=EDGE_CURVE('',#519,#520,#491,.T.);
#620=EDGE_CURVE('',#521,#522,#248,.T.);
#621=EDGE_CURVE('',#522,#523,#44,.T.);
#622=EDGE_CURVE('',#523,#524,#249,.T.);
#623=EDGE_CURVE('',#524,#525,#250,.T.);
#624=EDGE_CURVE('',#526,#525,#251,.T.);
#625=EDGE_CURVE('',#527,#526,#252,.T.);
#626=EDGE_CURVE('',#527,#528,#253,.T.);
#627=EDGE_CURVE('',#528,#529,#45,.T.);
#628=EDGE_CURVE('',#529,#530,#254,.T.);
#629=EDGE_CURVE('',#531,#530,#255,.T.);
#630=EDGE_CURVE('',#531,#532,#256,.T.);
#631=EDGE_CURVE('',#532,#521,#257,.T.);
#632=EDGE_CURVE('',#520,#533,#46,.T.);
#633=EDGE_CURVE('',#533,#519,#47,.T.);
#634=EDGE_CURVE('',#534,#535,#492,.T.);
#635=EDGE_CURVE('',#534,#536,#258,.T.);
#636=EDGE_CURVE('',#536,#518,#493,.T.);
#637=EDGE_CURVE('',#517,#536,#494,.T.);
#638=EDGE_CURVE('',#535,#534,#495,.T.);
#639=EDGE_CURVE('',#533,#535,#496,.T.);
#640=EDGE_CURVE('',#537,#538,#48,.T.);
#641=EDGE_CURVE('',#539,#537,#497,.T.);
#642=EDGE_CURVE('',#540,#539,#49,.T.);
#643=EDGE_CURVE('',#538,#540,#498,.T.);
#644=EDGE_CURVE('',#541,#540,#259,.T.);
#645=EDGE_CURVE('',#541,#542,#260,.T.);
#646=EDGE_CURVE('',#543,#542,#261,.T.);
#647=EDGE_CURVE('',#543,#544,#262,.T.);
#648=EDGE_CURVE('',#544,#545,#263,.T.);
#649=EDGE_CURVE('',#545,#546,#264,.T.);
#650=EDGE_CURVE('',#546,#538,#265,.T.);
#651=EDGE_CURVE('',#547,#539,#266,.T.);
#652=EDGE_CURVE('',#547,#541,#267,.T.);
#653=EDGE_CURVE('',#542,#548,#268,.T.);
#654=EDGE_CURVE('',#548,#547,#269,.T.);
#655=EDGE_CURVE('',#549,#544,#270,.T.);
#656=EDGE_CURVE('',#550,#543,#271,.T.);
#657=EDGE_CURVE('',#549,#550,#272,.T.);
#658=EDGE_CURVE('',#545,#551,#273,.T.);
#659=EDGE_CURVE('',#552,#551,#274,.T.);
#660=EDGE_CURVE('',#546,#552,#275,.T.);
#661=EDGE_CURVE('',#552,#537,#276,.T.);
#662=EDGE_CURVE('',#551,#549,#277,.T.);
#663=EDGE_CURVE('',#548,#550,#278,.T.);
#664=EDGE_CURVE('',#521,#524,#279,.T.);
#665=EDGE_CURVE('',#553,#524,#280,.T.);
#666=EDGE_CURVE('',#521,#553,#281,.T.);
#667=EDGE_CURVE('',#523,#549,#282,.T.);
#668=EDGE_CURVE('',#524,#551,#283,.T.);
#669=EDGE_CURVE('',#522,#544,#284,.T.);
#670=EDGE_CURVE('',#553,#545,#285,.T.);
#671=EDGE_CURVE('',#530,#527,#286,.T.);
#672=EDGE_CURVE('',#530,#554,#287,.T.);
#673=EDGE_CURVE('',#554,#527,#288,.T.);
#674=EDGE_CURVE('',#527,#548,#289,.T.);
#675=EDGE_CURVE('',#528,#550,#290,.T.);
#676=EDGE_CURVE('',#529,#543,#291,.T.);
#677=EDGE_CURVE('',#554,#542,#292,.T.);
#678=EDGE_CURVE('',#555,#531,#293,.T.);
#679=EDGE_CURVE('',#556,#526,#294,.T.);
#680=EDGE_CURVE('',#555,#556,#295,.T.);
#681=EDGE_CURVE('',#557,#555,#296,.T.);
#682=EDGE_CURVE('',#558,#556,#297,.T.);
#683=EDGE_CURVE('',#557,#558,#298,.T.);
#684=EDGE_CURVE('',#559,#557,#299,.T.);
#685=EDGE_CURVE('',#515,#558,#300,.T.);
#686=EDGE_CURVE('',#514,#559,#301,.T.);
#687=EDGE_CURVE('',#560,#513,#302,.T.);
#688=EDGE_CURVE('',#561,#516,#303,.T.);
#689=EDGE_CURVE('',#562,#561,#304,.T.);
#690=EDGE_CURVE('',#562,#560,#305,.T.);
#691=EDGE_CURVE('',#563,#562,#306,.T.);
#692=EDGE_CURVE('',#564,#561,#307,.T.);
#693=EDGE_CURVE('',#563,#564,#308,.T.);
#694=EDGE_CURVE('',#532,#563,#309,.T.);
#695=EDGE_CURVE('',#525,#564,#310,.T.);
#696=EDGE_CURVE('',#565,#566,#311,.T.);
#697=EDGE_CURVE('',#565,#555,#312,.T.);
#698=EDGE_CURVE('',#566,#557,#313,.T.);
#699=EDGE_CURVE('',#567,#568,#314,.T.);
#700=EDGE_CURVE('',#567,#562,#315,.T.);
#701=EDGE_CURVE('',#568,#563,#316,.T.);
#702=EDGE_CURVE('',#568,#569,#317,.T.);
#703=EDGE_CURVE('',#569,#570,#318,.T.);
#704=EDGE_CURVE('',#570,#565,#319,.T.);
#705=EDGE_CURVE('',#566,#571,#320,.T.);
#706=EDGE_CURVE('',#571,#572,#321,.T.);
#707=EDGE_CURVE('',#572,#567,#322,.T.);
#708=EDGE_CURVE('',#573,#574,#323,.T.);
#709=EDGE_CURVE('',#573,#571,#324,.T.);
#710=EDGE_CURVE('',#574,#514,#325,.T.);
#711=EDGE_CURVE('',#574,#575,#326,.T.);
#712=EDGE_CURVE('',#575,#513,#327,.T.);
#713=EDGE_CURVE('',#575,#576,#328,.T.);
#714=EDGE_CURVE('',#576,#572,#329,.T.);
#715=EDGE_CURVE('',#576,#573,#330,.T.);
#716=EDGE_CURVE('',#577,#578,#331,.T.);
#717=EDGE_CURVE('',#578,#531,#332,.T.);
#718=EDGE_CURVE('',#577,#570,#333,.T.);
#719=EDGE_CURVE('',#579,#577,#334,.T.);
#720=EDGE_CURVE('',#579,#569,#335,.T.);
#721=EDGE_CURVE('',#580,#579,#336,.T.);
#722=EDGE_CURVE('',#580,#532,#337,.T.);
#723=EDGE_CURVE('',#578,#580,#338,.T.);
#724=EDGE_CURVE('',#526,#581,#339,.T.);
#725=EDGE_CURVE('',#582,#581,#340,.T.);
#726=EDGE_CURVE('',#556,#582,#341,.T.);
#727=EDGE_CURVE('',#583,#582,#342,.T.);
#728=EDGE_CURVE('',#564,#583,#343,.T.);
#729=EDGE_CURVE('',#584,#583,#344,.T.);
#730=EDGE_CURVE('',#525,#584,#345,.T.);
#731=EDGE_CURVE('',#581,#584,#346,.T.);
#732=EDGE_CURVE('',#585,#586,#347,.T.);
#733=EDGE_CURVE('',#586,#587,#348,.T.);
#734=EDGE_CURVE('',#587,#588,#349,.T.);
#735=EDGE_CURVE('',#588,#585,#350,.T.);
#736=EDGE_CURVE('',#589,#589,#499,.T.);
#737=EDGE_CURVE('',#590,#590,#500,.T.);
#738=EDGE_CURVE('',#591,#592,#351,.T.);
#739=EDGE_CURVE('',#592,#593,#352,.T.);
#740=EDGE_CURVE('',#593,#594,#353,.T.);
#741=EDGE_CURVE('',#594,#591,#354,.T.);
#742=EDGE_CURVE('',#595,#595,#501,.T.);
#743=EDGE_CURVE('',#596,#596,#502,.T.);
#744=EDGE_CURVE('',#591,#586,#355,.T.);
#745=EDGE_CURVE('',#592,#585,#356,.T.);
#746=EDGE_CURVE('',#594,#587,#357,.T.);
#747=EDGE_CURVE('',#593,#588,#358,.T.);
#748=EDGE_CURVE('',#597,#597,#503,.T.);
#749=EDGE_CURVE('',#597,#590,#359,.T.);
#750=EDGE_CURVE('',#596,#598,#360,.T.);
#751=EDGE_CURVE('',#598,#598,#504,.T.);
#752=EDGE_CURVE('',#595,#589,#361,.T.);
#753=ORIENTED_EDGE('',*,*,#599,.F.);
#754=ORIENTED_EDGE('',*,*,#600,.T.);
#755=ORIENTED_EDGE('',*,*,#601,.F.);
#756=ORIENTED_EDGE('',*,*,#600,.F.);
#757=ORIENTED_EDGE('',*,*,#601,.T.);
#758=ORIENTED_EDGE('',*,*,#602,.T.);
#759=ORIENTED_EDGE('',*,*,#603,.F.);
#760=ORIENTED_EDGE('',*,*,#602,.F.);
#761=ORIENTED_EDGE('',*,*,#604,.F.);
#762=ORIENTED_EDGE('',*,*,#605,.T.);
#763=ORIENTED_EDGE('',*,*,#606,.F.);
#764=ORIENTED_EDGE('',*,*,#605,.F.);
#765=ORIENTED_EDGE('',*,*,#606,.T.);
#766=ORIENTED_EDGE('',*,*,#607,.T.);
#767=ORIENTED_EDGE('',*,*,#608,.F.);
#768=ORIENTED_EDGE('',*,*,#607,.F.);
#769=ORIENTED_EDGE('',*,*,#609,.F.);
#770=ORIENTED_EDGE('',*,*,#610,.F.);
#771=ORIENTED_EDGE('',*,*,#611,.T.);
#772=ORIENTED_EDGE('',*,*,#612,.T.);
#773=ORIENTED_EDGE('',*,*,#613,.F.);
#774=ORIENTED_EDGE('',*,*,#614,.F.);
#775=ORIENTED_EDGE('',*,*,#609,.T.);
#776=ORIENTED_EDGE('',*,*,#615,.T.);
#777=ORIENTED_EDGE('',*,*,#616,.T.);
#778=ORIENTED_EDGE('',*,*,#617,.T.);
#779=ORIENTED_EDGE('',*,*,#618,.F.);
#780=ORIENTED_EDGE('',*,*,#619,.T.);
#781=ORIENTED_EDGE('',*,*,#620,.T.);
#782=ORIENTED_EDGE('',*,*,#621,.T.);
#783=ORIENTED_EDGE('',*,*,#622,.T.);
#784=ORIENTED_EDGE('',*,*,#623,.T.);
#785=ORIENTED_EDGE('',*,*,#624,.F.);
#786=ORIENTED_EDGE('',*,*,#625,.F.);
#787=ORIENTED_EDGE('',*,*,#626,.T.);
#788=ORIENTED_EDGE('',*,*,#627,.T.);
#789=ORIENTED_EDGE('',*,*,#628,.T.);
#790=ORIENTED_EDGE('',*,*,#629,.F.);
#791=ORIENTED_EDGE('',*,*,#630,.T.);
#792=ORIENTED_EDGE('',*,*,#631,.T.);
#793=ORIENTED_EDGE('',*,*,#618,.T.);
#794=ORIENTED_EDGE('',*,*,#632,.T.);
#795=ORIENTED_EDGE('',*,*,#633,.T.);
#796=ORIENTED_EDGE('',*,*,#634,.F.);
#797=ORIENTED_EDGE('',*,*,#635,.T.);
#798=ORIENTED_EDGE('',*,*,#636,.T.);
#799=ORIENTED_EDGE('',*,*,#616,.F.);
#800=ORIENTED_EDGE('',*,*,#637,.T.);
#801=ORIENTED_EDGE('',*,*,#635,.F.);
#802=ORIENTED_EDGE('',*,*,#638,.F.);
#803=ORIENTED_EDGE('',*,*,#615,.F.);
#804=ORIENTED_EDGE('',*,*,#610,.T.);
#805=ORIENTED_EDGE('',*,*,#617,.F.);
#806=ORIENTED_EDGE('',*,*,#636,.F.);
#807=ORIENTED_EDGE('',*,*,#637,.F.);
#808=ORIENTED_EDGE('',*,*,#632,.F.);
#809=ORIENTED_EDGE('',*,*,#619,.F.);
#810=ORIENTED_EDGE('',*,*,#633,.F.);
#811=ORIENTED_EDGE('',*,*,#639,.T.);
#812=ORIENTED_EDGE('',*,*,#638,.T.);
#813=ORIENTED_EDGE('',*,*,#634,.T.);
#814=ORIENTED_EDGE('',*,*,#639,.F.);
#815=ORIENTED_EDGE('',*,*,#640,.F.);
#816=ORIENTED_EDGE('',*,*,#641,.F.);
#817=ORIENTED_EDGE('',*,*,#642,.F.);
#818=ORIENTED_EDGE('',*,*,#643,.F.);
#819=ORIENTED_EDGE('',*,*,#643,.T.);
#820=ORIENTED_EDGE('',*,*,#644,.F.);
#821=ORIENTED_EDGE('',*,*,#645,.T.);
#822=ORIENTED_EDGE('',*,*,#646,.F.);
#823=ORIENTED_EDGE('',*,*,#647,.T.);
#824=ORIENTED_EDGE('',*,*,#648,.T.);
#825=ORIENTED_EDGE('',*,*,#649,.T.);
#826=ORIENTED_EDGE('',*,*,#650,.T.);
#827=ORIENTED_EDGE('',*,*,#642,.T.);
#828=ORIENTED_EDGE('',*,*,#651,.F.);
#829=ORIENTED_EDGE('',*,*,#652,.T.);
#830=ORIENTED_EDGE('',*,*,#644,.T.);
#831=ORIENTED_EDGE('',*,*,#653,.F.);
#832=ORIENTED_EDGE('',*,*,#645,.F.);
#833=ORIENTED_EDGE('',*,*,#652,.F.);
#834=ORIENTED_EDGE('',*,*,#654,.F.);
#835=ORIENTED_EDGE('',*,*,#655,.T.);
#836=ORIENTED_EDGE('',*,*,#647,.F.);
#837=ORIENTED_EDGE('',*,*,#656,.F.);
#838=ORIENTED_EDGE('',*,*,#657,.F.);
#839=ORIENTED_EDGE('',*,*,#658,.T.);
#840=ORIENTED_EDGE('',*,*,#659,.F.);
#841=ORIENTED_EDGE('',*,*,#660,.F.);
#842=ORIENTED_EDGE('',*,*,#649,.F.);
#843=ORIENTED_EDGE('',*,*,#640,.T.);
#844=ORIENTED_EDGE('',*,*,#650,.F.);
#845=ORIENTED_EDGE('',*,*,#660,.T.);
#846=ORIENTED_EDGE('',*,*,#661,.T.);
#847=ORIENTED_EDGE('',*,*,#641,.T.);
#848=ORIENTED_EDGE('',*,*,#661,.F.);
#849=ORIENTED_EDGE('',*,*,#659,.T.);
#850=ORIENTED_EDGE('',*,*,#662,.T.);
#851=ORIENTED_EDGE('',*,*,#657,.T.);
#852=ORIENTED_EDGE('',*,*,#663,.F.);
#853=ORIENTED_EDGE('',*,*,#654,.T.);
#854=ORIENTED_EDGE('',*,*,#651,.T.);
#855=ORIENTED_EDGE('',*,*,#664,.T.);
#856=ORIENTED_EDGE('',*,*,#665,.F.);
#857=ORIENTED_EDGE('',*,*,#666,.F.);
#858=ORIENTED_EDGE('',*,*,#622,.F.);
#859=ORIENTED_EDGE('',*,*,#667,.T.);
#860=ORIENTED_EDGE('',*,*,#662,.F.);
#861=ORIENTED_EDGE('',*,*,#668,.F.);
#862=ORIENTED_EDGE('',*,*,#621,.F.);
#863=ORIENTED_EDGE('',*,*,#669,.T.);
#864=ORIENTED_EDGE('',*,*,#655,.F.);
#865=ORIENTED_EDGE('',*,*,#667,.F.);
#866=ORIENTED_EDGE('',*,*,#620,.F.);
#867=ORIENTED_EDGE('',*,*,#666,.T.);
#868=ORIENTED_EDGE('',*,*,#670,.T.);
#869=ORIENTED_EDGE('',*,*,#648,.F.);
#870=ORIENTED_EDGE('',*,*,#669,.F.);
#871=ORIENTED_EDGE('',*,*,#665,.T.);
#872=ORIENTED_EDGE('',*,*,#668,.T.);
#873=ORIENTED_EDGE('',*,*,#658,.F.);
#874=ORIENTED_EDGE('',*,*,#670,.F.);
#875=ORIENTED_EDGE('',*,*,#671,.F.);
#876=ORIENTED_EDGE('',*,*,#672,.T.);
#877=ORIENTED_EDGE('',*,*,#673,.T.);
#878=ORIENTED_EDGE('',*,*,#626,.F.);
#879=ORIENTED_EDGE('',*,*,#674,.T.);
#880=ORIENTED_EDGE('',*,*,#663,.T.);
#881=ORIENTED_EDGE('',*,*,#675,.F.);
#882=ORIENTED_EDGE('',*,*,#627,.F.);
#883=ORIENTED_EDGE('',*,*,#675,.T.);
#884=ORIENTED_EDGE('',*,*,#656,.T.);
#885=ORIENTED_EDGE('',*,*,#676,.F.);
#886=ORIENTED_EDGE('',*,*,#628,.F.);
#887=ORIENTED_EDGE('',*,*,#676,.T.);
#888=ORIENTED_EDGE('',*,*,#646,.T.);
#889=ORIENTED_EDGE('',*,*,#677,.F.);
#890=ORIENTED_EDGE('',*,*,#672,.F.);
#891=ORIENTED_EDGE('',*,*,#673,.F.);
#892=ORIENTED_EDGE('',*,*,#677,.T.);
#893=ORIENTED_EDGE('',*,*,#653,.T.);
#894=ORIENTED_EDGE('',*,*,#674,.F.);
#895=ORIENTED_EDGE('',*,*,#678,.T.);
#896=ORIENTED_EDGE('',*,*,#629,.T.);
#897=ORIENTED_EDGE('',*,*,#671,.T.);
#898=ORIENTED_EDGE('',*,*,#625,.T.);
#899=ORIENTED_EDGE('',*,*,#679,.F.);
#900=ORIENTED_EDGE('',*,*,#680,.F.);
#901=ORIENTED_EDGE('',*,*,#681,.T.);
#902=ORIENTED_EDGE('',*,*,#680,.T.);
#903=ORIENTED_EDGE('',*,*,#682,.F.);
#904=ORIENTED_EDGE('',*,*,#683,.F.);
#905=ORIENTED_EDGE('',*,*,#684,.T.);
#906=ORIENTED_EDGE('',*,*,#683,.T.);
#907=ORIENTED_EDGE('',*,*,#685,.F.);
#908=ORIENTED_EDGE('',*,*,#612,.F.);
#909=ORIENTED_EDGE('',*,*,#686,.T.);
#910=ORIENTED_EDGE('',*,*,#687,.T.);
#911=ORIENTED_EDGE('',*,*,#614,.T.);
#912=ORIENTED_EDGE('',*,*,#688,.F.);
#913=ORIENTED_EDGE('',*,*,#689,.F.);
#914=ORIENTED_EDGE('',*,*,#690,.T.);
#915=ORIENTED_EDGE('',*,*,#691,.T.);
#916=ORIENTED_EDGE('',*,*,#689,.T.);
#917=ORIENTED_EDGE('',*,*,#692,.F.);
#918=ORIENTED_EDGE('',*,*,#693,.F.);
#919=ORIENTED_EDGE('',*,*,#694,.T.);
#920=ORIENTED_EDGE('',*,*,#693,.T.);
#921=ORIENTED_EDGE('',*,*,#695,.F.);
#922=ORIENTED_EDGE('',*,*,#623,.F.);
#923=ORIENTED_EDGE('',*,*,#664,.F.);
#924=ORIENTED_EDGE('',*,*,#631,.F.);
#925=ORIENTED_EDGE('',*,*,#696,.F.);
#926=ORIENTED_EDGE('',*,*,#697,.T.);
#927=ORIENTED_EDGE('',*,*,#681,.F.);
#928=ORIENTED_EDGE('',*,*,#698,.F.);
#929=ORIENTED_EDGE('',*,*,#699,.F.);
#930=ORIENTED_EDGE('',*,*,#700,.T.);
#931=ORIENTED_EDGE('',*,*,#691,.F.);
#932=ORIENTED_EDGE('',*,*,#701,.F.);
#933=ORIENTED_EDGE('',*,*,#699,.T.);
#934=ORIENTED_EDGE('',*,*,#702,.T.);
#935=ORIENTED_EDGE('',*,*,#703,.T.);
#936=ORIENTED_EDGE('',*,*,#704,.T.);
#937=ORIENTED_EDGE('',*,*,#696,.T.);
#938=ORIENTED_EDGE('',*,*,#705,.T.);
#939=ORIENTED_EDGE('',*,*,#706,.T.);
#940=ORIENTED_EDGE('',*,*,#707,.T.);
#941=ORIENTED_EDGE('',*,*,#708,.F.);
#942=ORIENTED_EDGE('',*,*,#709,.T.);
#943=ORIENTED_EDGE('',*,*,#705,.F.);
#944=ORIENTED_EDGE('',*,*,#698,.T.);
#945=ORIENTED_EDGE('',*,*,#684,.F.);
#946=ORIENTED_EDGE('',*,*,#686,.F.);
#947=ORIENTED_EDGE('',*,*,#710,.F.);
#948=ORIENTED_EDGE('',*,*,#711,.F.);
#949=ORIENTED_EDGE('',*,*,#710,.T.);
#950=ORIENTED_EDGE('',*,*,#611,.F.);
#951=ORIENTED_EDGE('',*,*,#712,.F.);
#952=ORIENTED_EDGE('',*,*,#713,.F.);
#953=ORIENTED_EDGE('',*,*,#712,.T.);
#954=ORIENTED_EDGE('',*,*,#687,.F.);
#955=ORIENTED_EDGE('',*,*,#690,.F.);
#956=ORIENTED_EDGE('',*,*,#700,.F.);
#957=ORIENTED_EDGE('',*,*,#707,.F.);
#958=ORIENTED_EDGE('',*,*,#714,.F.);
#959=ORIENTED_EDGE('',*,*,#715,.F.);
#960=ORIENTED_EDGE('',*,*,#714,.T.);
#961=ORIENTED_EDGE('',*,*,#706,.F.);
#962=ORIENTED_EDGE('',*,*,#709,.F.);
#963=ORIENTED_EDGE('',*,*,#716,.T.);
#964=ORIENTED_EDGE('',*,*,#717,.T.);
#965=ORIENTED_EDGE('',*,*,#678,.F.);
#966=ORIENTED_EDGE('',*,*,#697,.F.);
#967=ORIENTED_EDGE('',*,*,#704,.F.);
#968=ORIENTED_EDGE('',*,*,#718,.F.);
#969=ORIENTED_EDGE('',*,*,#719,.T.);
#970=ORIENTED_EDGE('',*,*,#718,.T.);
#971=ORIENTED_EDGE('',*,*,#703,.F.);
#972=ORIENTED_EDGE('',*,*,#720,.F.);
#973=ORIENTED_EDGE('',*,*,#721,.T.);
#974=ORIENTED_EDGE('',*,*,#720,.T.);
#975=ORIENTED_EDGE('',*,*,#702,.F.);
#976=ORIENTED_EDGE('',*,*,#701,.T.);
#977=ORIENTED_EDGE('',*,*,#694,.F.);
#978=ORIENTED_EDGE('',*,*,#722,.F.);
#979=ORIENTED_EDGE('',*,*,#723,.T.);
#980=ORIENTED_EDGE('',*,*,#722,.T.);
#981=ORIENTED_EDGE('',*,*,#630,.F.);
#982=ORIENTED_EDGE('',*,*,#717,.F.);
#983=ORIENTED_EDGE('',*,*,#723,.F.);
#984=ORIENTED_EDGE('',*,*,#716,.F.);
#985=ORIENTED_EDGE('',*,*,#719,.F.);
#986=ORIENTED_EDGE('',*,*,#721,.F.);
#987=ORIENTED_EDGE('',*,*,#715,.T.);
#988=ORIENTED_EDGE('',*,*,#708,.T.);
#989=ORIENTED_EDGE('',*,*,#711,.T.);
#990=ORIENTED_EDGE('',*,*,#713,.T.);
#991=ORIENTED_EDGE('',*,*,#679,.T.);
#992=ORIENTED_EDGE('',*,*,#724,.T.);
#993=ORIENTED_EDGE('',*,*,#725,.F.);
#994=ORIENTED_EDGE('',*,*,#726,.F.);
#995=ORIENTED_EDGE('',*,*,#692,.T.);
#996=ORIENTED_EDGE('',*,*,#688,.T.);
#997=ORIENTED_EDGE('',*,*,#613,.T.);
#998=ORIENTED_EDGE('',*,*,#685,.T.);
#999=ORIENTED_EDGE('',*,*,#682,.T.);
#1000=ORIENTED_EDGE('',*,*,#726,.T.);
#1001=ORIENTED_EDGE('',*,*,#727,.F.);
#1002=ORIENTED_EDGE('',*,*,#728,.F.);
#1003=ORIENTED_EDGE('',*,*,#599,.T.);
#1004=ORIENTED_EDGE('',*,*,#604,.T.);
#1005=ORIENTED_EDGE('',*,*,#695,.T.);
#1006=ORIENTED_EDGE('',*,*,#728,.T.);
#1007=ORIENTED_EDGE('',*,*,#729,.F.);
#1008=ORIENTED_EDGE('',*,*,#730,.F.);
#1009=ORIENTED_EDGE('',*,*,#624,.T.);
#1010=ORIENTED_EDGE('',*,*,#730,.T.);
#1011=ORIENTED_EDGE('',*,*,#731,.F.);
#1012=ORIENTED_EDGE('',*,*,#724,.F.);
#1013=ORIENTED_EDGE('',*,*,#603,.T.);
#1014=ORIENTED_EDGE('',*,*,#608,.T.);
#1015=ORIENTED_EDGE('',*,*,#731,.T.);
#1016=ORIENTED_EDGE('',*,*,#729,.T.);
#1017=ORIENTED_EDGE('',*,*,#727,.T.);
#1018=ORIENTED_EDGE('',*,*,#725,.T.);
#1019=ORIENTED_EDGE('',*,*,#732,.T.);
#1020=ORIENTED_EDGE('',*,*,#733,.T.);
#1021=ORIENTED_EDGE('',*,*,#734,.T.);
#1022=ORIENTED_EDGE('',*,*,#735,.T.);
#1023=ORIENTED_EDGE('',*,*,#736,.T.);
#1024=ORIENTED_EDGE('',*,*,#737,.T.);
#1025=ORIENTED_EDGE('',*,*,#738,.T.);
#1026=ORIENTED_EDGE('',*,*,#739,.T.);
#1027=ORIENTED_EDGE('',*,*,#740,.T.);
#1028=ORIENTED_EDGE('',*,*,#741,.T.);
#1029=ORIENTED_EDGE('',*,*,#742,.T.);
#1030=ORIENTED_EDGE('',*,*,#743,.T.);
#1031=ORIENTED_EDGE('',*,*,#738,.F.);
#1032=ORIENTED_EDGE('',*,*,#744,.T.);
#1033=ORIENTED_EDGE('',*,*,#732,.F.);
#1034=ORIENTED_EDGE('',*,*,#745,.F.);
#1035=ORIENTED_EDGE('',*,*,#741,.F.);
#1036=ORIENTED_EDGE('',*,*,#746,.T.);
#1037=ORIENTED_EDGE('',*,*,#733,.F.);
#1038=ORIENTED_EDGE('',*,*,#744,.F.);
#1039=ORIENTED_EDGE('',*,*,#740,.F.);
#1040=ORIENTED_EDGE('',*,*,#747,.T.);
#1041=ORIENTED_EDGE('',*,*,#734,.F.);
#1042=ORIENTED_EDGE('',*,*,#746,.F.);
#1043=ORIENTED_EDGE('',*,*,#739,.F.);
#1044=ORIENTED_EDGE('',*,*,#745,.T.);
#1045=ORIENTED_EDGE('',*,*,#735,.F.);
#1046=ORIENTED_EDGE('',*,*,#747,.F.);
#1047=ORIENTED_EDGE('',*,*,#748,.T.);
#1048=ORIENTED_EDGE('',*,*,#749,.T.);
#1049=ORIENTED_EDGE('',*,*,#737,.F.);
#1050=ORIENTED_EDGE('',*,*,#749,.F.);
#1051=ORIENTED_EDGE('',*,*,#743,.F.);
#1052=ORIENTED_EDGE('',*,*,#750,.T.);
#1053=ORIENTED_EDGE('',*,*,#751,.F.);
#1054=ORIENTED_EDGE('',*,*,#750,.F.);
#1055=ORIENTED_EDGE('',*,*,#751,.T.);
#1056=ORIENTED_EDGE('',*,*,#748,.F.);
#1057=ORIENTED_EDGE('',*,*,#742,.F.);
#1058=ORIENTED_EDGE('',*,*,#752,.T.);
#1059=ORIENTED_EDGE('',*,*,#736,.F.);
#1060=ORIENTED_EDGE('',*,*,#752,.F.);
#1061=CONICAL_SURFACE('',#1149,2.5,0.785398163397448);
#1062=CONICAL_SURFACE('',#1154,2.5,0.785398163397448);
#1063=ADVANCED_FACE('',(#104),#1061,.F.);
#1064=ADVANCED_FACE('',(#105),#96,.F.);
#1065=ADVANCED_FACE('',(#106),#1062,.F.);
#1066=ADVANCED_FACE('',(#107),#97,.F.);
#1067=ADVANCED_FACE('',(#108),#98,.F.);
#1068=ADVANCED_FACE('',(#109,#30),#50,.F.);
#1069=ADVANCED_FACE('',(#110),#99,.F.);
#1070=ADVANCED_FACE('',(#111,#31),#51,.F.);
#1071=ADVANCED_FACE('',(#112),#100,.F.);
#1072=ADVANCED_FACE('',(#113),#27,.F.);
#1073=ADVANCED_FACE('',(#114),#28,.F.);
#1074=ADVANCED_FACE('',(#115),#29,.F.);
#1075=ADVANCED_FACE('',(#116),#52,.T.);
#1076=ADVANCED_FACE('',(#117),#53,.T.);
#1077=ADVANCED_FACE('',(#118),#54,.F.);
#1078=ADVANCED_FACE('',(#119),#55,.F.);
#1079=ADVANCED_FACE('',(#120),#56,.F.);
#1080=ADVANCED_FACE('',(#121),#57,.T.);
#1081=ADVANCED_FACE('',(#122),#58,.T.);
#1082=ADVANCED_FACE('',(#123),#59,.F.);
#1083=ADVANCED_FACE('',(#124),#60,.T.);
#1084=ADVANCED_FACE('',(#125),#21,.T.);
#1085=ADVANCED_FACE('',(#126),#61,.T.);
#1086=ADVANCED_FACE('',(#127),#22,.T.);
#1087=ADVANCED_FACE('',(#128),#62,.T.);
#1088=ADVANCED_FACE('',(#129),#63,.F.);
#1089=ADVANCED_FACE('',(#130),#23,.F.);
#1090=ADVANCED_FACE('',(#131),#64,.F.);
#1091=ADVANCED_FACE('',(#132),#24,.F.);
#1092=ADVANCED_FACE('',(#133),#65,.F.);
#1093=ADVANCED_FACE('',(#134),#66,.F.);
#1094=ADVANCED_FACE('',(#135),#25,.F.);
#1095=ADVANCED_FACE('',(#136),#26,.F.);
#1096=ADVANCED_FACE('',(#137),#67,.F.);
#1097=ADVANCED_FACE('',(#138),#68,.F.);
#1098=ADVANCED_FACE('',(#139),#69,.T.);
#1099=ADVANCED_FACE('',(#140),#70,.T.);
#1100=ADVANCED_FACE('',(#141),#71,.T.);
#1101=ADVANCED_FACE('',(#142),#72,.T.);
#1102=ADVANCED_FACE('',(#143),#73,.T.);
#1103=ADVANCED_FACE('',(#144),#74,.T.);
#1104=ADVANCED_FACE('',(#145),#75,.T.);
#1105=ADVANCED_FACE('',(#146),#76,.T.);
#1106=ADVANCED_FACE('',(#147),#77,.T.);
#1107=ADVANCED_FACE('',(#148),#78,.T.);
#1108=ADVANCED_FACE('',(#149),#79,.T.);
#1109=ADVANCED_FACE('',(#150,#32),#80,.F.);
#1110=ADVANCED_FACE('',(#151),#81,.T.);
#1111=ADVANCED_FACE('',(#152,#33,#34),#82,.T.);
#1112=ADVANCED_FACE('',(#153),#83,.T.);
#1113=ADVANCED_FACE('',(#154,#35,#36),#84,.T.);
#1114=ADVANCED_FACE('',(#155),#85,.T.);
#1115=ADVANCED_FACE('',(#156,#37,#38),#86,.T.);
#1116=ADVANCED_FACE('',(#157,#39,#40),#87,.T.);
#1117=ADVANCED_FACE('',(#158),#88,.T.);
#1118=ADVANCED_FACE('',(#159),#89,.T.);
#1119=ADVANCED_FACE('',(#160),#90,.T.);
#1120=ADVANCED_FACE('',(#161),#91,.T.);
#1121=ADVANCED_FACE('',(#162),#101,.F.);
#1122=ADVANCED_FACE('',(#163),#102,.F.);
#1123=ADVANCED_FACE('',(#164,#41),#92,.T.);
#1124=ADVANCED_FACE('',(#165),#103,.F.);
#1125=CLOSED_SHELL('',(#1063,#1064,#1065,#1066,#1067,#1068,#1069,#1070,
#1071,#1072,#1073,#1074,#1075,#1076,#1077,#1078,#1079,#1080,#1081,#1082,
#1083,#1084,#1085,#1086,#1087,#1088,#1089,#1090,#1091,#1092,#1093,#1094,
#1095,#1096,#1097,#1098,#1099,#1100,#1101,#1102,#1103,#1104,#1105,#1106,
#1107,#1108,#1109,#1110,#1111,#1112,#1113,#1114));
#1126=CLOSED_SHELL('',(#1115,#1116,#1117,#1118,#1119,#1120,#1121,#1122,
#1123,#1124));
#1127=DERIVED_UNIT_ELEMENT(#1130,1.);
#1128=DERIVED_UNIT_ELEMENT(#1983,-3.);
#1129=DIMENSIONAL_EXPONENTS(0.,1.,0.,0.,0.,0.,0.);
#1130=(
CONVERSION_BASED_UNIT('gram',#1132)
MASS_UNIT()
NAMED_UNIT(#1129)
);
#1131=(
MASS_UNIT()
NAMED_UNIT(*)
SI_UNIT(.KILO.,.GRAM.)
);
#1132=MASS_MEASURE_WITH_UNIT(MASS_MEASURE(0.001),#1131);
#1133=DERIVED_UNIT((#1127,#1128));
#1134=MEASURE_REPRESENTATION_ITEM('density measure',
POSITIVE_RATIO_MEASURE(1.),#1133);
#1135=PROPERTY_DEFINITION_REPRESENTATION(#1140,#1137);
#1136=PROPERTY_DEFINITION_REPRESENTATION(#1141,#1138);
#1137=REPRESENTATION('material name',(#1139),#1980);
#1138=REPRESENTATION('density',(#1134),#1980);
#1139=DESCRIPTIVE_REPRESENTATION_ITEM('Generic','Generic');
#1140=PROPERTY_DEFINITION('material property','material name',#1990);
#1141=PROPERTY_DEFINITION('material property','density of part',#1990);
#1142=DATE_TIME_ROLE('creation_date');
#1143=APPLIED_DATE_AND_TIME_ASSIGNMENT(#1144,#1142,(#1990));
#1144=DATE_AND_TIME(#1145,#1146);
#1145=CALENDAR_DATE(2025,6,5);
#1146=LOCAL_TIME(0,0,0.,#1147);
#1147=COORDINATED_UNIVERSAL_TIME_OFFSET(0,0,.BEHIND.);
#1148=AXIS2_PLACEMENT_3D('',#1513,#1229,#1230);
#1149=AXIS2_PLACEMENT_3D('',#1514,#1231,#1232);
#1150=AXIS2_PLACEMENT_3D('',#1516,#1233,#1234);
#1151=AXIS2_PLACEMENT_3D('',#1519,#1236,#1237);
#1152=AXIS2_PLACEMENT_3D('',#1520,#1238,#1239);
#1153=AXIS2_PLACEMENT_3D('',#1523,#1241,#1242);
#1154=AXIS2_PLACEMENT_3D('',#1524,#1243,#1244);
#1155=AXIS2_PLACEMENT_3D('',#1526,#1245,#1246);
#1156=AXIS2_PLACEMENT_3D('',#1529,#1248,#1249);
#1157=AXIS2_PLACEMENT_3D('',#1530,#1250,#1251);
#1158=AXIS2_PLACEMENT_3D('',#1533,#1253,#1254);
#1159=AXIS2_PLACEMENT_3D('',#1534,#1255,#1256);
#1160=AXIS2_PLACEMENT_3D('',#1537,#1257,#1258);
#1161=AXIS2_PLACEMENT_3D('',#1538,#1259,#1260);
#1162=AXIS2_PLACEMENT_3D('',#1539,#1261,#1262);
#1163=AXIS2_PLACEMENT_3D('',#1556,#1267,#1268);
#1164=AXIS2_PLACEMENT_3D('',#1563,#1269,#1270);
#1165=AXIS2_PLACEMENT_3D('',#1566,#1271,#1272);
#1166=AXIS2_PLACEMENT_3D('',#1567,#1273,#1274);
#1167=AXIS2_PLACEMENT_3D('',#1568,#1275,#1276);
#1168=AXIS2_PLACEMENT_3D('',#1624,#1287,#1288);
#1169=AXIS2_PLACEMENT_3D('',#1627,#1289,#1290);
#1170=AXIS2_PLACEMENT_3D('',#1630,#1292,#1293);
#1171=AXIS2_PLACEMENT_3D('',#1631,#1294,#1295);
#1172=AXIS2_PLACEMENT_3D('',#1632,#1296,#1297);
#1173=AXIS2_PLACEMENT_3D('',#1633,#1298,#1299);
#1174=AXIS2_PLACEMENT_3D('',#1634,#1300,#1301);
#1175=AXIS2_PLACEMENT_3D('',#1635,#1302,#1303);
#1176=AXIS2_PLACEMENT_3D('',#1636,#1304,#1305);
#1177=AXIS2_PLACEMENT_3D('',#1653,#1306,#1307);
#1178=AXIS2_PLACEMENT_3D('',#1668,#1308,#1309);
#1179=AXIS2_PLACEMENT_3D('',#1669,#1310,#1311);
#1180=AXIS2_PLACEMENT_3D('',#1683,#1319,#1320);
#1181=AXIS2_PLACEMENT_3D('',#1687,#1323,#1324);
#1182=AXIS2_PLACEMENT_3D('',#1691,#1327,#1328);
#1183=AXIS2_PLACEMENT_3D('',#1697,#1332,#1333);
#1184=AXIS2_PLACEMENT_3D('',#1703,#1337,#1338);
#1185=AXIS2_PLACEMENT_3D('',#1705,#1340,#1341);
#1186=AXIS2_PLACEMENT_3D('',#1708,#1344,#1345);
#1187=AXIS2_PLACEMENT_3D('',#1713,#1349,#1350);
#1188=AXIS2_PLACEMENT_3D('',#1733,#1354,#1355);
#1189=AXIS2_PLACEMENT_3D('',#1751,#1357,#1358);
#1190=AXIS2_PLACEMENT_3D('',#1756,#1362,#1363);
#1191=AXIS2_PLACEMENT_3D('',#1776,#1367,#1368);
#1192=AXIS2_PLACEMENT_3D('',#1794,#1370,#1371);
#1193=AXIS2_PLACEMENT_3D('',#1800,#1375,#1376);
#1194=AXIS2_PLACEMENT_3D('',#1849,#1387,#1388);
#1195=AXIS2_PLACEMENT_3D('',#1855,#1392,#1393);
#1196=AXIS2_PLACEMENT_3D('',#1858,#1396,#1397);
#1197=AXIS2_PLACEMENT_3D('',#1864,#1401,#1402);
#1198=AXIS2_PLACEMENT_3D('',#1870,#1406,#1407);
#1199=AXIS2_PLACEMENT_3D('',#1881,#1414,#1415);
#1200=AXIS2_PLACEMENT_3D('',#1887,#1419,#1420);
#1201=AXIS2_PLACEMENT_3D('',#1891,#1423,#1424);
#1202=AXIS2_PLACEMENT_3D('',#1895,#1427,#1428);
#1203=AXIS2_PLACEMENT_3D('',#1897,#1430,#1431);
#1204=AXIS2_PLACEMENT_3D('',#1903,#1435,#1436);
#1205=AXIS2_PLACEMENT_3D('',#1907,#1439,#1440);
#1206=AXIS2_PLACEMENT_3D('',#1911,#1443,#1444);
#1207=AXIS2_PLACEMENT_3D('',#1913,#1446,#1447);
#1208=AXIS2_PLACEMENT_3D('',#1914,#1448,#1449);
#1209=AXIS2_PLACEMENT_3D('',#1920,#1453,#1454);
#1210=AXIS2_PLACEMENT_3D('',#1924,#1457,#1458);
#1211=AXIS2_PLACEMENT_3D('',#1928,#1461,#1462);
#1212=AXIS2_PLACEMENT_3D('',#1930,#1464,#1465);
#1213=AXIS2_PLACEMENT_3D('',#1931,#1466,#1467);
#1214=AXIS2_PLACEMENT_3D('',#1941,#1472,#1473);
#1215=AXIS2_PLACEMENT_3D('',#1943,#1474,#1475);
#1216=AXIS2_PLACEMENT_3D('',#1944,#1476,#1477);
#1217=AXIS2_PLACEMENT_3D('',#1954,#1482,#1483);
#1218=AXIS2_PLACEMENT_3D('',#1956,#1484,#1485);
#1219=AXIS2_PLACEMENT_3D('',#1957,#1486,#1487);
#1220=AXIS2_PLACEMENT_3D('',#1960,#1490,#1491);
#1221=AXIS2_PLACEMENT_3D('',#1962,#1493,#1494);
#1222=AXIS2_PLACEMENT_3D('',#1964,#1496,#1497);
#1223=AXIS2_PLACEMENT_3D('',#1965,#1498,#1499);
#1224=AXIS2_PLACEMENT_3D('',#1967,#1500,#1501);
#1225=AXIS2_PLACEMENT_3D('',#1969,#1503,#1504);
#1226=AXIS2_PLACEMENT_3D('',#1972,#1506,#1507);
#1227=AXIS2_PLACEMENT_3D('',#1973,#1508,#1509);
#1228=AXIS2_PLACEMENT_3D('',#1974,#1510,#1511);
#1229=DIRECTION('axis',(0.,0.,1.));
#1230=DIRECTION('refdir',(1.,0.,0.));
#1231=DIRECTION('center_axis',(0.,1.,0.));
#1232=DIRECTION('ref_axis',(1.,0.,0.));
#1233=DIRECTION('center_axis',(0.,-1.,0.));
#1234=DIRECTION('ref_axis',(1.,0.,0.));
#1235=DIRECTION('',(0.707106781186547,-0.707106781186548,-8.65956056235493E-17));
#1236=DIRECTION('center_axis',(0.,1.,0.));
#1237=DIRECTION('ref_axis',(1.,0.,0.));
#1238=DIRECTION('center_axis',(0.,1.,0.));
#1239=DIRECTION('ref_axis',(1.,0.,0.));
#1240=DIRECTION('',(0.,-1.,0.));
#1241=DIRECTION('center_axis',(0.,1.,0.));
#1242=DIRECTION('ref_axis',(1.,0.,0.));
#1243=DIRECTION('center_axis',(0.,1.,0.));
#1244=DIRECTION('ref_axis',(1.,0.,0.));
#1245=DIRECTION('center_axis',(0.,-1.,0.));
#1246=DIRECTION('ref_axis',(1.,0.,0.));
#1247=DIRECTION('',(0.707106781186547,-0.707106781186548,-8.65956056235493E-17));
#1248=DIRECTION('center_axis',(0.,1.,0.));
#1249=DIRECTION('ref_axis',(1.,0.,0.));
#1250=DIRECTION('center_axis',(0.,1.,0.));
#1251=DIRECTION('ref_axis',(1.,0.,0.));
#1252=DIRECTION('',(0.,-1.,0.));
#1253=DIRECTION('center_axis',(0.,1.,0.));
#1254=DIRECTION('ref_axis',(1.,0.,0.));
#1255=DIRECTION('center_axis',(1.11022302462516E-16,0.824679837896476,-0.565599827587529));
#1256=DIRECTION('ref_axis',(-1.,1.70513418287613E-16,5.23279432674626E-17));
#1257=DIRECTION('center_axis',(-1.70415444518933E-16,-0.936329177569045,
-0.351123441588392));
#1258=DIRECTION('ref_axis',(-1.08750781826447E-17,-0.351123441588392,0.936329177569045));
#1259=DIRECTION('center_axis',(0.,0.824679837896475,-0.56559982758753));
#1260=DIRECTION('ref_axis',(1.,0.,0.));
#1261=DIRECTION('center_axis',(-1.70415444518933E-16,-0.936329177569045,
-0.351123441588392));
#1262=DIRECTION('ref_axis',(0.,0.351123441588392,-0.936329177569045));
#1263=DIRECTION('',(-1.,1.82003774528714E-16,0.));
#1264=DIRECTION('',(0.0694495343021042,-0.350275642137575,0.934068379033532));
#1265=DIRECTION('',(-1.,0.,0.));
#1266=DIRECTION('',(-0.0694495343021042,-0.350275642137574,0.934068379033532));
#1267=DIRECTION('center_axis',(-1.70415444518933E-16,-0.936329177569045,
-0.351123441588392));
#1268=DIRECTION('ref_axis',(0.,0.351123441588392,-0.936329177569045));
#1269=DIRECTION('center_axis',(0.,-0.983645632098638,0.180114603664644));
#1270=DIRECTION('ref_axis',(1.,0.,0.));
#1271=DIRECTION('center_axis',(0.,0.909064822894284,0.416654710493214));
#1272=DIRECTION('ref_axis',(0.,-0.416654710493214,0.909064822894284));
#1273=DIRECTION('center_axis',(0.,0.983645632098638,-0.180114603664644));
#1274=DIRECTION('ref_axis',(1.,0.,0.));
#1275=DIRECTION('center_axis',(0.,0.909064822894284,0.416654710493214));
#1276=DIRECTION('ref_axis',(0.,-0.416654710493214,0.909064822894284));
#1277=DIRECTION('',(-1.,0.,0.));
#1278=DIRECTION('',(1.,0.,0.));
#1279=DIRECTION('',(0.0170424899245454,-0.416594198155554,0.908932795975754));
#1280=DIRECTION('',(1.,0.,0.));
#1281=DIRECTION('',(-0.0170424899245454,-0.416594198155554,0.908932795975755));
#1282=DIRECTION('',(1.,0.,0.));
#1283=DIRECTION('',(-1.,0.,0.));
#1284=DIRECTION('',(-0.0170424899245454,-0.416594198155554,0.908932795975755));
#1285=DIRECTION('',(1.,0.,0.));
#1286=DIRECTION('',(0.0170424899245454,-0.416594198155554,0.908932795975754));
#1287=DIRECTION('center_axis',(0.,0.416654710493214,-0.909064822894284));
#1288=DIRECTION('ref_axis',(1.,0.,0.));
#1289=DIRECTION('center_axis',(0.,0.416654710493213,-0.909064822894285));
#1290=DIRECTION('ref_axis',(1.,0.,0.));
#1291=DIRECTION('',(0.,0.416654710493214,-0.909064822894284));
#1292=DIRECTION('center_axis',(0.,0.416654710493213,-0.909064822894285));
#1293=DIRECTION('ref_axis',(1.,0.,0.));
#1294=DIRECTION('center_axis',(0.,0.416654710493213,-0.909064822894285));
#1295=DIRECTION('ref_axis',(1.,0.,0.));
#1296=DIRECTION('center_axis',(0.,0.416654710493213,-0.909064822894285));
#1297=DIRECTION('ref_axis',(1.,0.,0.));
#1298=DIRECTION('center_axis',(1.,0.,0.));
#1299=DIRECTION('ref_axis',(0.,0.,-1.));
#1300=DIRECTION('center_axis',(-1.,0.,0.));
#1301=DIRECTION('ref_axis',(0.,0.,1.));
#1302=DIRECTION('center_axis',(-1.,0.,0.));
#1303=DIRECTION('ref_axis',(0.,0.,1.));
#1304=DIRECTION('center_axis',(0.,1.,0.));
#1305=DIRECTION('ref_axis',(2.44929359829471E-16,0.,1.));
#1306=DIRECTION('center_axis',(1.1686558153949E-16,1.,0.));
#1307=DIRECTION('ref_axis',(0.,0.,1.));
#1308=DIRECTION('center_axis',(-1.1686558153949E-16,-1.,0.));
#1309=DIRECTION('ref_axis',(0.,0.,1.));
#1310=DIRECTION('center_axis',(2.3373116307898E-16,1.,0.));
#1311=DIRECTION('ref_axis',(1.,-2.3373116307898E-16,0.));
#1312=DIRECTION('',(0.,0.,-1.));
#1313=DIRECTION('',(1.,-2.3373116307898E-16,0.));
#1314=DIRECTION('',(-1.,4.93038065763132E-32,-1.23259516440783E-32));
#1315=DIRECTION('',(1.,-2.3373116307898E-16,0.));
#1316=DIRECTION('',(1.,4.93038065763132E-32,-1.23259516440783E-32));
#1317=DIRECTION('',(1.,-2.3373116307898E-16,0.));
#1318=DIRECTION('',(0.,0.,-1.));
#1319=DIRECTION('center_axis',(-1.,5.55111512312578E-16,0.));
#1320=DIRECTION('ref_axis',(5.55111512312578E-16,1.,0.));
#1321=DIRECTION('',(0.,0.,-1.));
#1322=DIRECTION('',(5.55111512312578E-16,1.,0.));
#1323=DIRECTION('center_axis',(0.,0.,-1.));
#1324=DIRECTION('ref_axis',(-1.,0.,0.));
#1325=DIRECTION('',(-8.32667268468868E-16,-1.,0.));
#1326=DIRECTION('',(-1.,2.3373116307898E-16,0.));
#1327=DIRECTION('center_axis',(0.,0.,-1.));
#1328=DIRECTION('ref_axis',(-1.,0.,0.));
#1329=DIRECTION('',(4.93038065763132E-32,1.,0.));
#1330=DIRECTION('',(-4.93038065763132E-32,1.,0.));
#1331=DIRECTION('',(-1.,2.3373116307898E-16,0.));
#1332=DIRECTION('center_axis',(0.,0.,-1.));
#1333=DIRECTION('ref_axis',(-1.,0.,0.));
#1334=DIRECTION('',(8.32667268468868E-16,-1.,0.));
#1335=DIRECTION('',(-1.,2.3373116307898E-16,0.));
#1336=DIRECTION('',(0.,-1.,0.));
#1337=DIRECTION('center_axis',(1.,0.,0.));
#1338=DIRECTION('ref_axis',(0.,-1.,0.));
#1339=DIRECTION('',(0.,0.,-1.));
#1340=DIRECTION('center_axis',(-2.3373116307898E-16,-1.,0.));
#1341=DIRECTION('ref_axis',(-1.,2.3373116307898E-16,0.));
#1342=DIRECTION('',(-1.,-4.93038065763132E-32,1.23259516440783E-32));
#1343=DIRECTION('',(1.,-4.93038065763132E-32,1.23259516440783E-32));
#1344=DIRECTION('center_axis',(1.804500002864E-16,-0.909064822894284,-0.416654710493214));
#1345=DIRECTION('ref_axis',(0.,-0.416654710493214,0.909064822894284));
#1346=DIRECTION('',(0.0170424899245454,-0.416594198155554,0.908932795975754));
#1347=DIRECTION('',(1.85037170770859E-16,-0.416654710493214,0.909064822894284));
#1348=DIRECTION('',(1.,0.,0.));
#1349=DIRECTION('center_axis',(0.,-0.749445549903095,0.662065984423341));
#1350=DIRECTION('ref_axis',(1.,0.,0.));
#1351=DIRECTION('',(0.0682798400127327,-0.660520860411684,-0.747696500198339));
#1352=DIRECTION('',(0.0682798400127328,-0.660520860411684,-0.747696500198339));
#1353=DIRECTION('',(0.0862932130456744,-0.7539882530382,-0.651195205497289));
#1354=DIRECTION('center_axis',(0.,0.653633399633143,-0.756811323173762));
#1355=DIRECTION('ref_axis',(-1.,0.,0.));
#1356=DIRECTION('',(0.0862932130456743,-0.753988253038201,-0.651195205497289));
#1357=DIRECTION('center_axis',(1.804500002864E-16,0.909064822894284,0.416654710493214));
#1358=DIRECTION('ref_axis',(0.,-0.416654710493214,0.909064822894284));
#1359=DIRECTION('',(-0.0170424899245454,-0.416594198155554,0.908932795975755));
#1360=DIRECTION('',(-1.,0.,0.));
#1361=DIRECTION('',(-1.85037170770859E-16,-0.416654710493214,0.909064822894284));
#1362=DIRECTION('center_axis',(0.,0.749445549903095,-0.662065984423341));
#1363=DIRECTION('ref_axis',(-1.,0.,0.));
#1364=DIRECTION('',(-0.0682798400127328,-0.660520860411684,-0.747696500198339));
#1365=DIRECTION('',(-0.0682798400127327,-0.660520860411684,-0.747696500198339));
#1366=DIRECTION('',(-0.0862932130456744,-0.7539882530382,-0.651195205497289));
#1367=DIRECTION('center_axis',(0.,-0.653633399633143,0.756811323173762));
#1368=DIRECTION('ref_axis',(1.,0.,0.));
#1369=DIRECTION('',(-0.0862932130456743,-0.753988253038201,-0.651195205497289));
#1370=DIRECTION('center_axis',(0.999824265084997,0.,0.0187467049703436));
#1371=DIRECTION('ref_axis',(0.0187467049703436,0.,-0.999824265084997));
#1372=DIRECTION('',(0.,-1.,0.));
#1373=DIRECTION('',(-2.77555756156289E-16,-1.,0.));
#1374=DIRECTION('',(-0.0154489421505925,-0.566461212188396,0.823943581364939));
#1375=DIRECTION('center_axis',(-6.09913545001702E-16,-0.824041924199368,
-0.566528822887065));
#1376=DIRECTION('ref_axis',(-1.,0.,1.07657990266682E-15));
#1377=DIRECTION('',(-1.,7.40148683083436E-16,0.));
#1378=DIRECTION('',(-1.,0.,0.));
#1379=DIRECTION('',(-0.0455357416799941,-0.565941168277845,0.823187153858684));
#1380=DIRECTION('',(7.40148683083437E-17,1.,0.));
#1381=DIRECTION('',(-1.,0.,0.));
#1382=DIRECTION('',(7.40148683083437E-17,1.,0.));
#1383=DIRECTION('',(0.,-1.,0.));
#1384=DIRECTION('',(-1.,0.,0.));
#1385=DIRECTION('',(0.045535741679994,-0.565941168277845,0.823187153858684));
#1386=DIRECTION('',(0.,-1.,0.));
#1387=DIRECTION('center_axis',(-6.09913545001704E-16,-0.824041924199368,
-0.566528822887065));
#1388=DIRECTION('ref_axis',(-1.,0.,1.07657990266682E-15));
#1389=DIRECTION('',(-1.,7.40148683083438E-16,0.));
#1390=DIRECTION('',(-1.,0.,0.));
#1391=DIRECTION('',(0.0154489421505925,-0.566461212188395,0.823943581364939));
#1392=DIRECTION('center_axis',(-0.999824265084997,2.33690088352903E-16,
0.0187467049703438));
#1393=DIRECTION('ref_axis',(0.0187467049703438,0.,0.999824265084997));
#1394=DIRECTION('',(2.3373116307898E-16,1.,0.));
#1395=DIRECTION('',(1.38777878078145E-16,1.,0.));
#1396=DIRECTION('center_axis',(7.40148683083436E-16,1.,0.));
#1397=DIRECTION('ref_axis',(-1.,7.40148683083436E-16,0.));
#1398=DIRECTION('',(1.,-7.40148683083436E-16,0.));
#1399=DIRECTION('',(0.,0.,1.));
#1400=DIRECTION('',(0.,0.,1.));
#1401=DIRECTION('center_axis',(7.40148683083438E-16,1.,0.));
#1402=DIRECTION('ref_axis',(-1.,7.40148683083438E-16,0.));
#1403=DIRECTION('',(1.,-7.40148683083438E-16,0.));
#1404=DIRECTION('',(0.,0.,1.));
#1405=DIRECTION('',(0.,0.,1.));
#1406=DIRECTION('center_axis',(0.,0.,1.));
#1407=DIRECTION('ref_axis',(1.,0.,0.));
#1408=DIRECTION('',(2.06553120860494E-16,1.,0.));
#1409=DIRECTION('',(-1.,0.,0.));
#1410=DIRECTION('',(-2.06553120860494E-16,-1.,0.));
#1411=DIRECTION('',(-1.90323947078598E-16,1.,0.));
#1412=DIRECTION('',(1.,0.,0.));
#1413=DIRECTION('',(6.34413156928661E-17,-1.,0.));
#1414=DIRECTION('center_axis',(1.,1.90323947078598E-16,0.));
#1415=DIRECTION('ref_axis',(-1.90323947078598E-16,1.,0.));
#1416=DIRECTION('',(1.90323947078598E-16,-1.,0.));
#1417=DIRECTION('',(0.,0.,1.));
#1418=DIRECTION('',(0.,0.,1.));
#1419=DIRECTION('center_axis',(1.82003774528714E-16,1.,0.));
#1420=DIRECTION('ref_axis',(-1.,1.82003774528714E-16,0.));
#1421=DIRECTION('',(1.,-1.82003774528714E-16,0.));
#1422=DIRECTION('',(0.,0.,1.));
#1423=DIRECTION('center_axis',(-1.,-6.34413156928661E-17,0.));
#1424=DIRECTION('ref_axis',(6.34413156928661E-17,-1.,0.));
#1425=DIRECTION('',(-6.34413156928661E-17,1.,0.));
#1426=DIRECTION('',(0.,0.,1.));
#1427=DIRECTION('center_axis',(0.,-1.,0.));
#1428=DIRECTION('ref_axis',(1.,0.,0.));
#1429=DIRECTION('',(-1.,0.,0.));
#1430=DIRECTION('center_axis',(-1.,2.06553120860494E-16,0.));
#1431=DIRECTION('ref_axis',(-2.06553120860494E-16,-1.,0.));
#1432=DIRECTION('',(-2.06553120860494E-16,-1.,0.));
#1433=DIRECTION('',(0.,0.,1.));
#1434=DIRECTION('',(0.,0.,1.));
#1435=DIRECTION('center_axis',(0.,1.,0.));
#1436=DIRECTION('ref_axis',(-1.,0.,0.));
#1437=DIRECTION('',(-1.,0.,0.));
#1438=DIRECTION('',(0.,0.,1.));
#1439=DIRECTION('center_axis',(1.,-2.06553120860494E-16,0.));
#1440=DIRECTION('ref_axis',(2.06553120860494E-16,1.,0.));
#1441=DIRECTION('',(2.06553120860494E-16,1.,0.));
#1442=DIRECTION('',(0.,0.,1.));
#1443=DIRECTION('center_axis',(0.,-1.,0.));
#1444=DIRECTION('ref_axis',(1.,0.,0.));
#1445=DIRECTION('',(1.,0.,0.));
#1446=DIRECTION('center_axis',(0.,0.,1.));
#1447=DIRECTION('ref_axis',(1.,0.,0.));
#1448=DIRECTION('center_axis',(-1.,2.77555756156289E-16,0.));
#1449=DIRECTION('ref_axis',(-2.77555756156289E-16,-1.,0.));
#1450=DIRECTION('',(0.,0.,1.));
#1451=DIRECTION('',(-2.77555756156289E-16,-1.,0.));
#1452=DIRECTION('',(0.,0.,1.));
#1453=DIRECTION('center_axis',(0.,1.,0.));
#1454=DIRECTION('ref_axis',(-1.,0.,0.));
#1455=DIRECTION('',(-1.,0.,0.));
#1456=DIRECTION('',(0.,0.,1.));
#1457=DIRECTION('center_axis',(1.,-1.38777878078145E-16,0.));
#1458=DIRECTION('ref_axis',(1.38777878078145E-16,1.,0.));
#1459=DIRECTION('',(1.38777878078145E-16,1.,0.));
#1460=DIRECTION('',(0.,0.,1.));
#1461=DIRECTION('center_axis',(0.,-1.,0.));
#1462=DIRECTION('ref_axis',(1.,0.,0.));
#1463=DIRECTION('',(1.,0.,0.));
#1464=DIRECTION('center_axis',(0.,0.,1.));
#1465=DIRECTION('ref_axis',(1.,0.,0.));
#1466=DIRECTION('center_axis',(0.,0.,-1.));
#1467=DIRECTION('ref_axis',(-1.,0.,0.));
#1468=DIRECTION('',(-1.,1.82003774528714E-16,0.));
#1469=DIRECTION('',(-1.90323947078598E-16,1.,0.));
#1470=DIRECTION('',(1.,0.,0.));
#1471=DIRECTION('',(6.34413156928661E-17,-1.,0.));
#1472=DIRECTION('center_axis',(0.,0.,1.));
#1473=DIRECTION('ref_axis',(1.,0.,0.));
#1474=DIRECTION('center_axis',(0.,0.,1.));
#1475=DIRECTION('ref_axis',(1.,0.,0.));
#1476=DIRECTION('center_axis',(0.,0.,1.));
#1477=DIRECTION('ref_axis',(1.,0.,0.));
#1478=DIRECTION('',(1.,-1.82003774528714E-16,0.));
#1479=DIRECTION('',(-6.34413156928661E-17,1.,0.));
#1480=DIRECTION('',(-1.,0.,0.));
#1481=DIRECTION('',(1.90323947078598E-16,-1.,0.));
#1482=DIRECTION('center_axis',(0.,0.,-1.));
#1483=DIRECTION('ref_axis',(1.,0.,0.));
#1484=DIRECTION('center_axis',(0.,0.,-1.));
#1485=DIRECTION('ref_axis',(1.,0.,0.));
#1486=DIRECTION('center_axis',(-1.82003774528714E-16,-1.,0.));
#1487=DIRECTION('ref_axis',(-1.,1.82003774528714E-16,0.));
#1488=DIRECTION('',(0.,0.,-1.));
#1489=DIRECTION('',(0.,0.,-1.));
#1490=DIRECTION('center_axis',(-1.,-1.90323947078598E-16,0.));
#1491=DIRECTION('ref_axis',(-1.90323947078598E-16,1.,0.));
#1492=DIRECTION('',(0.,0.,-1.));
#1493=DIRECTION('center_axis',(0.,1.,0.));
#1494=DIRECTION('ref_axis',(1.,0.,0.));
#1495=DIRECTION('',(0.,0.,-1.));
#1496=DIRECTION('center_axis',(1.,6.34413156928661E-17,0.));
#1497=DIRECTION('ref_axis',(6.34413156928661E-17,-1.,0.));
#1498=DIRECTION('center_axis',(0.,0.,1.));
#1499=DIRECTION('ref_axis',(1.,0.,0.));
#1500=DIRECTION('center_axis',(0.,0.,1.));
#1501=DIRECTION('ref_axis',(1.,0.,0.));
#1502=DIRECTION('',(0.,0.,-1.));
#1503=DIRECTION('center_axis',(0.,0.,1.));
#1504=DIRECTION('ref_axis',(1.,0.,0.));
#1505=DIRECTION('',(0.,0.,-1.));
#1506=DIRECTION('center_axis',(0.,0.,1.));
#1507=DIRECTION('ref_axis',(1.,0.,0.));
#1508=DIRECTION('center_axis',(0.,0.,1.));
#1509=DIRECTION('ref_axis',(1.,0.,0.));
#1510=DIRECTION('center_axis',(0.,0.,-1.));
#1511=DIRECTION('ref_axis',(1.,0.,0.));
#1512=DIRECTION('',(0.,0.,-1.));
#1513=CARTESIAN_POINT('',(0.,0.,0.));
#1514=CARTESIAN_POINT('Origin',(-2.77555756156289E-15,-18.25,32.));
#1515=CARTESIAN_POINT('',(-3.,-17.75,32.));
#1516=CARTESIAN_POINT('Origin',(-2.77555756156289E-15,-17.75,32.));
#1517=CARTESIAN_POINT('',(-2.,-18.75,32.));
#1518=CARTESIAN_POINT('',(-2.5,-18.25,32.));
#1519=CARTESIAN_POINT('Origin',(-2.77555756156289E-15,-18.75,32.));
#1520=CARTESIAN_POINT('Origin',(-2.77555756156289E-15,-91.6180388166979,
32.));
#1521=CARTESIAN_POINT('',(-2.,-21.75,32.));
#1522=CARTESIAN_POINT('',(-2.,-91.6180388166979,32.));
#1523=CARTESIAN_POINT('Origin',(-2.77555756156289E-15,-21.75,32.));
#1524=CARTESIAN_POINT('Origin',(-2.4980018054066E-15,-18.25,47.));
#1525=CARTESIAN_POINT('',(-3.,-17.75,47.));
#1526=CARTESIAN_POINT('Origin',(-2.4980018054066E-15,-17.75,47.));
#1527=CARTESIAN_POINT('',(-2.,-18.75,47.));
#1528=CARTESIAN_POINT('',(-2.5,-18.25,47.));
#1529=CARTESIAN_POINT('Origin',(-2.4980018054066E-15,-18.75,47.));
#1530=CARTESIAN_POINT('Origin',(-2.4980018054066E-15,-91.6180388166979,
47.));
#1531=CARTESIAN_POINT('',(-2.,-21.75,47.));
#1532=CARTESIAN_POINT('',(-2.,-91.6180388166979,47.));
#1533=CARTESIAN_POINT('Origin',(-2.4980018054066E-15,-21.75,47.));
#1534=CARTESIAN_POINT('Origin',(1.11022302462516E-15,-10.505617207942,7.68164588784522));
#1535=CARTESIAN_POINT('',(-1.25,-10.505617207942,7.68164588784521));
#1536=CARTESIAN_POINT('',(1.25,-10.505617207942,7.68164588784519));
#1537=CARTESIAN_POINT('Origin',(1.11022302462516E-15,-10.505617207942,7.68164588784522));
#1538=CARTESIAN_POINT('Origin',(-5.55111512312578E-16,-10.505617207942,
7.68164588784519));
#1539=CARTESIAN_POINT('Origin',(-3.05,-8.75,3.));
#1540=CARTESIAN_POINT('',(3.05,-8.75,3.));
#1541=CARTESIAN_POINT('',(-3.05,-8.75,3.));
#1542=CARTESIAN_POINT('',(3.05,-8.75,3.));
#1543=CARTESIAN_POINT('',(-1.2655601659751,-17.75,27.));
#1544=CARTESIAN_POINT('',(-3.05,-8.75,3.));
#1545=CARTESIAN_POINT('',(1.2655601659751,-17.75,27.));
#1546=CARTESIAN_POINT('',(5.,-17.75,27.));
#1547=CARTESIAN_POINT('',(3.05,-8.75,3.));
#1548=CARTESIAN_POINT('',(0.726557396552147,-11.535086198411,10.426896529096));
#1549=CARTESIAN_POINT('Ctrl Pts',(1.25,-10.5056172079419,7.68164588784518));
#1550=CARTESIAN_POINT('Ctrl Pts',(1.25,-10.6356162486371,8.02830999636558));
#1551=CARTESIAN_POINT('Ctrl Pts',(1.18455289557704,-10.7899132345472,8.43976862545908));
#1552=CARTESIAN_POINT('Ctrl Pts',(0.988392098848227,-11.1103060546835,9.29414947915603));
#1553=CARTESIAN_POINT('Ctrl Pts',(0.784558865339674,-11.3299995762521,9.87999887000559));
#1554=CARTESIAN_POINT('Ctrl Pts',(0.726557396552148,-11.535086198411,10.426896529096));
#1555=CARTESIAN_POINT('',(-0.726557396552148,-11.535086198411,10.426896529096));
#1556=CARTESIAN_POINT('Origin',(-5.55111512312578E-16,-6.5,-3.));
#1557=CARTESIAN_POINT('Ctrl Pts',(-0.726557396552148,-11.535086198411,10.426896529096));
#1558=CARTESIAN_POINT('Ctrl Pts',(-0.784558865339675,-11.3299995762521,
9.87999887000559));
#1559=CARTESIAN_POINT('Ctrl Pts',(-0.988392098848227,-11.1103060546835,
9.29414947915603));
#1560=CARTESIAN_POINT('Ctrl Pts',(-1.18455289557705,-10.7899132345472,8.43976862545908));
#1561=CARTESIAN_POINT('Ctrl Pts',(-1.25,-10.6356162486371,8.02830999636558));
#1562=CARTESIAN_POINT('Ctrl Pts',(-1.25,-10.5056172079419,7.68164588784518));
#1563=CARTESIAN_POINT('Origin',(-5.55111512312578E-16,-18.9723218564292,
20.9396113231183));
#1564=CARTESIAN_POINT('',(-1.25,-18.9723218564292,20.9396113231183));
#1565=CARTESIAN_POINT('',(1.25,-18.9723218564292,20.9396113231183));
#1566=CARTESIAN_POINT('Origin',(-5.55111512312578E-16,-18.9723218564292,
20.9396113231183));
#1567=CARTESIAN_POINT('Origin',(-5.55111512312578E-16,-18.9723218564292,
20.9396113231183));
#1568=CARTESIAN_POINT('Origin',(4.55,-10.75,3.));
#1569=CARTESIAN_POINT('',(4.79546041484878,-16.7501434740814,16.0912221252686));
#1570=CARTESIAN_POINT('',(3.39773020742439,-16.7501434740814,16.0912221252686));
#1571=CARTESIAN_POINT('',(3.97386510371219,-16.7501434740814,16.0912221252686));
#1572=CARTESIAN_POINT('',(3.39773020742439,-19.2500717370407,21.5456110626343));
#1573=CARTESIAN_POINT('Ctrl Pts',(3.39773020742439,-16.7501434740814,16.0912221252686));
#1574=CARTESIAN_POINT('Ctrl Pts',(3.39773020742439,-17.5834528950679,17.9093517710572));
#1575=CARTESIAN_POINT('Ctrl Pts',(3.39773020742439,-18.4167623160543,19.7274814168457));
#1576=CARTESIAN_POINT('Ctrl Pts',(3.39773020742439,-19.2500717370407,21.5456110626343));
#1577=CARTESIAN_POINT('',(4.89773020742439,-19.2500717370407,21.5456110626343));
#1578=CARTESIAN_POINT('',(4.72386510371219,-19.2500717370407,21.5456110626343));
#1579=CARTESIAN_POINT('',(5.,-21.75,27.));
#1580=CARTESIAN_POINT('',(4.55,-10.75,3.));
#1581=CARTESIAN_POINT('',(-5.,-21.75,27.));
#1582=CARTESIAN_POINT('',(-5.,-21.75,27.));
#1583=CARTESIAN_POINT('',(-4.89773020742439,-19.2500717370407,21.5456110626343));
#1584=CARTESIAN_POINT('',(-4.55,-10.75,3.));
#1585=CARTESIAN_POINT('',(-3.39773020742439,-19.2500717370407,21.5456110626343));
#1586=CARTESIAN_POINT('',(-0.173865103712196,-19.2500717370407,21.5456110626343));
#1587=CARTESIAN_POINT('',(-3.39773020742439,-16.7501434740814,16.0912221252686));
#1588=CARTESIAN_POINT('Ctrl Pts',(-3.39773020742439,-19.2500717370407,21.5456110626343));
#1589=CARTESIAN_POINT('Ctrl Pts',(-3.39773020742439,-18.4167623160543,19.7274814168457));
#1590=CARTESIAN_POINT('Ctrl Pts',(-3.39773020742439,-17.5834528950679,17.9093517710572));
#1591=CARTESIAN_POINT('Ctrl Pts',(-3.39773020742439,-16.7501434740814,16.0912221252686));
#1592=CARTESIAN_POINT('',(-4.79546041484879,-16.7501434740814,16.0912221252686));
#1593=CARTESIAN_POINT('',(0.576134896287805,-16.7501434740814,16.0912221252686));
#1594=CARTESIAN_POINT('',(-4.55,-10.75,3.));
#1595=CARTESIAN_POINT('',(-4.55,-10.75,3.));
#1596=CARTESIAN_POINT('',(4.55,-10.75,3.));
#1597=CARTESIAN_POINT('',(-4.55,-10.75,3.));
#1598=CARTESIAN_POINT('',(4.55,-10.75,3.));
#1599=CARTESIAN_POINT('',(-4.74234278675927E-16,-18.1540136038944,19.1542114994059));
#1600=CARTESIAN_POINT('Ctrl Pts',(1.25,-18.9723218564292,20.9396113231183));
#1601=CARTESIAN_POINT('Ctrl Pts',(1.25,-18.885273146378,20.7496868648247));
#1602=CARTESIAN_POINT('Ctrl Pts',(1.2061976277797,-18.7824213659135,20.5252829801749));
#1603=CARTESIAN_POINT('Ctrl Pts',(1.06735557379885,-18.6052221352865,20.1386664769886));
#1604=CARTESIAN_POINT('Ctrl Pts',(0.938165846866606,-18.4988395739234,19.9065590703784));
#1605=CARTESIAN_POINT('Ctrl Pts',(0.685340094990691,-18.3448829639139,19.5706537394486));
#1606=CARTESIAN_POINT('Ctrl Pts',(0.523722915949206,-18.2648022007956,19.395932074463));
#1607=CARTESIAN_POINT('Ctrl Pts',(0.300515605709408,-18.1954134338871,19.2445384012082));
#1608=CARTESIAN_POINT('Ctrl Pts',(0.229499669098957,-18.1774581118565,19.2053631531415));
#1609=CARTESIAN_POINT('Ctrl Pts',(0.115226436877574,-18.1594121745585,19.1659901990368));
#1610=CARTESIAN_POINT('Ctrl Pts',(0.0529821418589233,-18.1540136038944,
19.1542114994059));
#1611=CARTESIAN_POINT('Ctrl Pts',(-5.46437894932694E-16,-18.1540136038944,
19.1542114994059));
#1612=CARTESIAN_POINT('Ctrl Pts',(-5.46437894932694E-16,-18.1540136038944,
19.1542114994059));
#1613=CARTESIAN_POINT('Ctrl Pts',(-0.0529821418589245,-18.1540136038944,
19.1542114994059));
#1614=CARTESIAN_POINT('Ctrl Pts',(-0.115226436877576,-18.1594121745585,
19.1659901990368));
#1615=CARTESIAN_POINT('Ctrl Pts',(-0.229499669098959,-18.1774581118565,
19.2053631531415));
#1616=CARTESIAN_POINT('Ctrl Pts',(-0.300515605709409,-18.1954134338871,
19.2445384012082));
#1617=CARTESIAN_POINT('Ctrl Pts',(-0.523722915949207,-18.2648022007956,
19.395932074463));
#1618=CARTESIAN_POINT('Ctrl Pts',(-0.685340094990692,-18.3448829639139,
19.5706537394486));
#1619=CARTESIAN_POINT('Ctrl Pts',(-0.938165846866607,-18.4988395739234,
19.9065590703784));
#1620=CARTESIAN_POINT('Ctrl Pts',(-1.06735557379885,-18.6052221352865,20.1386664769886));
#1621=CARTESIAN_POINT('Ctrl Pts',(-1.2061976277797,-18.7824213659135,20.5252829801749));
#1622=CARTESIAN_POINT('Ctrl Pts',(-1.25,-18.885273146378,20.7496868648247));
#1623=CARTESIAN_POINT('Ctrl Pts',(-1.25,-18.9723218564292,20.9396113231183));
#1624=CARTESIAN_POINT('Origin',(-5.55111512312578E-16,-16.6413190984944,
19.126514396715));
#1625=CARTESIAN_POINT('',(-1.25,-16.6413190984944,19.126514396715));
#1626=CARTESIAN_POINT('',(-4.02030662419159E-16,-17.7776501271122,18.6056960085985));
#1627=CARTESIAN_POINT('Origin',(-5.55111512312578E-16,-16.6413190984944,
19.126514396715));
#1628=CARTESIAN_POINT('',(-1.25,-12.4597505217921,10.0030920475464));
#1629=CARTESIAN_POINT('',(-1.25,-16.6413190984944,19.126514396715));
#1630=CARTESIAN_POINT('Origin',(-5.55111512312578E-16,-12.4597505217921,
10.0030920475464));
#1631=CARTESIAN_POINT('Origin',(-5.55111512312578E-16,-12.4597505217921,
10.0030920475464));
#1632=CARTESIAN_POINT('Origin',(-5.55111512312578E-16,-16.6413190984944,
19.126514396715));
#1633=CARTESIAN_POINT('Origin',(-5.55111512312578E-16,-7.2876547357851,
12.3736359494663));
#1634=CARTESIAN_POINT('Origin',(-5.55111512312578E-16,-19.5482838725053,
17.79415554196));
#1635=CARTESIAN_POINT('Origin',(-4.02030662419159E-16,-19.5482838725053,
17.79415554196));
#1636=CARTESIAN_POINT('Origin',(0.,-34.2803618618463,-74.));
#1637=CARTESIAN_POINT('',(9.5,-34.75,2.71401436504284));
#1638=CARTESIAN_POINT('',(9.5,-30.75,1.60548921870686));
#1639=CARTESIAN_POINT('Ctrl Pts',(9.5,-34.75,2.71401436504284));
#1640=CARTESIAN_POINT('Ctrl Pts',(9.5,-34.5897174149332,2.72641835517117));
#1641=CARTESIAN_POINT('Ctrl Pts',(9.5,-34.4322158073549,2.73215985302443));
#1642=CARTESIAN_POINT('Ctrl Pts',(9.5,-34.2803618618463,2.73215985302443));
#1643=CARTESIAN_POINT('Ctrl Pts',(9.5,-33.9028847464749,2.73215985302443));
#1644=CARTESIAN_POINT('Ctrl Pts',(9.5,-33.4906626775044,2.69472382948241));
#1645=CARTESIAN_POINT('Ctrl Pts',(9.5,-32.6834894760582,2.53338658316538));
#1646=CARTESIAN_POINT('Ctrl Pts',(9.5,-32.288537118768,2.40949148821967));
#1647=CARTESIAN_POINT('Ctrl Pts',(9.5,-31.5901388526194,2.11893507334008));
#1648=CARTESIAN_POINT('Ctrl Pts',(9.5,-31.2225078553161,1.92525264205062));
#1649=CARTESIAN_POINT('Ctrl Pts',(9.5,-30.8359310762016,1.66563279640898));
#1650=CARTESIAN_POINT('Ctrl Pts',(9.5,-30.7927434567695,1.6358158176482));
#1651=CARTESIAN_POINT('Ctrl Pts',(9.5,-30.75,1.60548921870686));
#1652=CARTESIAN_POINT('',(-9.50000000000001,-34.75,2.71401436504284));
#1653=CARTESIAN_POINT('Origin',(-5.48845341284586E-17,-34.75,-74.));
#1654=CARTESIAN_POINT('',(-9.50000000000001,-30.75,1.60548921870686));
#1655=CARTESIAN_POINT('Ctrl Pts',(-9.50000000000001,-30.75,1.60548921870686));
#1656=CARTESIAN_POINT('Ctrl Pts',(-9.50000000000001,-30.7927434567695,1.6358158176482));
#1657=CARTESIAN_POINT('Ctrl Pts',(-9.50000000000001,-30.8359310762016,1.66563279640898));
#1658=CARTESIAN_POINT('Ctrl Pts',(-9.50000000000001,-31.2225078553161,1.92525264205062));
#1659=CARTESIAN_POINT('Ctrl Pts',(-9.50000000000001,-31.5901388526194,2.11893507334008));
#1660=CARTESIAN_POINT('Ctrl Pts',(-9.50000000000001,-32.288537118768,2.40949148821967));
#1661=CARTESIAN_POINT('Ctrl Pts',(-9.50000000000001,-32.6834894760582,2.53338658316538));
#1662=CARTESIAN_POINT('Ctrl Pts',(-9.50000000000001,-33.4906626775044,2.69472382948241));
#1663=CARTESIAN_POINT('Ctrl Pts',(-9.50000000000001,-33.9028847464749,2.73215985302443));
#1664=CARTESIAN_POINT('Ctrl Pts',(-9.50000000000001,-34.2803618618463,2.73215985302443));
#1665=CARTESIAN_POINT('Ctrl Pts',(-9.50000000000001,-34.4322158073549,2.73215985302443));
#1666=CARTESIAN_POINT('Ctrl Pts',(-9.50000000000001,-34.5897174149332,2.72641835517117));
#1667=CARTESIAN_POINT('Ctrl Pts',(-9.50000000000001,-34.75,2.71401436504284));
#1668=CARTESIAN_POINT('Origin',(4.12577792029502E-16,-30.75,-74.));
#1669=CARTESIAN_POINT('Origin',(-9.50000000000001,-30.75,4.));
#1670=CARTESIAN_POINT('',(-9.50000000000001,-30.75,4.));
#1671=CARTESIAN_POINT('',(-9.50000000000001,-30.75,4.));
#1672=CARTESIAN_POINT('',(-6.5,-30.75,4.));
#1673=CARTESIAN_POINT('',(-9.50000000000001,-30.75,4.));
#1674=CARTESIAN_POINT('',(-5.,-30.75,4.));
#1675=CARTESIAN_POINT('',(-6.5,-30.75,4.));
#1676=CARTESIAN_POINT('',(5.,-30.75,4.));
#1677=CARTESIAN_POINT('',(-9.50000000000001,-30.75,4.));
#1678=CARTESIAN_POINT('',(6.5,-30.75,4.));
#1679=CARTESIAN_POINT('',(6.5,-30.75,4.));
#1680=CARTESIAN_POINT('',(9.5,-30.75,4.));
#1681=CARTESIAN_POINT('',(-9.50000000000001,-30.75,4.));
#1682=CARTESIAN_POINT('',(9.5,-30.75,4.));
#1683=CARTESIAN_POINT('Origin',(-9.50000000000001,-34.75,4.));
#1684=CARTESIAN_POINT('',(-9.50000000000001,-34.75,4.));
#1685=CARTESIAN_POINT('',(-9.50000000000001,-34.75,4.));
#1686=CARTESIAN_POINT('',(-9.50000000000001,-34.75,4.));
#1687=CARTESIAN_POINT('Origin',(-5.55111512312578E-15,-32.75,4.));
#1688=CARTESIAN_POINT('',(-6.5,-34.75,4.));
#1689=CARTESIAN_POINT('',(-6.5,-34.75,4.));
#1690=CARTESIAN_POINT('',(9.5,-34.75,4.));
#1691=CARTESIAN_POINT('Origin',(-5.55111512312578E-15,-32.75,4.));
#1692=CARTESIAN_POINT('',(5.,-34.75,4.));
#1693=CARTESIAN_POINT('',(5.,-30.75,4.));
#1694=CARTESIAN_POINT('',(-5.,-34.75,4.));
#1695=CARTESIAN_POINT('',(-5.,-30.75,4.));
#1696=CARTESIAN_POINT('',(9.5,-34.75,4.));
#1697=CARTESIAN_POINT('Origin',(-5.55111512312578E-15,-32.75,4.));
#1698=CARTESIAN_POINT('',(6.5,-34.75,4.));
#1699=CARTESIAN_POINT('',(6.5,-34.75,4.));
#1700=CARTESIAN_POINT('',(9.5,-34.75,4.));
#1701=CARTESIAN_POINT('',(9.5,-34.75,4.));
#1702=CARTESIAN_POINT('',(9.5,-30.75,4.));
#1703=CARTESIAN_POINT('Origin',(9.5,-30.75,4.));
#1704=CARTESIAN_POINT('',(9.5,-34.75,4.));
#1705=CARTESIAN_POINT('Origin',(9.5,-34.75,4.));
#1706=CARTESIAN_POINT('',(5.,-34.75,4.));
#1707=CARTESIAN_POINT('',(-5.,-34.75,4.));
#1708=CARTESIAN_POINT('Origin',(4.14773020742439,-18.0001076055611,18.8184165939514));
#1709=CARTESIAN_POINT('',(4.55,-10.75,3.));
#1710=CARTESIAN_POINT('',(4.89773020742439,-16.7501434740814,16.0912221252686));
#1711=CARTESIAN_POINT('',(4.89773020742439,-16.7501434740814,16.0912221252686));
#1712=CARTESIAN_POINT('',(3.39773020742439,-16.7501434740814,16.0912221252686));
#1713=CARTESIAN_POINT('Origin',(4.89773020742439,-19.2500717370407,21.5456110626343));
#1714=CARTESIAN_POINT('',(3.39773020742439,-19.2500717370407,21.5456110626343));
#1715=CARTESIAN_POINT('',(4.89773020742439,-19.2500717370407,21.5456110626343));
#1716=CARTESIAN_POINT('Ctrl Pts',(3.39773020742439,-19.2500717370407,21.5456110626343));
#1717=CARTESIAN_POINT('Ctrl Pts',(3.93182013828293,-24.4167144913605,15.6970740417562));
#1718=CARTESIAN_POINT('Ctrl Pts',(4.46591006914147,-29.5833572456802,9.8485370208781));
#1719=CARTESIAN_POINT('Ctrl Pts',(5.,-34.75,4.));
#1720=CARTESIAN_POINT('Ctrl Pts',(3.39773020742439,-18.4167623160543,19.7274814168457));
#1721=CARTESIAN_POINT('Ctrl Pts',(3.93182013828293,-23.4167304329251,14.4849876112305));
#1722=CARTESIAN_POINT('Ctrl Pts',(4.46591006914147,-28.4166985497959,9.24249380561524));
#1723=CARTESIAN_POINT('Ctrl Pts',(5.,-33.4166666666667,4.));
#1724=CARTESIAN_POINT('Ctrl Pts',(3.39773020742439,-17.5834528950679,17.9093517710572));
#1725=CARTESIAN_POINT('Ctrl Pts',(3.93182013828293,-22.4167463744897,13.2729011807048));
#1726=CARTESIAN_POINT('Ctrl Pts',(4.46591006914146,-27.2500398539115,8.63645059035239));
#1727=CARTESIAN_POINT('Ctrl Pts',(5.,-32.0833333333333,4.));
#1728=CARTESIAN_POINT('Ctrl Pts',(3.39773020742439,-16.7501434740814,16.0912221252686));
#1729=CARTESIAN_POINT('Ctrl Pts',(3.93182013828293,-21.4167623160543,12.0608147501791));
#1730=CARTESIAN_POINT('Ctrl Pts',(4.46591006914146,-26.0833811580271,8.03040737508953));
#1731=CARTESIAN_POINT('Ctrl Pts',(5.,-30.75,4.));
#1732=CARTESIAN_POINT('',(3.39773020742439,-16.7501434740814,16.0912221252686));
#1733=CARTESIAN_POINT('Origin',(3.39773020742439,-16.7501434740814,16.0912221252686));
#1734=CARTESIAN_POINT('',(4.89773020742439,-16.7501434740814,16.0912221252686));
#1735=CARTESIAN_POINT('Ctrl Pts',(4.89773020742439,-16.7501434740814,16.0912221252686));
#1736=CARTESIAN_POINT('Ctrl Pts',(5.43182013828293,-21.4167623160543,12.0608147501791));
#1737=CARTESIAN_POINT('Ctrl Pts',(5.96591006914146,-26.0833811580271,8.03040737508953));
#1738=CARTESIAN_POINT('Ctrl Pts',(6.5,-30.75,4.));
#1739=CARTESIAN_POINT('Ctrl Pts',(4.89773020742439,-17.5834528950679,17.9093517710572));
#1740=CARTESIAN_POINT('Ctrl Pts',(5.43182013828293,-22.4167463744897,13.2729011807048));
#1741=CARTESIAN_POINT('Ctrl Pts',(5.96591006914147,-27.2500398539115,8.63645059035238));
#1742=CARTESIAN_POINT('Ctrl Pts',(6.5,-32.0833333333333,4.));
#1743=CARTESIAN_POINT('Ctrl Pts',(4.89773020742439,-18.4167623160543,19.7274814168457));
#1744=CARTESIAN_POINT('Ctrl Pts',(5.43182013828293,-23.4167304329251,14.4849876112305));
#1745=CARTESIAN_POINT('Ctrl Pts',(5.96591006914147,-28.4166985497959,9.24249380561525));
#1746=CARTESIAN_POINT('Ctrl Pts',(6.5,-33.4166666666667,4.));
#1747=CARTESIAN_POINT('Ctrl Pts',(4.89773020742439,-19.2500717370407,21.5456110626343));
#1748=CARTESIAN_POINT('Ctrl Pts',(5.43182013828293,-24.4167144913605,15.6970740417562));
#1749=CARTESIAN_POINT('Ctrl Pts',(5.96591006914147,-29.5833572456802,9.8485370208781));
#1750=CARTESIAN_POINT('Ctrl Pts',(6.5,-34.75,4.));
#1751=CARTESIAN_POINT('Origin',(-4.14773020742439,-18.0001076055611,18.8184165939514));
#1752=CARTESIAN_POINT('',(-4.55,-10.75,3.));
#1753=CARTESIAN_POINT('',(-4.89773020742439,-16.7501434740814,16.0912221252686));
#1754=CARTESIAN_POINT('',(-3.39773020742439,-16.7501434740814,16.0912221252686));
#1755=CARTESIAN_POINT('',(-4.89773020742439,-16.7501434740814,16.0912221252686));
#1756=CARTESIAN_POINT('Origin',(-4.89773020742439,-19.2500717370407,21.5456110626343));
#1757=CARTESIAN_POINT('',(-4.89773020742439,-19.2500717370407,21.5456110626343));
#1758=CARTESIAN_POINT('',(-3.39773020742439,-19.2500717370407,21.5456110626343));
#1759=CARTESIAN_POINT('Ctrl Pts',(-3.39773020742439,-19.2500717370407,21.5456110626343));
#1760=CARTESIAN_POINT('Ctrl Pts',(-3.93182013828293,-24.4167144913605,15.6970740417562));
#1761=CARTESIAN_POINT('Ctrl Pts',(-4.46591006914147,-29.5833572456802,9.8485370208781));
#1762=CARTESIAN_POINT('Ctrl Pts',(-5.,-34.75,4.));
#1763=CARTESIAN_POINT('Ctrl Pts',(-3.39773020742439,-18.4167623160543,19.7274814168457));
#1764=CARTESIAN_POINT('Ctrl Pts',(-3.93182013828293,-23.4167304329251,14.4849876112305));
#1765=CARTESIAN_POINT('Ctrl Pts',(-4.46591006914147,-28.4166985497959,9.24249380561524));
#1766=CARTESIAN_POINT('Ctrl Pts',(-5.,-33.4166666666667,4.));
#1767=CARTESIAN_POINT('Ctrl Pts',(-3.39773020742439,-17.5834528950679,17.9093517710572));
#1768=CARTESIAN_POINT('Ctrl Pts',(-3.93182013828293,-22.4167463744897,13.2729011807048));
#1769=CARTESIAN_POINT('Ctrl Pts',(-4.46591006914146,-27.2500398539115,8.63645059035239));
#1770=CARTESIAN_POINT('Ctrl Pts',(-5.,-32.0833333333333,4.));
#1771=CARTESIAN_POINT('Ctrl Pts',(-3.39773020742439,-16.7501434740814,16.0912221252686));
#1772=CARTESIAN_POINT('Ctrl Pts',(-3.93182013828293,-21.4167623160543,12.0608147501791));
#1773=CARTESIAN_POINT('Ctrl Pts',(-4.46591006914146,-26.0833811580271,8.03040737508953));
#1774=CARTESIAN_POINT('Ctrl Pts',(-5.,-30.75,4.));
#1775=CARTESIAN_POINT('',(-3.39773020742439,-16.7501434740814,16.0912221252686));
#1776=CARTESIAN_POINT('Origin',(-3.39773020742439,-16.7501434740814,16.0912221252686));
#1777=CARTESIAN_POINT('',(-4.89773020742439,-16.7501434740814,16.0912221252686));
#1778=CARTESIAN_POINT('Ctrl Pts',(-4.89773020742439,-16.7501434740814,16.0912221252686));
#1779=CARTESIAN_POINT('Ctrl Pts',(-5.43182013828293,-21.4167623160543,12.0608147501791));
#1780=CARTESIAN_POINT('Ctrl Pts',(-5.96591006914146,-26.0833811580271,8.03040737508953));
#1781=CARTESIAN_POINT('Ctrl Pts',(-6.5,-30.75,4.));
#1782=CARTESIAN_POINT('Ctrl Pts',(-4.89773020742439,-17.5834528950679,17.9093517710572));
#1783=CARTESIAN_POINT('Ctrl Pts',(-5.43182013828293,-22.4167463744897,13.2729011807048));
#1784=CARTESIAN_POINT('Ctrl Pts',(-5.96591006914147,-27.2500398539115,8.63645059035238));
#1785=CARTESIAN_POINT('Ctrl Pts',(-6.5,-32.0833333333333,4.));
#1786=CARTESIAN_POINT('Ctrl Pts',(-4.89773020742439,-18.4167623160543,19.7274814168457));
#1787=CARTESIAN_POINT('Ctrl Pts',(-5.43182013828293,-23.4167304329251,14.4849876112305));
#1788=CARTESIAN_POINT('Ctrl Pts',(-5.96591006914147,-28.4166985497959,9.24249380561525));
#1789=CARTESIAN_POINT('Ctrl Pts',(-6.5,-33.4166666666667,4.));
#1790=CARTESIAN_POINT('Ctrl Pts',(-4.89773020742439,-19.2500717370407,21.5456110626343));
#1791=CARTESIAN_POINT('Ctrl Pts',(-5.43182013828293,-24.4167144913605,15.6970740417562));
#1792=CARTESIAN_POINT('Ctrl Pts',(-5.96591006914147,-29.5833572456802,9.8485370208781));
#1793=CARTESIAN_POINT('Ctrl Pts',(-6.5,-34.75,4.));
#1794=CARTESIAN_POINT('Origin',(-4.55,-10.75,3.));
#1795=CARTESIAN_POINT('',(-4.55,-1.24999999999999,3.));
#1796=CARTESIAN_POINT('',(-4.55,-1.24999999999999,3.));
#1797=CARTESIAN_POINT('',(-5.,-17.75,27.));
#1798=CARTESIAN_POINT('',(-5.,-17.75,27.));
#1799=CARTESIAN_POINT('',(-4.55,-1.24999999999999,3.));
#1800=CARTESIAN_POINT('Origin',(-4.55,-1.24999999999999,3.));
#1801=CARTESIAN_POINT('',(-3.05,-1.24999999999999,3.));
#1802=CARTESIAN_POINT('',(-3.05,-1.24999999999999,3.));
#1803=CARTESIAN_POINT('',(-4.37759336099585,-17.75,27.));
#1804=CARTESIAN_POINT('',(5.,-17.75,27.));
#1805=CARTESIAN_POINT('',(-3.05,-1.24999999999999,3.));
#1806=CARTESIAN_POINT('Ctrl Pts',(-3.05,-1.24999999999999,3.));
#1807=CARTESIAN_POINT('Ctrl Pts',(-3.49253112033195,-6.74999999999999,11.));
#1808=CARTESIAN_POINT('Ctrl Pts',(-3.9350622406639,-12.25,19.));
#1809=CARTESIAN_POINT('Ctrl Pts',(-4.37759336099585,-17.75,27.));
#1810=CARTESIAN_POINT('Ctrl Pts',(-3.05,-3.75,3.));
#1811=CARTESIAN_POINT('Ctrl Pts',(-3.14674965421853,-8.41666666666667,11.));
#1812=CARTESIAN_POINT('Ctrl Pts',(-3.24349930843707,-13.0833333333333,19.));
#1813=CARTESIAN_POINT('Ctrl Pts',(-3.3402489626556,-17.75,27.));
#1814=CARTESIAN_POINT('Ctrl Pts',(-3.05,-6.25,3.));
#1815=CARTESIAN_POINT('Ctrl Pts',(-2.80096818810512,-10.0833333333333,11.));
#1816=CARTESIAN_POINT('Ctrl Pts',(-2.55193637621023,-13.9166666666667,19.));
#1817=CARTESIAN_POINT('Ctrl Pts',(-2.30290456431535,-17.75,27.));
#1818=CARTESIAN_POINT('Ctrl Pts',(-3.05,-8.75,3.));
#1819=CARTESIAN_POINT('Ctrl Pts',(-2.4551867219917,-11.75,11.));
#1820=CARTESIAN_POINT('Ctrl Pts',(-1.8603734439834,-14.75,19.));
#1821=CARTESIAN_POINT('Ctrl Pts',(-1.2655601659751,-17.75,27.));
#1822=CARTESIAN_POINT('',(-3.05,-4.4495,3.));
#1823=CARTESIAN_POINT('',(-3.05,-8.75,3.));
#1824=CARTESIAN_POINT('',(5.,-17.75,27.));
#1825=CARTESIAN_POINT('',(-3.05,-8.75,3.));
#1826=CARTESIAN_POINT('Ctrl Pts',(3.05,-8.75,3.));
#1827=CARTESIAN_POINT('Ctrl Pts',(2.4551867219917,-11.75,11.));
#1828=CARTESIAN_POINT('Ctrl Pts',(1.8603734439834,-14.75,19.));
#1829=CARTESIAN_POINT('Ctrl Pts',(1.2655601659751,-17.75,27.));
#1830=CARTESIAN_POINT('Ctrl Pts',(3.05,-6.25,3.));
#1831=CARTESIAN_POINT('Ctrl Pts',(2.80096818810512,-10.0833333333333,11.));
#1832=CARTESIAN_POINT('Ctrl Pts',(2.55193637621023,-13.9166666666667,19.));
#1833=CARTESIAN_POINT('Ctrl Pts',(2.30290456431535,-17.75,27.));
#1834=CARTESIAN_POINT('Ctrl Pts',(3.05,-3.75,3.));
#1835=CARTESIAN_POINT('Ctrl Pts',(3.14674965421853,-8.41666666666667,11.));
#1836=CARTESIAN_POINT('Ctrl Pts',(3.24349930843707,-13.0833333333333,19.));
#1837=CARTESIAN_POINT('Ctrl Pts',(3.3402489626556,-17.75,27.));
#1838=CARTESIAN_POINT('Ctrl Pts',(3.05,-1.25,3.));
#1839=CARTESIAN_POINT('Ctrl Pts',(3.49253112033195,-6.75,11.));
#1840=CARTESIAN_POINT('Ctrl Pts',(3.9350622406639,-12.25,19.));
#1841=CARTESIAN_POINT('Ctrl Pts',(4.37759336099585,-17.75,27.));
#1842=CARTESIAN_POINT('',(3.05,-4.4495,3.));
#1843=CARTESIAN_POINT('',(3.05,-1.25,3.));
#1844=CARTESIAN_POINT('',(4.37759336099585,-17.75,27.));
#1845=CARTESIAN_POINT('',(5.,-17.75,27.));
#1846=CARTESIAN_POINT('',(3.05,-1.25,3.));
#1847=CARTESIAN_POINT('',(3.05,-1.25,3.));
#1848=CARTESIAN_POINT('',(3.05,-1.25,3.));
#1849=CARTESIAN_POINT('Origin',(3.05,-1.25,3.));
#1850=CARTESIAN_POINT('',(4.55,-1.25,3.));
#1851=CARTESIAN_POINT('',(4.55,-1.25,3.));
#1852=CARTESIAN_POINT('',(5.,-17.75,27.));
#1853=CARTESIAN_POINT('',(5.,-17.75,27.));
#1854=CARTESIAN_POINT('',(4.55,-1.25,3.));
#1855=CARTESIAN_POINT('Origin',(4.55,-1.25,3.));
#1856=CARTESIAN_POINT('',(4.55,-10.75,3.));
#1857=CARTESIAN_POINT('',(5.,-21.75,27.));
#1858=CARTESIAN_POINT('Origin',(-3.05,-1.24999999999999,2.));
#1859=CARTESIAN_POINT('',(-4.55,-1.24999999999999,2.));
#1860=CARTESIAN_POINT('',(-3.05,-1.24999999999999,2.));
#1861=CARTESIAN_POINT('',(-1.525,-1.24999999999999,2.));
#1862=CARTESIAN_POINT('',(-4.55,-1.24999999999999,2.));
#1863=CARTESIAN_POINT('',(-3.05,-1.24999999999999,2.));
#1864=CARTESIAN_POINT('Origin',(4.55,-1.25,2.));
#1865=CARTESIAN_POINT('',(3.05,-1.25,2.));
#1866=CARTESIAN_POINT('',(4.55,-1.25,2.));
#1867=CARTESIAN_POINT('',(2.275,-1.25,2.));
#1868=CARTESIAN_POINT('',(3.05,-1.25,2.));
#1869=CARTESIAN_POINT('',(4.55,-1.25,2.));
#1870=CARTESIAN_POINT('Origin',(0.,0.,2.));
#1871=CARTESIAN_POINT('',(4.55,10.75,2.));
#1872=CARTESIAN_POINT('',(4.55,-10.75,2.));
#1873=CARTESIAN_POINT('',(-4.55,10.75,2.));
#1874=CARTESIAN_POINT('',(4.55,10.75,2.));
#1875=CARTESIAN_POINT('',(-4.55,10.75,2.));
#1876=CARTESIAN_POINT('',(-3.05,8.75,2.));
#1877=CARTESIAN_POINT('',(-3.05,-8.75,2.));
#1878=CARTESIAN_POINT('',(3.05,8.75,2.));
#1879=CARTESIAN_POINT('',(-3.05,8.75,2.));
#1880=CARTESIAN_POINT('',(3.05,8.75,2.));
#1881=CARTESIAN_POINT('Origin',(-3.05,-8.75,0.));
#1882=CARTESIAN_POINT('',(-3.05,8.75,0.));
#1883=CARTESIAN_POINT('',(-3.05,-8.75,0.));
#1884=CARTESIAN_POINT('',(-3.05,8.75,0.));
#1885=CARTESIAN_POINT('',(-3.05,8.75,0.));
#1886=CARTESIAN_POINT('',(-3.05,-8.75,0.));
#1887=CARTESIAN_POINT('Origin',(3.05,-8.75,0.));
#1888=CARTESIAN_POINT('',(3.05,-8.75,0.));
#1889=CARTESIAN_POINT('',(-3.05,-8.75,0.));
#1890=CARTESIAN_POINT('',(3.05,-8.75,0.));
#1891=CARTESIAN_POINT('Origin',(3.05,8.75,0.));
#1892=CARTESIAN_POINT('',(3.05,8.75,0.));
#1893=CARTESIAN_POINT('',(3.05,-8.75,0.));
#1894=CARTESIAN_POINT('',(3.05,8.75,0.));
#1895=CARTESIAN_POINT('Origin',(-3.05,8.75,0.));
#1896=CARTESIAN_POINT('',(3.05,8.75,0.));
#1897=CARTESIAN_POINT('Origin',(-4.55,10.75,0.));
#1898=CARTESIAN_POINT('',(-4.55,10.75,0.));
#1899=CARTESIAN_POINT('',(-4.55,-10.75,0.));
#1900=CARTESIAN_POINT('',(-4.55,10.75,0.));
#1901=CARTESIAN_POINT('',(-4.55,-10.75,0.));
#1902=CARTESIAN_POINT('',(-4.55,10.75,0.));
#1903=CARTESIAN_POINT('Origin',(4.55,10.75,0.));
#1904=CARTESIAN_POINT('',(4.55,10.75,0.));
#1905=CARTESIAN_POINT('',(4.55,10.75,0.));
#1906=CARTESIAN_POINT('',(4.55,10.75,0.));
#1907=CARTESIAN_POINT('Origin',(4.55,-10.75,0.));
#1908=CARTESIAN_POINT('',(4.55,-10.75,0.));
#1909=CARTESIAN_POINT('',(4.55,-10.75,0.));
#1910=CARTESIAN_POINT('',(4.55,-10.75,0.));
#1911=CARTESIAN_POINT('Origin',(-4.55,-10.75,0.));
#1912=CARTESIAN_POINT('',(-4.55,-10.75,0.));
#1913=CARTESIAN_POINT('Origin',(0.,0.,0.));
#1914=CARTESIAN_POINT('Origin',(-5.,-17.75,27.));
#1915=CARTESIAN_POINT('',(-5.,-21.75,51.));
#1916=CARTESIAN_POINT('',(-5.,-21.75,27.));
#1917=CARTESIAN_POINT('',(-5.,-17.75,51.));
#1918=CARTESIAN_POINT('',(-5.,-17.75,51.));
#1919=CARTESIAN_POINT('',(-5.,-17.75,27.));
#1920=CARTESIAN_POINT('Origin',(5.,-17.75,27.));
#1921=CARTESIAN_POINT('',(5.,-17.75,51.));
#1922=CARTESIAN_POINT('',(5.,-17.75,51.));
#1923=CARTESIAN_POINT('',(5.,-17.75,27.));
#1924=CARTESIAN_POINT('Origin',(5.,-21.75,27.));
#1925=CARTESIAN_POINT('',(5.,-21.75,51.));
#1926=CARTESIAN_POINT('',(5.,-21.75,51.));
#1927=CARTESIAN_POINT('',(5.,-21.75,27.));
#1928=CARTESIAN_POINT('Origin',(-5.,-21.75,27.));
#1929=CARTESIAN_POINT('',(-5.,-21.75,51.));
#1930=CARTESIAN_POINT('Origin',(-1.11022302462516E-15,-19.75,51.));
#1931=CARTESIAN_POINT('Origin',(-1.11022302462516E-15,0.,-4.));
#1932=CARTESIAN_POINT('',(3.05,-8.75,-4.));
#1933=CARTESIAN_POINT('',(-3.05,-8.75,-4.));
#1934=CARTESIAN_POINT('',(-3.05,-8.75,-4.));
#1935=CARTESIAN_POINT('',(-3.05,8.75,-4.));
#1936=CARTESIAN_POINT('',(-3.05,8.75,-4.));
#1937=CARTESIAN_POINT('',(3.05,8.75,-4.));
#1938=CARTESIAN_POINT('',(3.05,8.75,-4.));
#1939=CARTESIAN_POINT('',(3.05,-8.75,-4.));
#1940=CARTESIAN_POINT('',(-1.25,-4.,-4.));
#1941=CARTESIAN_POINT('Origin',(-9.30546457449323E-16,-4.,-4.));
#1942=CARTESIAN_POINT('',(-1.5,2.75,-4.));
#1943=CARTESIAN_POINT('Origin',(-9.30546457449323E-16,2.75,-4.));
#1944=CARTESIAN_POINT('Origin',(-1.11022302462516E-15,0.,0.));
#1945=CARTESIAN_POINT('',(-3.05,-8.75,0.));
#1946=CARTESIAN_POINT('',(3.05,-8.75,0.));
#1947=CARTESIAN_POINT('',(-3.05,-8.75,0.));
#1948=CARTESIAN_POINT('',(3.05,8.75,0.));
#1949=CARTESIAN_POINT('',(3.05,-8.75,0.));
#1950=CARTESIAN_POINT('',(-3.05,8.75,0.));
#1951=CARTESIAN_POINT('',(3.05,8.75,0.));
#1952=CARTESIAN_POINT('',(-3.05,8.75,0.));
#1953=CARTESIAN_POINT('',(-1.25,-4.,0.));
#1954=CARTESIAN_POINT('Origin',(-9.30546457449323E-16,-4.,0.));
#1955=CARTESIAN_POINT('',(-2.,2.75,0.));
#1956=CARTESIAN_POINT('Origin',(-9.30546457449323E-16,2.75,0.));
#1957=CARTESIAN_POINT('Origin',(3.05,-8.75,0.));
#1958=CARTESIAN_POINT('',(-3.05,-8.75,0.));
#1959=CARTESIAN_POINT('',(3.05,-8.75,0.));
#1960=CARTESIAN_POINT('Origin',(-3.05,-8.75,0.));
#1961=CARTESIAN_POINT('',(-3.05,8.75,0.));
#1962=CARTESIAN_POINT('Origin',(-3.05,8.75,0.));
#1963=CARTESIAN_POINT('',(3.05,8.75,0.));
#1964=CARTESIAN_POINT('Origin',(3.05,8.75,0.));
#1965=CARTESIAN_POINT('Origin',(-9.30546457449323E-16,2.75,-73.8680388166979));
#1966=CARTESIAN_POINT('',(-1.5,2.75,-2.));
#1967=CARTESIAN_POINT('Origin',(-9.30546457449323E-16,2.75,-2.));
#1968=CARTESIAN_POINT('',(-1.5,2.75,-73.8680388166979));
#1969=CARTESIAN_POINT('Origin',(-9.30546457449323E-16,2.75,-1.));
#1970=CARTESIAN_POINT('',(-2.,2.75,-2.));
#1971=CARTESIAN_POINT('',(-2.,2.75,-1.));
#1972=CARTESIAN_POINT('Origin',(-9.30546457449323E-16,2.75,-2.));
#1973=CARTESIAN_POINT('Origin',(-9.30546457449323E-16,2.75,-2.));
#1974=CARTESIAN_POINT('Origin',(-9.30546457449323E-16,-4.,0.));
#1975=CARTESIAN_POINT('',(-1.25,-4.,0.));
#1976=CARTESIAN_POINT('',(0.,0.,0.));
#1977=CARTESIAN_POINT('',(0.,-7.74748923959828,-3.55093256814921));
#1978=UNCERTAINTY_MEASURE_WITH_UNIT(LENGTH_MEASURE(0.01),#1982,
'DISTANCE_ACCURACY_VALUE',
'Maximum model space distance between geometric entities at asserted c
onnectivities');
#1979=UNCERTAINTY_MEASURE_WITH_UNIT(LENGTH_MEASURE(0.01),#1982,
'DISTANCE_ACCURACY_VALUE',
'Maximum model space distance between geometric entities at asserted c
onnectivities');
#1980=(
GEOMETRIC_REPRESENTATION_CONTEXT(3)
GLOBAL_UNCERTAINTY_ASSIGNED_CONTEXT((#1978))
GLOBAL_UNIT_ASSIGNED_CONTEXT((#1982,#1984,#1985))
REPRESENTATION_CONTEXT('','3D')
);
#1981=(
GEOMETRIC_REPRESENTATION_CONTEXT(3)
GLOBAL_UNCERTAINTY_ASSIGNED_CONTEXT((#1979))
GLOBAL_UNIT_ASSIGNED_CONTEXT((#1982,#1984,#1985))
REPRESENTATION_CONTEXT('','3D')
);
#1982=(
LENGTH_UNIT()
NAMED_UNIT(*)
SI_UNIT(.MILLI.,.METRE.)
);
#1983=(
LENGTH_UNIT()
NAMED_UNIT(*)
SI_UNIT(.CENTI.,.METRE.)
);
#1984=(
NAMED_UNIT(*)
PLANE_ANGLE_UNIT()
SI_UNIT($,.RADIAN.)
);
#1985=(
NAMED_UNIT(*)
SI_UNIT($,.STERADIAN.)
SOLID_ANGLE_UNIT()
);
#1986=SHAPE_DEFINITION_REPRESENTATION(#1987,#1988);
#1987=PRODUCT_DEFINITION_SHAPE('',$,#1990);
#1988=SHAPE_REPRESENTATION('',(#1148),#1980);
#1989=PRODUCT_DEFINITION_CONTEXT('part definition',#1994,'design');
#1990=PRODUCT_DEFINITION('load_cell_holder_1','load_cell_holder',#1991,
#1989);
#1991=PRODUCT_DEFINITION_FORMATION('',$,#1996);
#1992=PRODUCT_RELATED_PRODUCT_CATEGORY('load_cell_holder',
'load_cell_holder',(#1996));
#1993=APPLICATION_PROTOCOL_DEFINITION('international standard',
'automotive_design',2009,#1994);
#1994=APPLICATION_CONTEXT(
'Core Data for Automotive Mechanical Design Process');
#1995=PRODUCT_CONTEXT('part definition',#1994,'mechanical');
#1996=PRODUCT('load_cell_holder_1','load_cell_holder',$,(#1995));
#1997=PRESENTATION_STYLE_ASSIGNMENT((#1999));
#1998=PRESENTATION_STYLE_ASSIGNMENT((#2000));
#1999=SURFACE_STYLE_USAGE(.BOTH.,#2003);
#2000=SURFACE_STYLE_USAGE(.BOTH.,#2004);
#2001=SURFACE_STYLE_RENDERING_WITH_PROPERTIES($,#2011,(#2002));
#2002=SURFACE_STYLE_TRANSPARENT(0.);
#2003=SURFACE_SIDE_STYLE('',(#2005,#2001));
#2004=SURFACE_SIDE_STYLE('',(#2006));
#2005=SURFACE_STYLE_FILL_AREA(#2007);
#2006=SURFACE_STYLE_FILL_AREA(#2008);
#2007=FILL_AREA_STYLE('',(#2009));
#2008=FILL_AREA_STYLE('',(#2010));
#2009=FILL_AREA_STYLE_COLOUR('',#2011);
#2010=FILL_AREA_STYLE_COLOUR('',#2012);
#2011=COLOUR_RGB('',0.898039215686275,0.12156862745098,0.12156862745098);
#2012=COLOUR_RGB('',0.913725490196078,0.913725490196078,0.);
ENDSEC;
END-ISO-10303-21;
