ISO-10303-21;
HEADER;
/* Generated by software containing ST-Developer
 * from STEP Tools, Inc. (www.steptools.com) 
 */

FILE_DESCRIPTION(
/* description */ (''),
/* implementation_level */ '2;1');

FILE_NAME(
/* name */ 'mock_dosing_funnel.stp',
/* time_stamp */ '2026-04-07T10:58:03+02:00',
/* author */ ('Paul Juschitz'),
/* organization */ (''),
/* preprocessor_version */ 'ST-DEVELOPER v20.1',
/* originating_system */ 'Autodesk Inventor 2026',
/* authorisation */ '');

FILE_SCHEMA (('AUTOMOTIVE_DESIGN { 1 0 10303 214 3 1 1 }'));
ENDSEC;

DATA;
#10=MECHANICAL_DESIGN_GEOMETRIC_PRESENTATION_REPRESENTATION('',(#13),#377);
#11=SHAPE_REPRESENTATION_RELATIONSHIP('SRR','None',#384,#12);
#12=ADVANCED_BREP_SHAPE_REPRESENTATION('',(#14),#376);
#13=STYLED_ITEM('',(#393),#14);
#14=MANIFOLD_SOLID_BREP('Solid1',#65);
#15=FACE_BOUND('',#28,.T.);
#16=CIRCLE('',#90,27.5);
#17=CIRCLE('',#92,31.5);
#18=B_SPLINE_SURFACE_WITH_KNOTS('',3,3,((#154,#155,#156,#157),(#158,#159,
#160,#161),(#162,#163,#164,#165),(#166,#167,#168,#169),(#170,#171,#172,
#173),(#174,#175,#176,#177),(#178,#179,#180,#181),(#182,#183,#184,#185),
(#186,#187,#188,#189),(#190,#191,#192,#193),(#194,#195,#196,#197),(#198,
#199,#200,#201),(#202,#203,#204,#205),(#206,#207,#208,#209),(#210,#211,
#212,#213),(#214,#215,#216,#217),(#218,#219,#220,#221),(#222,#223,#224,
#225)),.UNSPECIFIED.,.T.,.F.,.F.,(4,1,1,1,1,1,1,1,1,1,1,1,1,1,1,4),(4,4),
(0.,0.0714285714285714,0.142857142857143,0.19047619047619,0.238095238095238,
0.285714285714286,0.333333333333333,0.428571428571429,0.523809523809524,
0.571428571428571,0.619047619047619,0.714285714285714,0.785714285714286,
0.857142857142857,0.928571428571429,1.),(0.0287324986360456,0.998101321293786),
 .UNSPECIFIED.);
#19=B_SPLINE_SURFACE_WITH_KNOTS('',3,3,((#298,#299,#300,#301),(#302,#303,
#304,#305),(#306,#307,#308,#309),(#310,#311,#312,#313),(#314,#315,#316,
#317),(#318,#319,#320,#321),(#322,#323,#324,#325),(#326,#327,#328,#329),
(#330,#331,#332,#333),(#334,#335,#336,#337),(#338,#339,#340,#341),(#342,
#343,#344,#345),(#346,#347,#348,#349),(#350,#351,#352,#353),(#354,#355,
#356,#357),(#358,#359,#360,#361),(#362,#363,#364,#365),(#366,#367,#368,
#369)),.UNSPECIFIED.,.T.,.F.,.F.,(4,1,1,1,1,1,1,1,1,1,1,1,1,1,1,4),(4,4),
(0.,0.0714285714285714,0.142857142857143,0.19047619047619,0.238095238095238,
0.285714285714286,0.333333333333333,0.428571428571429,0.523809523809524,
0.571428571428571,0.619047619047619,0.714285714285714,0.785714285714286,
0.857142857142857,0.928571428571429,1.),(0.,1.),.UNSPECIFIED.);
#20=FACE_OUTER_BOUND('',#25,.T.);
#21=FACE_OUTER_BOUND('',#26,.T.);
#22=FACE_OUTER_BOUND('',#27,.T.);
#23=FACE_OUTER_BOUND('',#29,.T.);
#24=FACE_OUTER_BOUND('',#30,.T.);
#25=EDGE_LOOP('',(#45));
#26=EDGE_LOOP('',(#46,#47,#48,#49));
#27=EDGE_LOOP('',(#50));
#28=EDGE_LOOP('',(#51));
#29=EDGE_LOOP('',(#52));
#30=EDGE_LOOP('',(#53,#54,#55,#56));
#31=B_SPLINE_CURVE_WITH_KNOTS('',3,(#108,#109,#110,#111,#112,#113,#114,
#115,#116,#117,#118,#119,#120,#121,#122,#123,#124,#125,#126,#127,#128,#129,
#130,#131,#132,#133,#134,#135,#136,#137,#138,#139,#140,#141,#142,#143,#144,
#145,#146,#147,#148,#149,#150,#151,#152,#153),.UNSPECIFIED.,.T.,.F.,(4,
3,3,3,3,3,3,3,3,3,3,3,3,3,3,4),(-18.1693747848946,-16.7855931000286,-15.4018114151625,
-14.4792902919185,-13.5567691686744,-12.6342480454304,-11.7117269221863,
-9.86668467569827,-8.02164242921019,-7.09912130596615,-6.17660018272212,
-4.33155793623404,-2.94777625136798,-1.56399456650192,-0.180212881635861,
1.20356880323019),.UNSPECIFIED.);
#32=B_SPLINE_CURVE_WITH_KNOTS('',3,(#227,#228,#229,#230,#231,#232,#233,
#234,#235,#236,#237,#238,#239,#240,#241,#242,#243,#244,#245),
 .UNSPECIFIED.,.F.,.F.,(4,3,3,3,3,3,4),(0.0287324986360461,0.204452175710651,
0.379121001179109,0.554027875316247,0.728593522545987,0.903724601931899,
0.99810132129258),.UNSPECIFIED.);
#33=B_SPLINE_CURVE_WITH_KNOTS('',3,(#246,#247,#248,#249,#250,#251,#252,
#253,#254,#255,#256,#257,#258,#259,#260,#261,#262,#263,#264,#265,#266,#267,
#268,#269,#270,#271,#272,#273,#274,#275,#276,#277,#278,#279,#280,#281,#282,
#283,#284,#285,#286,#287,#288,#289,#290,#291),.UNSPECIFIED.,.T.,.F.,(4,
3,3,3,3,3,3,3,3,3,3,3,3,3,3,4),(1.05919159026017,2.27447200219397,3.48975241412777,
4.29993935541697,5.11012629670618,5.92031323799538,6.73050017928458,8.35087406186299,
9.97124794444139,10.7814348857306,11.5916218270198,13.2119957095982,14.427276121532,
15.6425565334658,16.8578369453996,18.0731173573334),.UNSPECIFIED.);
#34=B_SPLINE_CURVE_WITH_KNOTS('',3,(#370,#371,#372,#373),.UNSPECIFIED.,
 .F.,.F.,(4,4),(0.,1.),.UNSPECIFIED.);
#35=VERTEX_POINT('',#107);
#36=VERTEX_POINT('',#226);
#37=VERTEX_POINT('',#293);
#38=VERTEX_POINT('',#296);
#39=EDGE_CURVE('',#35,#35,#31,.T.);
#40=EDGE_CURVE('',#35,#36,#32,.T.);
#41=EDGE_CURVE('',#36,#36,#33,.T.);
#42=EDGE_CURVE('',#37,#37,#16,.T.);
#43=EDGE_CURVE('',#38,#38,#17,.T.);
#44=EDGE_CURVE('',#38,#37,#34,.T.);
#45=ORIENTED_EDGE('',*,*,#39,.F.);
#46=ORIENTED_EDGE('',*,*,#39,.T.);
#47=ORIENTED_EDGE('',*,*,#40,.T.);
#48=ORIENTED_EDGE('',*,*,#41,.F.);
#49=ORIENTED_EDGE('',*,*,#40,.F.);
#50=ORIENTED_EDGE('',*,*,#42,.F.);
#51=ORIENTED_EDGE('',*,*,#41,.T.);
#52=ORIENTED_EDGE('',*,*,#43,.T.);
#53=ORIENTED_EDGE('',*,*,#43,.F.);
#54=ORIENTED_EDGE('',*,*,#44,.T.);
#55=ORIENTED_EDGE('',*,*,#42,.T.);
#56=ORIENTED_EDGE('',*,*,#44,.F.);
#57=PLANE('',#88);
#58=PLANE('',#89);
#59=PLANE('',#91);
#60=ADVANCED_FACE('',(#20),#57,.F.);
#61=ADVANCED_FACE('',(#21),#18,.T.);
#62=ADVANCED_FACE('',(#22,#15),#58,.F.);
#63=ADVANCED_FACE('',(#23),#59,.T.);
#64=ADVANCED_FACE('',(#24),#19,.F.);
#65=CLOSED_SHELL('',(#60,#61,#62,#63,#64));
#66=DERIVED_UNIT_ELEMENT(#69,1.);
#67=DERIVED_UNIT_ELEMENT(#379,-3.);
#68=DIMENSIONAL_EXPONENTS(0.,1.,0.,0.,0.,0.,0.);
#69=(
CONVERSION_BASED_UNIT('gram',#71)
MASS_UNIT()
NAMED_UNIT(#68)
);
#70=(
MASS_UNIT()
NAMED_UNIT(*)
SI_UNIT(.KILO.,.GRAM.)
);
#71=MASS_MEASURE_WITH_UNIT(MASS_MEASURE(0.001),#70);
#72=DERIVED_UNIT((#66,#67));
#73=MEASURE_REPRESENTATION_ITEM('density measure',
POSITIVE_RATIO_MEASURE(1.),#72);
#74=PROPERTY_DEFINITION_REPRESENTATION(#79,#76);
#75=PROPERTY_DEFINITION_REPRESENTATION(#80,#77);
#76=REPRESENTATION('material name',(#78),#376);
#77=REPRESENTATION('density',(#73),#376);
#78=DESCRIPTIVE_REPRESENTATION_ITEM('Generic','Generic');
#79=PROPERTY_DEFINITION('material property','material name',#386);
#80=PROPERTY_DEFINITION('material property','density of part',#386);
#81=DATE_TIME_ROLE('creation_date');
#82=APPLIED_DATE_AND_TIME_ASSIGNMENT(#83,#81,(#386));
#83=DATE_AND_TIME(#84,#85);
#84=CALENDAR_DATE(2025,29,4);
#85=LOCAL_TIME(0,0,0.,#86);
#86=COORDINATED_UNIVERSAL_TIME_OFFSET(0,0,.BEHIND.);
#87=AXIS2_PLACEMENT_3D('',#105,#93,#94);
#88=AXIS2_PLACEMENT_3D('',#106,#95,#96);
#89=AXIS2_PLACEMENT_3D('',#292,#97,#98);
#90=AXIS2_PLACEMENT_3D('',#294,#99,#100);
#91=AXIS2_PLACEMENT_3D('',#295,#101,#102);
#92=AXIS2_PLACEMENT_3D('',#297,#103,#104);
#93=DIRECTION('axis',(0.,0.,1.));
#94=DIRECTION('refdir',(1.,0.,0.));
#95=DIRECTION('center_axis',(0.,-1.,0.));
#96=DIRECTION('ref_axis',(0.,0.,-1.));
#97=DIRECTION('center_axis',(0.,-1.,0.));
#98=DIRECTION('ref_axis',(0.,0.,-1.));
#99=DIRECTION('center_axis',(0.,-1.,0.));
#100=DIRECTION('ref_axis',(1.,0.,0.));
#101=DIRECTION('center_axis',(0.,-1.,0.));
#102=DIRECTION('ref_axis',(0.,0.,-1.));
#103=DIRECTION('center_axis',(0.,-1.,0.));
#104=DIRECTION('ref_axis',(1.,0.,0.));
#105=CARTESIAN_POINT('',(0.,0.,0.));
#106=CARTESIAN_POINT('Origin',(0.,0.5,0.));
#107=CARTESIAN_POINT('',(-30.7408169810875,0.5,3.76466431190634E-15));
#108=CARTESIAN_POINT('Ctrl Pts',(-30.7408169810875,0.499999999999998,-1.28008510843092E-14));
#109=CARTESIAN_POINT('Ctrl Pts',(-30.7408169810875,0.499999999999998,-4.59881546633966));
#110=CARTESIAN_POINT('Ctrl Pts',(-29.6929675636998,0.499999999999998,-9.19730606305047));
#111=CARTESIAN_POINT('Ctrl Pts',(-27.6982216769351,0.499999999999998,-13.3395534847423));
#112=CARTESIAN_POINT('Ctrl Pts',(-25.7034757901702,0.499999999999998,-17.4818009064342));
#113=CARTESIAN_POINT('Ctrl Pts',(-22.7618334340283,0.499999999999999,-21.1678051531072));
#114=CARTESIAN_POINT('Ctrl Pts',(-19.1677450344274,0.499999999999999,-24.0356546047546));
#115=CARTESIAN_POINT('Ctrl Pts',(-16.7716861013602,0.499999999999999,-25.9475542391863));
#116=CARTESIAN_POINT('Ctrl Pts',(-14.0856511489779,0.499999999999999,-27.4958295202733));
#117=CARTESIAN_POINT('Ctrl Pts',(-11.2311645081144,0.499999999999999,-28.6157421961129));
#118=CARTESIAN_POINT('Ctrl Pts',(-8.37667786725101,0.499999999999999,-29.7356548719525));
#119=CARTESIAN_POINT('Ctrl Pts',(-5.35373953790646,0.499999999999998,-30.4272049425446));
#120=CARTESIAN_POINT('Ctrl Pts',(-2.29728510627131,0.499999999999998,-30.6554215041703));
#121=CARTESIAN_POINT('Ctrl Pts',(0.759169325363843,0.499999999999998,-30.883638065796));
#122=CARTESIAN_POINT('Ctrl Pts',(3.84913985928959,0.499999999999998,-30.6485211184552));
#123=CARTESIAN_POINT('Ctrl Pts',(6.83911526594757,0.499999999999998,-29.9677858091589));
#124=CARTESIAN_POINT('Ctrl Pts',(9.82909067260555,0.499999999999998,-29.2870504998627));
#125=CARTESIAN_POINT('Ctrl Pts',(12.7190709519958,0.499999999999999,-28.1606968286109));
#126=CARTESIAN_POINT('Ctrl Pts',(15.3729685286885,0.499999999999999,-26.626843580574));
#127=CARTESIAN_POINT('Ctrl Pts',(20.680763682074,0.499999999999999,-23.5591370845001));
#128=CARTESIAN_POINT('Ctrl Pts',(25.0442280246696,0.499999999999999,-18.8614322812854));
#129=CARTESIAN_POINT('Ctrl Pts',(27.7026242026626,0.499999999999999,-13.3411899728631));
#130=CARTESIAN_POINT('Ctrl Pts',(30.3610203806555,0.499999999999999,-7.82094766444074));
#131=CARTESIAN_POINT('Ctrl Pts',(31.3143483940457,0.499999999999999,-1.47816785081076));
#132=CARTESIAN_POINT('Ctrl Pts',(30.4029738680895,0.499999999999999,4.58251503662422));
#133=CARTESIAN_POINT('Ctrl Pts',(29.9472866051113,0.499999999999999,7.61285648034172));
#134=CARTESIAN_POINT('Ctrl Pts',(29.0254237072965,0.499999999999999,10.5726736925105));
#135=CARTESIAN_POINT('Ctrl Pts',(27.6942549748208,0.499999999999999,13.3365611012067));
#136=CARTESIAN_POINT('Ctrl Pts',(26.3630862423451,0.499999999999999,16.1004485099029));
#137=CARTESIAN_POINT('Ctrl Pts',(24.6226116752085,0.499999999999999,18.6684061151266));
#138=CARTESIAN_POINT('Ctrl Pts',(22.5374060664892,0.499999999999999,20.9141019615239));
#139=CARTESIAN_POINT('Ctrl Pts',(18.3669948490504,0.499999999999998,25.4054936543185));
#140=CARTESIAN_POINT('Ctrl Pts',(12.8176594652806,0.499999999999998,28.6078383118074));
#141=CARTESIAN_POINT('Ctrl Pts',(6.84290231765207,0.499999999999999,29.9753813639909));
#142=CARTESIAN_POINT('Ctrl Pts',(2.36183445693067,0.499999999999999,31.0010386531284));
#143=CARTESIAN_POINT('Ctrl Pts',(-2.35853314596127,0.499999999999999,30.9946200392817));
#144=CARTESIAN_POINT('Ctrl Pts',(-6.84216935625468,0.499999999999999,29.9700435331169));
#145=CARTESIAN_POINT('Ctrl Pts',(-11.3258055665481,0.499999999999999,28.945467026952));
#146=CARTESIAN_POINT('Ctrl Pts',(-15.572710384243,0.499999999999999,26.9027326284691));
#147=CARTESIAN_POINT('Ctrl Pts',(-19.1669578838708,0.499999999999999,24.0363770819623));
#148=CARTESIAN_POINT('Ctrl Pts',(-22.7612053834987,0.499999999999999,21.1700215354555));
#149=CARTESIAN_POINT('Ctrl Pts',(-25.7027955650596,0.499999999999999,17.4800448409248));
#150=CARTESIAN_POINT('Ctrl Pts',(-27.6976984644567,0.499999999999999,13.3372433236458));
#151=CARTESIAN_POINT('Ctrl Pts',(-29.6926013638539,0.499999999999999,9.19444180636689));
#152=CARTESIAN_POINT('Ctrl Pts',(-30.7408169810875,0.499999999999998,4.59881546633967));
#153=CARTESIAN_POINT('Ctrl Pts',(-30.7408169810875,0.499999999999998,2.44249065417534E-14));
#154=CARTESIAN_POINT('Ctrl Pts',(-30.7408169810875,0.499999999999987,-3.76466431190634E-15));
#155=CARTESIAN_POINT('Ctrl Pts',(-27.4147995781776,8.38813319927109,-3.35734465526814E-15));
#156=CARTESIAN_POINT('Ctrl Pts',(-26.1651617183765,16.5645615083139,-3.20430815475827E-15));
#157=CARTESIAN_POINT('Ctrl Pts',(-26.997548191696,25.0000000000315,-3.30624609777869E-15));
#158=CARTESIAN_POINT('Ctrl Pts',(-30.7408169810875,0.499999999999987,-4.59881546633966));
#159=CARTESIAN_POINT('Ctrl Pts',(-27.4143712692272,8.38813319927107,-4.10137084709357));
#160=CARTESIAN_POINT('Ctrl Pts',(-26.1650545275433,16.5645615083139,-3.91433067843735));
#161=CARTESIAN_POINT('Ctrl Pts',(-26.997548191696,25.0000000000315,-4.03882376495088));
#162=CARTESIAN_POINT('Ctrl Pts',(-28.6451181463122,0.499999999999987,-13.7957966597613));
#163=CARTESIAN_POINT('Ctrl Pts',(-25.5460415966169,8.38813319927112,-12.3032220574994));
#164=CARTESIAN_POINT('Ctrl Pts',(-24.381448772382,16.564561508314,-11.742361163967));
#165=CARTESIAN_POINT('Ctrl Pts',(-25.1570398434001,25.0000000000315,-12.1159006734885));
#166=CARTESIAN_POINT('Ctrl Pts',(-20.8007385299336,0.499999999999987,-23.6251413175558));
#167=CARTESIAN_POINT('Ctrl Pts',(-18.5501287786007,8.38813319927107,-21.0689491773024));
#168=CARTESIAN_POINT('Ctrl Pts',(-17.7046106576116,16.5645615083139,-20.1086129948791));
#169=CARTESIAN_POINT('Ctrl Pts',(-18.2678599996298,25.0000000000315,-20.7483389803447));
#170=CARTESIAN_POINT('Ctrl Pts',(-11.3996161965956,0.499999999999988,-29.0441048013603));
#171=CARTESIAN_POINT('Ctrl Pts',(-10.1663029053577,8.3881331992711,-25.9018320177247));
#172=CARTESIAN_POINT('Ctrl Pts',(-9.70284452809915,16.5645615083139,-24.7210408330821));
#173=CARTESIAN_POINT('Ctrl Pts',(-10.0114999488715,25.0000000000315,-25.5074424190419));
#174=CARTESIAN_POINT('Ctrl Pts',(-2.3308012085619,0.499999999999987,-31.1187550131368));
#175=CARTESIAN_POINT('Ctrl Pts',(-2.07864818000421,8.38813319927108,-27.7515836359149));
#176=CARTESIAN_POINT('Ctrl Pts',(-1.98387748284131,16.5645615083139,-26.4867793257263));
#177=CARTESIAN_POINT('Ctrl Pts',(-2.04698261572316,25.0000000000315,-27.3294652074344));
#178=CARTESIAN_POINT('Ctrl Pts',(6.93911039321534,0.499999999999987,-30.4134041711144));
#179=CARTESIAN_POINT('Ctrl Pts',(6.18840110528261,8.38813319927109,-27.1230836632656));
#180=CARTESIAN_POINT('Ctrl Pts',(5.90626763715911,16.5645615083139,-25.8865512262337));
#181=CARTESIAN_POINT('Ctrl Pts',(6.09414406141467,25.0000000000315,-26.7100040082976));
#182=CARTESIAN_POINT('Ctrl Pts',(18.4990315107762,0.499999999999987,-25.9079894861074));
#183=CARTESIAN_POINT('Ctrl Pts',(16.4974813977701,8.38813319927109,-23.1047112564155));
#184=CARTESIAN_POINT('Ctrl Pts',(15.7455104350731,16.564561508314,-22.0516446948521));
#185=CARTESIAN_POINT('Ctrl Pts',(16.2464288121927,25.0000000000315,-22.7532077345719));
#186=CARTESIAN_POINT('Ctrl Pts',(29.4076923672653,0.499999999999987,-14.1637274780707));
#187=CARTESIAN_POINT('Ctrl Pts',(26.2260388772307,8.38813319927109,-12.6312423099096));
#188=CARTESIAN_POINT('Ctrl Pts',(25.0304991989287,16.5645615083139,-12.0555013046902));
#189=CARTESIAN_POINT('Ctrl Pts',(25.8267564059948,25.0000000000315,-12.4390290407219));
#190=CARTESIAN_POINT('Ctrl Pts',(31.7910124007409,0.499999999999988,1.69322205600423));
#191=CARTESIAN_POINT('Ctrl Pts',(28.3512132741092,8.38813319927108,1.50978878792789));
#192=CARTESIAN_POINT('Ctrl Pts',(27.0590006171935,16.564561508314,1.44113366971544));
#193=CARTESIAN_POINT('Ctrl Pts',(27.9198626985041,25.0000000000315,1.48704063669942));
#194=CARTESIAN_POINT('Ctrl Pts',(28.1035608094818,0.499999999999988,13.5324909046792));
#195=CARTESIAN_POINT('Ctrl Pts',(25.0632047252056,8.38813319927109,12.0687129661781));
#196=CARTESIAN_POINT('Ctrl Pts',(23.9205318492029,16.564561508314,11.5183246071917));
#197=CARTESIAN_POINT('Ctrl Pts',(24.6814272300905,25.0000000000315,11.8846573133542));
#198=CARTESIAN_POINT('Ctrl Pts',(21.1416625409353,0.499999999999987,23.8043213255741));
#199=CARTESIAN_POINT('Ctrl Pts',(18.8538828410198,8.38813319927109,21.228546930707));
#200=CARTESIAN_POINT('Ctrl Pts',(17.9947184555699,16.5645615083139,20.261073732115));
#201=CARTESIAN_POINT('Ctrl Pts',(18.5672701429057,25.0000000000315,20.9057004748176));
#202=CARTESIAN_POINT('Ctrl Pts',(8.65565792745326,0.499999999999987,31.0095968049241));
#203=CARTESIAN_POINT('Ctrl Pts',(7.71933161795349,8.38813319927109,27.6546088410597));
#204=CARTESIAN_POINT('Ctrl Pts',(7.3673399548047,16.5645615083139,26.3939622533459));
#205=CARTESIAN_POINT('Ctrl Pts',(7.60166986358955,25.0000000000315,27.2335990504435));
#206=CARTESIAN_POINT('Ctrl Pts',(-7.07890074885322,0.499999999999988,30.988201425435));
#207=CARTESIAN_POINT('Ctrl Pts',(-6.31309243108696,8.38813319927109,27.6354523915965));
#208=CARTESIAN_POINT('Ctrl Pts',(-6.02525714332853,16.5645615083139,26.3757324873463));
#209=CARTESIAN_POINT('Ctrl Pts',(-6.21691232959016,25.0000000000315,27.2148089581309));
#210=CARTESIAN_POINT('Ctrl Pts',(-19.8196152019379,0.499999999999987,24.8599982299862));
#211=CARTESIAN_POINT('Ctrl Pts',(-17.6751894590022,8.38813319927108,22.1701295797583));
#212=CARTESIAN_POINT('Ctrl Pts',(-16.86953158895,16.5645615083139,21.1596484267133));
#213=CARTESIAN_POINT('Ctrl Pts',(-17.4062067668658,25.0000000000315,21.8328289932061));
#214=CARTESIAN_POINT('Ctrl Pts',(-28.6443857466204,0.499999999999988,13.7900681463941));
#215=CARTESIAN_POINT('Ctrl Pts',(-25.5452510065848,8.3881331992711,12.2980926162069));
#216=CARTESIAN_POINT('Ctrl Pts',(-24.3807909930176,16.5645615083139,11.7374801310303));
#217=CARTESIAN_POINT('Ctrl Pts',(-25.156396627054,25.0000000000315,12.1108697136479));
#218=CARTESIAN_POINT('Ctrl Pts',(-30.7408169810875,0.499999999999987,4.59881546633965));
#219=CARTESIAN_POINT('Ctrl Pts',(-27.4143985106448,8.38813319927108,4.1010444834297));
#220=CARTESIAN_POINT('Ctrl Pts',(-26.1650613451227,16.5645615083139,3.91424900096357));
#221=CARTESIAN_POINT('Ctrl Pts',(-26.997548191696,25.0000000000315,4.03882376495088));
#222=CARTESIAN_POINT('Ctrl Pts',(-30.7408169810875,0.499999999999987,3.76466431190634E-15));
#223=CARTESIAN_POINT('Ctrl Pts',(-27.4147995781776,8.38813319927109,3.35734465526814E-15));
#224=CARTESIAN_POINT('Ctrl Pts',(-26.1651617183765,16.5645615083139,3.20430815475827E-15));
#225=CARTESIAN_POINT('Ctrl Pts',(-26.997548191696,25.0000000000315,3.30624609777869E-15));
#226=CARTESIAN_POINT('',(-26.9975481916928,25.,-3.3062460977783E-15));
#227=CARTESIAN_POINT('Ctrl Pts',(-30.7408169810875,0.500000000000001,3.76466431190633E-15));
#228=CARTESIAN_POINT('Ctrl Pts',(-30.1379022902875,1.92989973073106,3.69082855728162E-15));
#229=CARTESIAN_POINT('Ctrl Pts',(-29.6031108711739,3.36922115663339,-3.62533549731873E-15));
#230=CARTESIAN_POINT('Ctrl Pts',(-29.1365664687305,4.81785065185529,-3.56820028640749E-15));
#231=CARTESIAN_POINT('Ctrl Pts',(-28.6728121290894,6.25781694750213,3.51140675964427E-15));
#232=CARTESIAN_POINT('Ctrl Pts',(-28.2764921559888,7.70697960959295,-3.4628715609947E-15));
#233=CARTESIAN_POINT('Ctrl Pts',(-27.9477002981835,9.16518382000439,-3.42260617136999E-15));
#234=CARTESIAN_POINT('Ctrl Pts',(-27.6184603440231,10.625375354542,3.3822859057686E-15));
#235=CARTESIAN_POINT('Ctrl Pts',(-27.3569335542116,12.0946318334871,-3.35025811116521E-15));
#236=CARTESIAN_POINT('Ctrl Pts',(-27.1631704222239,13.5727692055416,-3.32652897122705E-15));
#237=CARTESIAN_POINT('Ctrl Pts',(-26.9697853039341,15.0480228702137,3.30284612461542E-15));
#238=CARTESIAN_POINT('Ctrl Pts',(-26.8438998904134,16.5321212354315,-3.28742960774268E-15));
#239=CARTESIAN_POINT('Ctrl Pts',(-26.7855129222232,18.0248745570093,-3.28027926637207E-15));
#240=CARTESIAN_POINT('Ctrl Pts',(-26.726936833952,19.5224630265252,3.27310576447129E-15));
#241=CARTESIAN_POINT('Ctrl Pts',(-26.7362966958902,21.028761148598,-3.27425201696759E-15));
#242=CARTESIAN_POINT('Ctrl Pts',(-26.8135414832042,22.5435937550495,-3.28371177512107E-15));
#243=CARTESIAN_POINT('Ctrl Pts',(-26.8551680730703,23.35992476996,3.28880956212497E-15));
#244=CARTESIAN_POINT('Ctrl Pts',(-26.9165079284252,24.1787346646508,-3.29632152787703E-15));
#245=CARTESIAN_POINT('Ctrl Pts',(-26.9975481916928,25.,-3.30624609777831E-15));
#246=CARTESIAN_POINT('Ctrl Pts',(-26.9975481916928,25.,-3.30624609777831E-15));
#247=CARTESIAN_POINT('Ctrl Pts',(-26.9975481916928,25.,-4.03882376495041));
#248=CARTESIAN_POINT('Ctrl Pts',(-26.0772940175451,25.,-8.07736221921875));
#249=CARTESIAN_POINT('Ctrl Pts',(-24.3254457097644,25.,-11.7152136288883));
#250=CARTESIAN_POINT('Ctrl Pts',(-22.5735974019837,25.,-15.3530650385578));
#251=CARTESIAN_POINT('Ctrl Pts',(-19.9901549605701,25.,-18.5902294036285));
#252=CARTESIAN_POINT('Ctrl Pts',(-16.8337139709528,25.,-21.1088646053216));
#253=CARTESIAN_POINT('Ctrl Pts',(-14.7294199778746,25.,-22.7879547397837));
#254=CARTESIAN_POINT('Ctrl Pts',(-12.3704599633725,25.,-24.1476985794113));
#255=CARTESIAN_POINT('Ctrl Pts',(-9.86356040059686,25.,-25.1312409639572));
#256=CARTESIAN_POINT('Ctrl Pts',(-7.35666083782123,25.,-26.1147833485031));
#257=CARTESIAN_POINT('Ctrl Pts',(-4.70182172677208,25.,-26.7221242779672));
#258=CARTESIAN_POINT('Ctrl Pts',(-2.01754772505802,25.,-26.9225512095098));
#259=CARTESIAN_POINT('Ctrl Pts',(0.66672627665604,25.,-27.1229781410524));
#260=CARTESIAN_POINT('Ctrl Pts',(3.38043516903501,25.,-26.9164910746734));
#261=CARTESIAN_POINT('Ctrl Pts',(6.00632520907159,25.,-26.3186480072683));
#262=CARTESIAN_POINT('Ctrl Pts',(8.63221524910818,25.,-25.7208049398632));
#263=CARTESIAN_POINT('Ctrl Pts',(11.1702864368024,25.,-24.7316058714319));
#264=CARTESIAN_POINT('Ctrl Pts',(13.5010224015186,25.,-23.3845279128878));
#265=CARTESIAN_POINT('Ctrl Pts',(18.162494330951,25.,-20.6903719957995));
#266=CARTESIAN_POINT('Ctrl Pts',(21.9946253684714,25.,-16.56470051826));
#267=CARTESIAN_POINT('Ctrl Pts',(24.3293121457334,25.,-11.7166508440063));
#268=CARTESIAN_POINT('Ctrl Pts',(26.6639989229954,25.,-6.86860116975257));
#269=CARTESIAN_POINT('Ctrl Pts',(27.5012414399991,25.,-1.2981732987847));
#270=CARTESIAN_POINT('Ctrl Pts',(26.7008437895292,25.,4.02450821708913));
#271=CARTESIAN_POINT('Ctrl Pts',(26.3006449642943,25.,6.68584897502605));
#272=CARTESIAN_POINT('Ctrl Pts',(25.491036097191,25.,9.28525314418945));
#273=CARTESIAN_POINT('Ctrl Pts',(24.3219620277413,25.,11.7125856239539));
#274=CARTESIAN_POINT('Ctrl Pts',(23.1528879582917,25.,14.1399181037184));
#275=CARTESIAN_POINT('Ctrl Pts',(21.6243486864957,25.,16.395178894084));
#276=CARTESIAN_POINT('Ctrl Pts',(19.7930558179417,25.,18.3674193154852));
#277=CARTESIAN_POINT('Ctrl Pts',(16.1304700808336,25.,22.3119001582875));
#278=CARTESIAN_POINT('Ctrl Pts',(11.2568699566937,25.,25.124299525232));
#279=CARTESIAN_POINT('Ctrl Pts',(6.00965111647866,25.,26.3253186613939));
#280=CARTESIAN_POINT('Ctrl Pts',(2.07423698631743,25.,27.2260830135153));
#281=CARTESIAN_POINT('Ctrl Pts',(-2.07133767163601,25.,27.2204459858215));
#282=CARTESIAN_POINT('Ctrl Pts',(-6.00900740682511,25.,26.320630811154));
#283=CARTESIAN_POINT('Ctrl Pts',(-9.94667714201423,25.,25.4208156364864));
#284=CARTESIAN_POINT('Ctrl Pts',(-13.676441954439,25.,23.626822314845));
#285=CARTESIAN_POINT('Ctrl Pts',(-16.8330226706826,25.,21.1094991074314));
#286=CARTESIAN_POINT('Ctrl Pts',(-19.9896033869262,25.,18.5921759000179));
#287=CARTESIAN_POINT('Ctrl Pts',(-22.5730000069887,25.,15.3515228068322));
#288=CARTESIAN_POINT('Ctrl Pts',(-24.3249862081803,25.,11.7131847730653));
#289=CARTESIAN_POINT('Ctrl Pts',(-26.076972409372,25.,8.07484673929846));
#290=CARTESIAN_POINT('Ctrl Pts',(-26.9975481916928,25.,4.03882376495041));
#291=CARTESIAN_POINT('Ctrl Pts',(-26.9975481916928,25.,4.44089209850063E-15));
#292=CARTESIAN_POINT('Origin',(0.,25.,0.));
#293=CARTESIAN_POINT('',(-27.5,25.,-3.36777869765522E-15));
#294=CARTESIAN_POINT('Origin',(0.,25.,0.));
#295=CARTESIAN_POINT('Origin',(0.,0.,0.));
#296=CARTESIAN_POINT('',(-31.5,0.,-3.85763741731416E-15));
#297=CARTESIAN_POINT('Origin',(0.,0.,0.));
#298=CARTESIAN_POINT('Ctrl Pts',(-31.5,0.,-3.85763741731416E-15));
#299=CARTESIAN_POINT('Ctrl Pts',(-27.9744578314656,8.04605823325081,-3.42588302411869E-15));
#300=CARTESIAN_POINT('Ctrl Pts',(-26.6411244981322,16.3793915665841,-3.26259678423238E-15));
#301=CARTESIAN_POINT('Ctrl Pts',(-27.5,25.,-3.36777869765522E-15));
#302=CARTESIAN_POINT('Ctrl Pts',(-31.5,0.,-4.71238898038469));
#303=CARTESIAN_POINT('Ctrl Pts',(-27.974003833509,8.04605823325081,-4.18510311875537));
#304=CARTESIAN_POINT('Ctrl Pts',(-26.6410138973497,16.3793915665841,-3.98553555278761));
#305=CARTESIAN_POINT('Ctrl Pts',(-27.5,25.,-4.11399037970092));
#306=CARTESIAN_POINT('Ctrl Pts',(-29.3525487548862,0.,-14.1364851227744));
#307=CARTESIAN_POINT('Ctrl Pts',(-26.0675614066521,8.04605823325082,-12.5543723086308));
#308=CARTESIAN_POINT('Ctrl Pts',(-24.8249682744551,16.3793915665841,-11.9559492423802));
#309=CARTESIAN_POINT('Ctrl Pts',(-25.625240976488,25.,-12.3413759008348));
#310=CARTESIAN_POINT('Ctrl Pts',(-21.314431502942,0.,-24.2085890374404));
#311=CARTESIAN_POINT('Ctrl Pts',(-18.9288097247837,8.0460582332508,-21.4990532682339));
#312=CARTESIAN_POINT('Ctrl Pts',(-18.0266634071062,16.3793915665841,-20.4743985165939));
#313=CARTESIAN_POINT('Ctrl Pts',(-18.607837026378,25.,-21.1344824930035));
#314=CARTESIAN_POINT('Ctrl Pts',(-11.6811364874228,0.,-29.7613748431096));
#315=CARTESIAN_POINT('Ctrl Pts',(-10.3738378372114,8.04605823325082,-26.430599941429));
#316=CARTESIAN_POINT('Ctrl Pts',(-9.87933980507459,16.3793915665841,-25.1707253968469));
#317=CARTESIAN_POINT('Ctrl Pts',(-10.197817568385,25.,-25.9821526408099));
#318=CARTESIAN_POINT('Ctrl Pts',(-2.38835670258423,0.,-31.887283312146));
#319=CARTESIAN_POINT('Ctrl Pts',(-2.12107727086982,8.04605823325081,-28.3181184313276));
#320=CARTESIAN_POINT('Ctrl Pts',(-2.01995999159286,16.3793915665841,-26.968601823175));
#321=CARTESIAN_POINT('Ctrl Pts',(-2.08507331177989,25.,-27.8381044788576));
#322=CARTESIAN_POINT('Ctrl Pts',(7.11047490079822,0.,-31.1644863118156));
#323=CARTESIAN_POINT('Ctrl Pts',(6.31473130468966,8.04605823325082,-27.6767823515363));
#324=CARTESIAN_POINT('Ctrl Pts',(6.01370225356678,16.3793915665841,-26.3574336837023));
#325=CARTESIAN_POINT('Ctrl Pts',(6.20755745307781,25.,-27.2070912246009));
#326=CARTESIAN_POINT('Ctrl Pts',(18.9558807951035,0.,-26.5478303309733));
#327=CARTESIAN_POINT('Ctrl Pts',(16.8342594081226,8.04605823325081,-23.5763861656446));
#328=CARTESIAN_POINT('Ctrl Pts',(16.0319256980686,16.3793915665842,-22.4527884421437));
#329=CARTESIAN_POINT('Ctrl Pts',(16.5487848211221,25.,-23.176677273072));
#330=CARTESIAN_POINT('Ctrl Pts',(30.1339449489544,0.,-14.5135209246133));
#331=CARTESIAN_POINT('Ctrl Pts',(26.7614271409938,8.04605823325081,-12.8891030186842));
#332=CARTESIAN_POINT('Ctrl Pts',(25.4858158084768,16.3793915665841,-12.274801320588));
#333=CARTESIAN_POINT('Ctrl Pts',(26.3074122570237,25.,-12.6705341405355));
#334=CARTESIAN_POINT('Ctrl Pts',(32.5761263093041,0.,1.73505441906493));
#335=CARTESIAN_POINT('Ctrl Pts',(28.9299764739236,8.04605823325081,1.54061664187022));
#336=CARTESIAN_POINT('Ctrl Pts',(27.551217992071,16.3793915665841,1.4673620591597));
#337=CARTESIAN_POINT('Ctrl Pts',(28.4394753493924,25.,1.51473004839001));
#338=CARTESIAN_POINT('Ctrl Pts',(28.7976027227143,0.,13.8666584029031));
#339=CARTESIAN_POINT('Ctrl Pts',(25.5748589460693,8.04605823325081,12.3150706876275));
#340=CARTESIAN_POINT('Ctrl Pts',(24.3556550570427,16.3793915665842,11.7278226096611));
#341=CARTESIAN_POINT('Ctrl Pts',(25.1407642817347,25.,12.1058128914234));
#342=CARTESIAN_POINT('Ctrl Pts',(21.6637876284046,0.,24.3922163277697));
#343=CARTESIAN_POINT('Ctrl Pts',(19.2387649821344,8.04605823325082,21.6619215162351));
#344=CARTESIAN_POINT('Ctrl Pts',(18.3220582013779,16.3793915665842,20.6296508384557));
#345=CARTESIAN_POINT('Ctrl Pts',(18.9128304692421,25.,21.2947920321798));
#346=CARTESIAN_POINT('Ctrl Pts',(8.86949753861574,0.,31.7753847484091));
#347=CARTESIAN_POINT('Ctrl Pts',(7.87700398695224,8.0460582332508,28.2191380006955));
#348=CARTESIAN_POINT('Ctrl Pts',(7.50142566645579,16.3793915665842,26.8740596538637));
#349=CARTESIAN_POINT('Ctrl Pts',(7.74321213688677,25.,27.7404152565476));
#350=CARTESIAN_POINT('Ctrl Pts',(-7.25376291346799,0.,31.753548049524));
#351=CARTESIAN_POINT('Ctrl Pts',(-6.44201822779033,8.04605823325082,28.1996636465106));
#352=CARTESIAN_POINT('Ctrl Pts',(-6.13489685512475,16.3793915665841,26.8555713720931));
#353=CARTESIAN_POINT('Ctrl Pts',(-6.33265016255143,25.,27.7213514718066));
#354=CARTESIAN_POINT('Ctrl Pts',(-20.3084802886714,0.,25.4738136788144));
#355=CARTESIAN_POINT('Ctrl Pts',(-18.0354045310421,8.04605823325081,22.6225974466876));
#356=CARTESIAN_POINT('Ctrl Pts',(-17.1758699458048,16.3793915665841,21.5444442035086));
#357=CARTESIAN_POINT('Ctrl Pts',(-17.7296256488401,25.,22.2390436878539));
#358=CARTESIAN_POINT('Ctrl Pts',(-29.3514053603248,0.,14.1310307824604));
#359=CARTESIAN_POINT('Ctrl Pts',(-26.0663740194951,8.04605823325081,12.5495115713862));
#360=CARTESIAN_POINT('Ctrl Pts',(-24.8239593555908,16.3793915665842,11.951332127413));
#361=CARTESIAN_POINT('Ctrl Pts',(-25.6242427748867,25.,12.3366141751639));
#362=CARTESIAN_POINT('Ctrl Pts',(-31.5,0.,4.71238898038469));
#363=CARTESIAN_POINT('Ctrl Pts',(-27.9740616869417,8.04605823325081,4.18481098508038));
#364=CARTESIAN_POINT('Ctrl Pts',(-26.6410279913226,16.3793915665841,3.98546438459709));
#365=CARTESIAN_POINT('Ctrl Pts',(-27.5,25.,4.11399037970092));
#366=CARTESIAN_POINT('Ctrl Pts',(-31.5,0.,3.85763741731416E-15));
#367=CARTESIAN_POINT('Ctrl Pts',(-27.9744578314656,8.04605823325081,3.42588302411869E-15));
#368=CARTESIAN_POINT('Ctrl Pts',(-26.6411244981322,16.3793915665841,3.26259678423238E-15));
#369=CARTESIAN_POINT('Ctrl Pts',(-27.5,25.,3.36777869765522E-15));
#370=CARTESIAN_POINT('Ctrl Pts',(-31.5,0.,3.85763741731416E-15));
#371=CARTESIAN_POINT('Ctrl Pts',(-27.9744578314656,8.04605823325081,3.42588302411869E-15));
#372=CARTESIAN_POINT('Ctrl Pts',(-26.6411244981322,16.3793915665841,3.26259678423238E-15));
#373=CARTESIAN_POINT('Ctrl Pts',(-27.5,25.,3.36777869765522E-15));
#374=UNCERTAINTY_MEASURE_WITH_UNIT(LENGTH_MEASURE(0.01),#378,
'DISTANCE_ACCURACY_VALUE',
'Maximum model space distance between geometric entities at asserted c
onnectivities');
#375=UNCERTAINTY_MEASURE_WITH_UNIT(LENGTH_MEASURE(0.01),#378,
'DISTANCE_ACCURACY_VALUE',
'Maximum model space distance between geometric entities at asserted c
onnectivities');
#376=(
GEOMETRIC_REPRESENTATION_CONTEXT(3)
GLOBAL_UNCERTAINTY_ASSIGNED_CONTEXT((#374))
GLOBAL_UNIT_ASSIGNED_CONTEXT((#378,#380,#381))
REPRESENTATION_CONTEXT('','3D')
);
#377=(
GEOMETRIC_REPRESENTATION_CONTEXT(3)
GLOBAL_UNCERTAINTY_ASSIGNED_CONTEXT((#375))
GLOBAL_UNIT_ASSIGNED_CONTEXT((#378,#380,#381))
REPRESENTATION_CONTEXT('','3D')
);
#378=(
LENGTH_UNIT()
NAMED_UNIT(*)
SI_UNIT(.MILLI.,.METRE.)
);
#379=(
LENGTH_UNIT()
NAMED_UNIT(*)
SI_UNIT(.CENTI.,.METRE.)
);
#380=(
NAMED_UNIT(*)
PLANE_ANGLE_UNIT()
SI_UNIT($,.RADIAN.)
);
#381=(
NAMED_UNIT(*)
SI_UNIT($,.STERADIAN.)
SOLID_ANGLE_UNIT()
);
#382=SHAPE_DEFINITION_REPRESENTATION(#383,#384);
#383=PRODUCT_DEFINITION_SHAPE('',$,#386);
#384=SHAPE_REPRESENTATION('',(#87),#376);
#385=PRODUCT_DEFINITION_CONTEXT('part definition',#390,'design');
#386=PRODUCT_DEFINITION('mock_dosing_funnel','mock_dosing_funnel',#387,
#385);
#387=PRODUCT_DEFINITION_FORMATION('',$,#392);
#388=PRODUCT_RELATED_PRODUCT_CATEGORY('mock_dosing_funnel',
'mock_dosing_funnel',(#392));
#389=APPLICATION_PROTOCOL_DEFINITION('international standard',
'automotive_design',2009,#390);
#390=APPLICATION_CONTEXT(
'Core Data for Automotive Mechanical Design Process');
#391=PRODUCT_CONTEXT('part definition',#390,'mechanical');
#392=PRODUCT('mock_dosing_funnel','mock_dosing_funnel',$,(#391));
#393=PRESENTATION_STYLE_ASSIGNMENT((#394));
#394=SURFACE_STYLE_USAGE(.BOTH.,#397);
#395=SURFACE_STYLE_RENDERING_WITH_PROPERTIES($,#401,(#396));
#396=SURFACE_STYLE_TRANSPARENT(0.);
#397=SURFACE_SIDE_STYLE('',(#398,#395));
#398=SURFACE_STYLE_FILL_AREA(#399);
#399=FILL_AREA_STYLE('',(#400));
#400=FILL_AREA_STYLE_COLOUR('',#401);
#401=COLOUR_RGB('',0.996078431372549,0.835294117647059,0.);
ENDSEC;
END-ISO-10303-21;
